<svg width="595" height="595" viewBox="0 0 595 595" fill="none" xmlns="http://www.w3.org/2000/svg">
<path d="M80 407H514.631V188H80V407ZM397.55 219.334C451.458 224.556 479.591 227.925 482.286 229.61L485.992 231.8V295.647C485.992 354.103 485.824 359.494 483.128 361.852C480.77 363.874 462.239 366.064 406.815 371.455C366.553 375.329 327.133 378.867 319.215 379.372C300.348 380.72 143.51 365.727 137.782 362.189L133.908 359.831V295.984C133.908 238.875 134.245 231.968 136.603 229.947C139.635 227.42 279.964 212.258 304.054 211.753C310.961 211.585 353.076 214.954 397.55 219.334Z" fill="#BEBEBE"/>
<path d="M177.708 348.038H201.292V317.715C201.292 301.038 200.45 287.5 201.292 287.5C201.292 287.5 212.916 301.038 223.866 317.715L243.913 348.038H268.677V312.156L275.247 322.264C286.028 338.942 300.853 347.028 320.563 346.859C334.545 346.691 351.054 338.942 357.624 329.339C360.151 325.802 362.678 322.938 363.521 322.769C364.194 322.769 364.7 328.497 364.7 335.404V348.038H388.284V322.769H399.066C432.084 322.769 446.909 311.482 448.594 284.697C449.268 274.252 448.762 271.22 445.056 263.302C441.687 255.89 439.16 253.026 432.758 249.32C424.672 244.435 423.998 244.435 394.686 243.929L364.7 243.255V269.704L357.456 261.786C347.011 250.499 335.219 245.277 319.215 245.277C299.337 245.445 286.028 252.521 275.247 269.367L268.677 279.475V244.435H245.934L245.429 274.421C245.261 290.93 244.418 304.238 243.576 303.902C242.734 303.565 233.131 289.919 222.35 273.41L202.471 243.592H177.708V348.038ZM329.997 268.862C332.355 269.704 335.893 272.062 337.746 273.915C342.8 278.969 352.914 283.181 361 283.181C366.728 283.181 366.553 282.844 366.048 285.202C365.542 287.898 362.847 288.403 346.169 289.077C335.556 289.582 325.111 290.93 323.09 292.109C318.878 294.468 317.025 299.69 317.868 306.934C318.373 311.651 318.541 311.819 329.828 312.325C342.968 312.83 343.811 314.683 333.366 320.579C313.824 331.698 290.577 318.558 290.577 296.321C290.577 283.349 296.81 273.242 307.423 269.03C312.982 266.84 324.606 266.672 329.997 268.862ZM421.977 268.862C428.884 272.568 427.536 293.625 420.292 297.5C418.608 298.342 410.69 299.185 402.772 299.185H388.284V267.177H403.614C412.038 267.177 420.292 268.019 421.977 268.862Z" fill="#BEBEBE"/>
</svg>
