<svg width="595" height="595" viewBox="0 0 595 595" fill="none" xmlns="http://www.w3.org/2000/svg">
<path fill-rule="evenodd" clip-rule="evenodd" d="M207.443 412.62L208.475 411.17L209.426 411.659L220.732 403.894L223.211 405.658L219.557 418.867L220.33 419.606L219.298 421.056L215.186 418.131L216.218 416.679L217.162 417.125L217.811 415.091L213.566 412.07L211.856 413.352L212.587 414.095L211.555 415.547L207.443 412.62ZM215.407 410.694L218.507 412.902L220.042 407.76L220.185 407.314L220.135 407.278L219.734 407.58L215.407 410.694Z" fill="#BFBFBF"/>
<path d="M227.647 426.089C226.686 425.571 225.869 424.993 225.197 424.353C224.525 423.714 223.95 422.92 223.472 421.978L225.172 418.825L227.196 419.915L226.474 421.92C226.62 422.293 226.891 422.676 227.285 423.074C227.683 423.466 228.159 423.81 228.715 424.109C229.186 424.366 229.619 424.514 230.012 424.556C230.411 424.601 230.759 424.549 231.055 424.401C231.36 424.25 231.601 424.009 231.778 423.681C231.946 423.37 232.016 423.055 231.99 422.733C231.972 422.406 231.84 422.052 231.594 421.663C231.357 421.274 230.99 420.824 230.493 420.32C229.625 419.459 228.946 418.665 228.459 417.938C227.98 417.209 227.706 416.505 227.636 415.821C227.576 415.13 227.737 414.432 228.12 413.722C228.5 413.018 229.029 412.501 229.707 412.173C230.394 411.842 231.167 411.707 232.027 411.771C232.887 411.832 233.774 412.102 234.688 412.581C235.698 413.111 236.52 413.706 237.155 414.374C237.796 415.043 238.276 415.753 238.596 416.502L237.012 419.439L235.051 418.382L235.676 416.409C235.527 416.142 235.287 415.853 234.957 415.534C234.632 415.223 234.225 414.934 233.736 414.67C233.318 414.442 232.914 414.307 232.524 414.259C232.14 414.214 231.791 414.259 231.477 414.4C231.163 414.538 230.915 414.776 230.731 415.117C230.573 415.409 230.515 415.711 230.558 416.02C230.603 416.319 230.761 416.672 231.031 417.071C231.31 417.469 231.724 417.958 232.274 418.539C233.497 419.716 234.302 420.831 234.688 421.885C235.08 422.946 234.988 424.009 234.412 425.079C234.013 425.819 233.467 426.352 232.774 426.68C232.084 427.001 231.299 427.114 230.419 427.017C229.538 426.921 228.615 426.612 227.647 426.089Z" fill="#BFBFBF"/>
<path d="M242.224 431.002L241.578 432.661L247.316 434.894L247.961 433.233L246.583 432.372L250.367 422.64L252.899 423.627L252.409 425.333L254.514 426.153L255.986 422.37L243.667 417.578L242.195 421.361L244.291 422.177L245.085 420.587L247.598 421.564L243.814 431.295L242.224 431.002Z" fill="#BFBFBF"/>
<path d="M256.649 438.568L257.008 436.823L258.614 436.842L260.757 426.426L259.274 425.809L259.635 424.057L265.485 425.259L267.36 436.19L267.42 436.202L273.328 426.873L279.188 428.078L278.827 429.833L277.211 429.813L275.069 440.226L276.562 440.846L276.203 442.591L270.193 441.354L270.552 439.609L272.238 439.644L272.81 436.864L274.207 430.328L274.149 430.305L267.514 440.596L265.311 440.143L263.158 428.136H263.096L261.998 434.329L261.365 437.408L263.017 438.06L262.659 439.805L256.649 438.568Z" fill="#BFBFBF"/>
<path d="M290.785 442.19L290.755 443.97L298.72 444.108L298.752 442.328L296.254 441.981L296.476 429.254L290.965 430.154L290.935 431.854L293.468 431.899L293.294 441.929L290.785 442.19Z" fill="#BFBFBF"/>
<path fill-rule="evenodd" clip-rule="evenodd" d="M309.075 443.903C308.041 443.996 307.105 443.838 306.265 443.437C305.432 443.029 304.753 442.395 304.229 441.544C303.703 440.686 303.385 439.632 303.275 438.391L303.046 435.794C302.923 434.403 303.068 433.194 303.481 432.172C303.901 431.141 304.534 430.324 305.379 429.727C306.225 429.119 307.225 428.766 308.38 428.663C308.934 428.615 309.449 428.624 309.925 428.689C310.407 428.75 310.894 428.859 311.384 429.02L311.058 431.224C310.682 431.128 310.294 431.054 309.895 431.003C309.495 430.948 309.086 430.941 308.667 430.977C307.694 431.064 306.982 431.449 306.532 432.137C306.089 432.822 305.919 433.792 306.023 435.042L306.058 435.09C306.359 434.714 306.754 434.409 307.243 434.168C307.739 433.927 308.295 433.779 308.91 433.725C309.795 433.644 310.574 433.792 311.247 434.162C311.919 434.531 312.458 435.074 312.862 435.794C313.266 436.514 313.511 437.359 313.597 438.324C313.684 439.317 313.55 440.223 313.193 441.036C312.842 441.843 312.312 442.505 311.601 443.016C310.897 443.52 310.054 443.816 309.075 443.903ZM308.813 441.637C309.239 441.602 309.596 441.441 309.884 441.155C310.172 440.872 310.381 440.502 310.511 440.049C310.64 439.587 310.682 439.085 310.634 438.545C310.564 437.755 310.311 437.128 309.875 436.662C309.445 436.19 308.875 435.984 308.165 436.048C307.861 436.074 307.578 436.141 307.314 436.244C307.052 436.35 306.822 436.485 306.625 436.652C306.428 436.813 306.268 437.003 306.144 437.218L306.231 438.198C306.335 439.368 306.623 440.249 307.098 440.84C307.572 441.431 308.144 441.698 308.813 441.637Z" fill="#BFBFBF"/>
<path d="M324.24 440.278L324.421 441.778L327.324 441.148L327.143 439.644C327.026 438.504 326.961 437.453 326.946 436.492C326.931 435.531 326.993 434.599 327.131 433.702C327.267 432.799 327.501 431.88 327.832 430.945C328.163 430.006 328.617 428.997 329.195 427.92L328.708 425.684L318.477 427.911L319.275 431.578L321.503 431.096L321.3 429.64L326.401 428.528C325.754 429.704 325.245 430.922 324.874 432.182C324.501 433.439 324.263 434.74 324.161 436.087C324.057 437.43 324.084 438.825 324.24 440.278Z" fill="#BFBFBF"/>
<path d="M341.912 437.44L341.548 435.974C341.214 434.55 341.016 433.168 340.955 431.825C340.89 430.475 340.966 429.154 341.182 427.862C341.395 426.564 341.751 425.295 342.248 424.048L337.323 425.777L337.702 427.197L335.552 427.952L334.308 424.408L344.188 420.943L344.946 423.103C344.505 424.241 344.178 425.298 343.966 426.272C343.752 427.239 343.632 428.177 343.608 429.093C343.582 430 343.635 430.932 343.768 431.883C343.901 432.834 344.095 433.872 344.351 434.988L344.715 436.456L341.912 437.44Z" fill="#BFBFBF"/>
<path fill-rule="evenodd" clip-rule="evenodd" d="M361.533 427.863L362.397 429.418L366.809 426.969L365.945 425.41L364.958 425.751L364.539 423.656L369.093 421.126L370.65 422.589L369.841 423.248L370.705 424.806L375.118 422.354L374.253 420.799L373.254 421.178L362.908 412.189L360.249 413.667L362.384 427.213L361.533 427.863ZM367.417 419.555L364.091 421.403L363.144 416.155L363.045 415.663L363.098 415.634L363.44 415.955L367.417 419.555Z" fill="#BFBFBF"/>
<path d="M379.237 419.937L378.152 418.527L379.217 417.321L372.737 408.892L371.3 409.611L370.209 408.191L373.847 405.395L385.224 409.611L385.267 409.566L380.287 403.087L378.601 404L377.51 402.58L382.374 398.842L383.466 400.259L382.393 401.471L390.144 411.553L387.869 413.301L376.441 409.255L376.399 409.3L381.322 415.705L383.017 414.786L384.102 416.196L379.237 419.937Z" fill="#BFBFBF"/>
<path fill-rule="evenodd" clip-rule="evenodd" d="M396.484 403.888L397.763 405.125L402.314 400.426C403.237 399.478 403.821 398.424 404.072 397.267C404.323 396.113 404.249 394.956 403.85 393.796C403.452 392.626 402.751 391.556 401.742 390.578L401.543 390.387C400.524 389.4 399.425 388.732 398.246 388.381C397.063 388.021 395.899 387.99 394.752 388.286C393.602 388.578 392.567 389.199 391.644 390.149L387.122 394.818L388.409 396.065L389.768 395.159L397.355 402.506L396.484 403.888ZM400.579 398.958L399.312 400.266L391.937 393.125L393.206 391.813C393.775 391.225 394.415 390.875 395.118 390.763C395.816 390.646 396.539 390.743 397.288 391.052C398.037 391.352 398.76 391.842 399.464 392.52L399.666 392.72C400.36 393.388 400.868 394.095 401.199 394.841C401.53 395.577 401.655 396.303 401.572 397.013C401.482 397.72 401.151 398.37 400.579 398.958Z" fill="#BFBFBF"/>
<path d="M414.023 387.039L412.574 386.001L413.785 383.789L405.632 377.942L404.157 380.002L402.775 379.011L405.166 373.965L415.511 381.383L417.218 379.526L418.664 380.564L414.023 387.039Z" fill="#BFBFBF"/>
<path fill-rule="evenodd" clip-rule="evenodd" d="M422.079 374.437C422.889 373.978 423.551 373.299 424.068 372.398C424.557 371.544 424.795 370.684 424.782 369.817C424.769 368.942 424.528 368.129 424.068 367.38C423.602 366.621 422.937 365.995 422.073 365.499C421.23 365.017 420.398 364.736 419.575 364.657C418.756 364.577 418.001 364.707 417.313 365.048C416.625 365.389 416.059 365.946 415.619 366.717C415.311 367.252 415.115 367.793 415.031 368.338C414.948 368.877 414.973 369.377 415.108 369.838L415.05 369.839C413.964 369.209 413.267 368.517 412.958 367.761C412.65 366.999 412.74 366.194 413.225 365.347C413.434 364.982 413.675 364.651 413.948 364.353C414.218 364.055 414.501 363.78 414.796 363.526L413.173 361.999C412.759 362.31 412.393 362.646 412.068 363.007C411.74 363.36 411.438 363.777 411.162 364.26C410.586 365.267 410.307 366.29 410.32 367.33C410.329 368.366 410.635 369.351 411.242 370.285C411.846 371.209 412.756 372.019 413.967 372.713L416.23 374.007C417.313 374.627 418.357 374.967 419.36 375.027C420.36 375.083 421.266 374.887 422.079 374.437ZM422.275 370.164C422.342 370.563 422.272 370.947 422.06 371.318C421.725 371.901 421.179 372.218 420.424 372.27C419.669 372.322 418.778 372.056 417.763 371.473L416.905 370.982C416.799 370.758 416.738 370.519 416.718 370.265C416.693 370.009 416.712 369.743 416.776 369.466C416.84 369.191 416.947 368.92 417.101 368.655C417.454 368.037 417.946 367.687 418.582 367.604C419.212 367.512 419.871 367.663 420.562 368.057C421.031 368.327 421.42 368.647 421.722 369.016C422.021 369.382 422.204 369.765 422.275 370.164Z" fill="#BFBFBF"/>
<path fill-rule="evenodd" clip-rule="evenodd" d="M431.621 357.293L429.979 356.606L430.31 355.024L428.966 354.462L426.633 360.037L425.235 359.607L418.554 350.138L419.711 347.378L428.288 350.969L428.937 349.42L430.76 350.182L430.11 351.731L431.451 352.293L432.344 350.955L433.986 351.643L431.621 357.293ZM425.826 356.854L427.147 353.7L422.217 351.638L422.176 351.686L422.474 352.076L425.826 356.854Z" fill="#BFBFBF"/>
<path d="M437.14 342.091C437.668 341.435 438.06 340.654 438.313 339.746C438.58 338.785 438.651 337.882 438.522 337.036C438.394 336.183 438.076 335.453 437.568 334.847C437.063 334.241 436.376 333.816 435.505 333.573C434.733 333.358 434.001 333.378 433.303 333.633C432.606 333.883 432.005 334.363 431.503 335.075C431.368 334.248 431.086 333.577 430.652 333.062C430.221 332.54 429.672 332.185 429.003 331.999C427.718 331.639 426.602 331.8 425.658 332.48C424.709 333.158 424.031 334.219 423.626 335.663C423.369 336.584 423.311 337.451 423.45 338.265C423.585 339.07 423.893 339.752 424.378 340.31C424.857 340.866 425.478 341.24 426.242 341.432L426.307 341.43L427.081 338.656C426.728 338.558 426.438 338.393 426.217 338.161C425.992 337.923 425.85 337.64 425.786 337.312C425.719 336.983 425.735 336.632 425.837 336.26C426.011 335.639 426.32 335.214 426.763 334.986C427.203 334.756 427.724 334.727 428.331 334.896C428.73 335.008 429.058 335.176 429.312 335.402C429.566 335.628 429.733 335.911 429.813 336.251C429.887 336.588 429.861 336.986 429.733 337.443L429.283 339.05L431.43 339.65L431.863 338.102C432.075 337.337 432.423 336.818 432.901 336.543C433.38 336.268 433.952 336.224 434.618 336.41C435.276 336.594 435.739 336.931 436.006 337.421C436.263 337.902 436.302 338.473 436.118 339.132C436 339.557 435.81 339.902 435.553 340.168C435.299 340.428 435 340.602 434.659 340.689C434.315 340.777 433.956 340.768 433.576 340.662L432.802 343.435L432.856 343.471C433.718 343.734 434.518 343.735 435.254 343.475C435.983 343.208 436.61 342.746 437.14 342.091Z" fill="#BFBFBF"/>
<path d="M292.951 372.172L296.04 375.287L300.31 374.282L298.302 378.182L300.577 381.933L296.247 381.229L293.383 384.551L292.715 380.216L288.67 378.519L292.587 376.544L292.951 372.172Z" fill="#BFBFBF"/>
<path d="M307.637 366.827L310.726 369.941L314.996 368.937L312.989 372.837L315.263 376.588L310.934 375.883L308.07 379.206L307.401 374.87L303.357 373.173L307.273 371.198L307.637 366.827Z" fill="#BFBFBF"/>
<path d="M325.411 364.596L322.322 361.481L321.958 365.853L318.042 367.828L322.086 369.525L322.755 373.86L325.619 370.538L329.948 371.242L327.673 367.492L329.681 363.592L325.411 364.596Z" fill="#BFBFBF"/>
<path d="M337.01 356.136L340.098 359.251L344.369 358.246L342.361 362.146L344.636 365.897L340.306 365.193L337.442 368.515L336.774 364.18L332.729 362.483L336.645 360.507L337.01 356.136Z" fill="#BFBFBF"/>
<path d="M354.786 353.905L351.697 350.791L351.333 355.162L347.416 357.137L351.461 358.834L352.129 363.17L354.993 359.847L359.323 360.551L357.048 356.801L359.055 352.901L354.786 353.905Z" fill="#BFBFBF"/>
<path d="M246.942 180.565L248.041 183.481L258.121 179.679L257.022 176.764L254.217 177.25L247.77 160.156L252.219 158.479L253.579 161.277L257.277 159.882L254.77 153.235L233.128 161.397L235.635 168.044L239.317 166.656L238.49 163.656L242.906 161.991L249.352 179.085L246.942 180.565Z" fill="#BFBFBF"/>
<path fill-rule="evenodd" clip-rule="evenodd" d="M220.398 199.498L218.722 196.872L220.761 194.936L210.75 179.251L208.136 180.286L206.45 177.644L216.807 171.034C218.488 169.961 220.095 169.302 221.628 169.056C223.16 168.81 224.557 168.968 225.817 169.529C227.087 170.085 228.156 171.043 229.025 172.404C229.842 173.685 230.253 175.035 230.258 176.454C230.262 177.874 229.879 179.238 229.109 180.546L229.075 180.603L235.96 185.256L238.099 184.504L239.776 187.131L234.462 190.522L225.592 184.037L221.599 186.586L225.144 192.139L227.773 191.095L229.449 193.722L220.398 199.498ZM219.444 183.209L223.016 180.928C224.277 180.124 225.048 179.258 225.33 178.332C225.616 177.389 225.433 176.407 224.781 175.387C224.136 174.376 223.312 173.769 222.308 173.564C221.298 173.35 220.183 173.632 218.962 174.411L215.315 176.739L219.444 183.209Z" fill="#BFBFBF"/>
<path d="M207.205 207.673L209.293 209.986L217.25 202.804L215.162 200.491L212.756 201.943L200.288 188.13L201.979 185.885L199.879 183.558L191.922 190.741L194.021 193.067L196.428 191.614L208.896 205.427L207.205 207.673Z" fill="#BFBFBF"/>
<path fill-rule="evenodd" clip-rule="evenodd" d="M186.977 232.814L189.462 234.694L194.791 227.652L192.306 225.771L190.965 227.012L188.813 223.954L194.314 216.684L197.841 217.924L197.012 219.552L199.497 221.432L204.826 214.389L202.341 212.509L201.01 213.825L178.092 206.754L174.879 211L187.881 231.177L186.977 232.814ZM190.52 215.354L186.501 220.665L181.274 212.936L180.768 212.218L180.832 212.133L181.607 212.407L190.52 215.354Z" fill="#BFBFBF"/>
<path d="M267.56 176.327L267.098 173.246L269.747 172.307L266.983 153.906L264.174 153.788L263.708 150.689L283.606 147.699L284.646 154.62L280.702 155.212L280.028 152.288L272.175 153.468L273.143 159.913L281.824 158.609L282.419 162.571L273.738 163.875L274.839 171.2L283.115 169.957L282.883 166.859L286.793 166.271L287.846 173.279L267.56 176.327Z" fill="#BFBFBF"/>
<path fill-rule="evenodd" clip-rule="evenodd" d="M308.498 173.562L315.494 178.958L318.277 175.528L312.982 171.754C314.512 170.672 315.738 169.226 316.66 167.416C317.593 165.607 318.13 163.577 318.271 161.326L318.295 160.935C318.413 159.051 318.237 157.292 317.768 155.657C317.311 154.023 316.592 152.586 315.61 151.348C314.641 150.098 313.455 149.102 312.05 148.361C310.657 147.619 309.084 147.194 307.33 147.085C305.589 146.976 303.981 147.203 302.506 147.765C301.032 148.327 299.743 149.169 298.638 150.289C297.534 151.398 296.654 152.735 295.998 154.3C295.341 155.864 294.954 157.588 294.836 159.472L294.812 159.863C294.694 161.759 294.863 163.524 295.32 165.158C295.777 166.792 296.485 168.228 297.442 169.465C298.4 170.702 299.575 171.691 300.968 172.433C302.373 173.174 303.947 173.6 305.688 173.708C306.15 173.737 306.614 173.736 307.08 173.706C307.557 173.676 308.03 173.628 308.498 173.562ZM309.671 168.765C308.653 169.462 307.409 169.765 305.939 169.674C304.506 169.585 303.327 169.13 302.403 168.312C301.479 167.493 300.816 166.387 300.415 164.994C300.026 163.602 299.888 162 300.001 160.187L300.028 159.76C300.141 157.948 300.477 156.381 301.035 155.06C301.593 153.739 302.375 152.735 303.381 152.048C304.388 151.35 305.62 151.046 307.078 151.137C308.535 151.228 309.726 151.683 310.65 152.501C311.586 153.321 312.26 154.428 312.673 155.821C313.086 157.203 313.237 158.788 313.126 160.577L313.099 161.004C312.986 162.816 312.644 164.389 312.074 165.721C311.503 167.053 310.702 168.068 309.671 168.765Z" fill="#BFBFBF"/>
<path d="M333.408 172.933C331.589 172.389 330.319 171.352 329.599 169.823C328.891 168.298 328.835 166.54 329.43 164.55L330.038 162.52C330.627 160.552 331.638 159.12 333.071 158.223C334.515 157.33 336.148 157.155 337.967 157.7C339.753 158.234 341.009 159.106 341.738 160.315C342.481 161.517 342.577 162.958 342.024 164.639L341.959 164.731L339.435 163.975C339.755 162.906 339.73 162.056 339.361 161.426C338.996 160.784 338.301 160.309 337.278 160.003C336.209 159.683 335.273 159.83 334.469 160.445C333.666 161.059 333.072 162.009 332.687 163.294L332.074 165.341C331.683 166.649 331.654 167.78 331.988 168.735C332.325 169.679 333.029 170.311 334.098 170.63C335.121 170.937 335.954 170.926 336.598 170.598C337.252 170.274 337.741 169.571 338.065 168.491L340.589 169.246L340.593 169.359C340.125 171.09 339.256 172.255 337.986 172.854C336.72 173.441 335.194 173.468 333.408 172.933Z" fill="#BFBFBF"/>
<path fill-rule="evenodd" clip-rule="evenodd" d="M332.101 178.174C330.418 177.67 328.94 176.874 327.667 175.787C326.397 174.689 325.384 173.394 324.628 171.904C323.876 170.402 323.418 168.785 323.256 167.051C323.093 165.317 323.28 163.552 323.818 161.755C324.356 159.958 325.167 158.386 326.252 157.038C327.341 155.678 328.61 154.583 330.06 153.754C331.51 152.924 333.066 152.404 334.727 152.195C336.388 151.986 338.06 152.133 339.743 152.637C341.415 153.137 342.887 153.931 344.16 155.018C345.434 156.105 346.448 157.394 347.204 158.884C347.971 160.378 348.436 161.991 348.599 163.725C348.765 165.448 348.579 167.207 348.042 169.004C347.504 170.801 346.691 172.379 345.602 173.739C344.514 175.098 343.237 176.197 341.772 177.034C340.311 177.861 338.748 178.385 337.083 178.605C335.434 178.818 333.773 178.674 332.101 178.174ZM332.739 176.041C334.127 176.457 335.503 176.577 336.869 176.404C338.249 176.222 339.538 175.784 340.737 175.089C341.951 174.387 343.006 173.47 343.903 172.338C344.814 171.198 345.494 169.877 345.943 168.376C346.393 166.875 346.548 165.404 346.409 163.962C346.282 162.524 345.901 161.189 345.266 159.958C344.634 158.716 343.795 157.647 342.75 156.752C341.707 155.845 340.492 155.184 339.105 154.769C337.706 154.35 336.319 154.226 334.942 154.397C333.576 154.57 332.288 155.003 331.078 155.694C329.867 156.385 328.814 157.296 327.918 158.428C327.021 159.56 326.348 160.877 325.899 162.378C325.45 163.879 325.287 165.355 325.411 166.804C325.55 168.246 325.927 169.592 326.545 170.842C327.176 172.084 328.019 173.161 329.072 174.07C330.13 174.969 331.352 175.626 332.739 176.041Z" fill="#BFBFBF"/>
<path d="M274.272 215.129L264.388 205.163L263.223 219.151L250.689 225.471L263.633 230.902L265.772 244.775L274.936 234.143L288.791 236.397L281.511 224.395L287.936 211.915L274.272 215.129Z" fill="#BFBFBF"/>
<path d="M229.999 234.783L237.578 239.201L245.307 235.05L243.448 243.624L249.784 249.692L241.055 250.572L237.242 258.474L233.707 250.444L225.014 249.26L231.558 243.416L229.999 234.783Z" fill="#BFBFBF"/>
<path d="M309.76 205.752L314.115 213.368L322.884 213.638L316.986 220.133L319.44 228.556L311.44 224.955L304.187 229.891L305.14 221.17L298.205 215.797L306.794 214.009L309.76 205.752Z" fill="#BFBFBF"/>
<path d="M185.035 347.562L193.835 344.359C194.708 347.308 194.845 350.158 194.247 352.909C193.668 355.653 192.351 358.109 190.297 360.279C188.262 362.442 185.488 364.162 181.976 365.441C179.229 366.44 176.595 366.866 174.075 366.717C171.547 366.548 169.183 365.853 166.983 364.632C164.803 363.403 162.85 361.67 161.124 359.431C159.398 357.193 157.964 354.504 156.821 351.365L155.74 348.392C154.597 345.253 153.977 342.268 153.88 339.437C153.795 336.579 154.203 333.975 155.103 331.625C156.023 329.269 157.397 327.213 159.225 325.459C161.053 323.705 163.311 322.339 165.999 321.36C169.57 320.061 172.818 319.612 175.741 320.014C178.685 320.409 181.248 321.499 183.43 323.282C185.632 325.058 187.399 327.348 188.73 330.152L179.901 333.365C179.174 331.675 178.299 330.338 177.275 329.355C176.243 328.353 175.019 327.766 173.6 327.593C172.194 327.394 170.511 327.651 168.549 328.365C167.077 328.901 165.892 329.643 164.993 330.593C164.094 331.542 163.475 332.711 163.137 334.101C162.799 335.491 162.754 337.107 163.002 338.95C163.263 340.766 163.808 342.812 164.636 345.088L165.739 348.119C166.546 350.336 167.424 352.228 168.371 353.794C169.312 355.34 170.336 356.567 171.444 357.475C172.565 358.356 173.782 358.891 175.095 359.079C176.42 359.241 177.868 359.037 179.437 358.465C181.282 357.794 182.695 356.946 183.678 355.922C184.661 354.898 185.255 353.692 185.462 352.306C185.688 350.913 185.546 349.332 185.035 347.562Z" fill="#BFBFBF"/>
<path d="M231.052 339.112L233.559 345.999L204.805 356.464L189.208 313.612L217.933 303.157L220.45 310.074L200.554 317.315L204.389 327.852L221.342 321.681L223.784 328.391L206.832 334.562L211.128 346.364L231.052 339.112Z" fill="#BFBFBF"/>
<path fill-rule="evenodd" clip-rule="evenodd" d="M239.094 295.455L223.113 301.272L238.709 344.124L247.539 340.911L241.765 325.047L248.778 322.494L262.666 335.404L272.114 331.966L271.964 331.554L256.289 317.346C257.29 316.37 258.137 315.333 258.829 314.237C259.841 312.624 260.434 310.864 260.606 308.957C260.791 307.023 260.466 304.908 259.63 302.613C258.609 299.807 257.111 297.675 255.136 296.216C253.161 294.757 250.807 293.969 248.076 293.852C245.365 293.728 242.37 294.262 239.094 295.455ZM239.258 318.16L246.469 315.535C248.019 314.971 249.204 314.229 250.025 313.308C250.845 312.387 251.332 311.344 251.485 310.177C251.657 309.003 251.508 307.769 251.037 306.474C250.537 305.1 249.85 304.006 248.975 303.191C248.101 302.376 247.047 301.893 245.815 301.742C244.582 301.59 243.181 301.8 241.611 302.372L234.459 304.975L239.258 318.16Z" fill="#BFBFBF"/>
<path d="M281.639 287.803L294.719 323.739L285.918 326.942L272.839 291.006L259.86 295.73L257.342 288.814L292.307 276.088L294.824 283.004L281.639 287.803Z" fill="#BFBFBF"/>
<path d="M322.324 313.691L306.727 270.839L297.927 274.042L313.524 316.894L322.324 313.691Z" fill="#BFBFBF"/>
<path d="M326.346 271.531L330.491 282.921L347.561 276.708L350.068 283.595L332.998 289.808L339.425 307.467L330.595 310.681L314.999 267.829L342.958 257.652L345.476 264.569L326.346 271.531Z" fill="#BFBFBF"/>
<path d="M373.065 295.223L357.468 252.371L348.668 255.574L364.265 298.426L373.065 295.223Z" fill="#BFBFBF"/>
<path d="M407.584 274.86L410.09 281.747L381.335 292.213L365.738 249.361L394.462 238.906L396.981 245.822L377.085 253.064L380.92 263.6L397.871 257.43L400.314 264.14L383.362 270.31L387.657 282.112L407.584 274.86Z" fill="#BFBFBF"/>
<path fill-rule="evenodd" clip-rule="evenodd" d="M428.397 275.084C431.299 274.027 433.773 272.582 435.817 270.75C437.874 268.89 439.439 266.754 440.516 264.34C441.605 261.899 442.165 259.252 442.193 256.397C442.238 253.536 441.711 250.585 440.603 247.543L439.863 245.513C438.748 242.452 437.257 239.85 435.39 237.709C433.535 235.54 431.405 233.871 429.001 232.701C426.597 231.532 424.026 230.902 421.281 230.811C418.55 230.694 415.754 231.157 412.887 232.2L399.643 237.02L415.239 279.873L428.397 275.084ZM421.564 269.772L425.89 268.197C428.204 267.355 429.968 266.124 431.18 264.506C432.382 262.868 433.018 260.892 433.089 258.578C433.176 256.257 432.7 253.664 431.655 250.8L430.897 248.71C430.097 246.513 429.155 244.666 428.078 243.169C427.021 241.666 425.832 240.509 424.518 239.7C423.2 238.89 421.779 238.44 420.259 238.35C418.729 238.239 417.113 238.495 415.403 239.116L410.991 240.723L421.564 269.772Z" fill="#BFBFBF"/>
<path fill-rule="evenodd" clip-rule="evenodd" d="M237.664 131.73C162.776 158.987 117.441 231.496 121.298 307.138L99.2877 315.149C91.1767 318.102 86.9946 327.07 89.9468 335.181L114.892 403.717C117.844 411.829 126.812 416.01 134.923 413.057L156.934 405.048C202.601 465.471 283.938 491.875 358.825 464.619C433.712 437.363 479.049 364.853 475.19 289.211L497.185 281.205C505.297 278.253 509.478 269.285 506.524 261.174L481.582 192.638C478.628 184.527 469.659 180.345 461.55 183.297L439.555 191.302C393.887 130.878 312.551 104.473 237.664 131.73ZM429.28 195.042C385.959 139.982 310.649 116.254 241.227 141.521C171.806 166.788 129.367 233.373 131.574 303.398L136.738 301.519C135.34 234.313 176.324 170.688 243.009 146.417C309.693 122.145 381.987 144.541 424.116 196.922L429.28 195.042ZM355.262 454.826C285.84 480.097 210.53 456.366 167.21 401.307L172.373 399.427C214.502 451.809 286.795 474.202 353.48 449.932C420.163 425.661 461.148 362.036 459.75 294.83L464.915 292.951C467.123 362.975 424.681 429.559 355.262 454.826ZM351.698 445.037C287.753 468.312 218.479 447.245 177.557 397.54L214.638 384.044C246.558 415.078 294.586 427.017 339.225 410.768C383.865 394.523 412.983 354.505 417.486 310.213L454.567 296.717C455.168 361.096 415.644 421.763 351.698 445.037ZM337.444 405.874C295.591 421.107 250.625 410.437 220.106 382.054L225.64 380.04C254.715 405.781 296.608 415.194 335.662 400.979C374.716 386.764 400.758 352.624 406.485 314.218L412.019 312.204C406.883 353.564 379.296 390.64 337.444 405.874ZM333.88 396.081C297.64 409.274 258.833 401.101 231.252 377.997L400.874 316.26C394.594 351.687 370.12 382.892 333.88 396.081ZM179.002 286.136L141.921 299.632C141.321 235.253 180.846 174.586 244.791 151.312C308.736 128.038 378.01 149.105 418.932 198.808L381.851 212.305C349.931 181.271 301.903 169.332 257.263 185.58C212.624 201.827 183.506 241.844 179.002 286.136ZM259.045 190.475C300.898 175.242 345.864 185.912 376.382 214.295L370.849 216.309C341.774 190.57 299.881 181.156 260.827 195.37C221.773 209.585 195.732 243.725 190.004 282.131L184.471 284.145C189.604 242.785 217.192 205.708 259.045 190.475ZM262.609 200.266C298.848 187.076 337.656 195.249 365.236 218.352L195.617 280.089C201.894 244.662 226.369 213.456 262.609 200.266ZM465.111 193.088L102.851 324.94C100.148 325.924 98.7536 328.914 99.7376 331.618L124.683 400.153C125.667 402.856 128.656 404.251 131.36 403.267L493.621 271.415C496.324 270.431 497.718 267.441 496.735 264.738L471.789 196.202C470.806 193.498 467.817 192.104 465.111 193.088Z" fill="#BFBFBF"/>
</svg>
