<svg width="601" height="601" viewBox="0 0 601 601" fill="none" xmlns="http://www.w3.org/2000/svg">
<path d="M102.559 353C98.8413 353 93.9992 352.789 89.6135 351.116C82.8312 348.534 77.7118 342.98 75.9184 336.257C74.6468 331.515 74.6957 327.016 76.0652 322.891L79.8965 311.28C81.1519 307.496 82.7334 303.745 84.2496 300.123C84.8691 298.678 85.4887 297.184 86.0919 295.706L102.102 256.34C105.004 249.195 112.015 249.195 117.118 249.195H254.9C280.252 249.195 305.604 249.195 330.956 249.195C366.041 249.195 401.127 249.195 436.212 249.211C454.228 249.211 472.243 249.227 490.259 249.227H490.291C491.954 249.227 493.634 249.179 495.411 249.114C497.204 249.049 499.046 249 500.872 249C504.671 249 509.627 249.227 514.078 251.062C520.372 253.645 525.214 259.052 527.072 265.548C529.371 273.62 526.991 281.269 524.35 287.7C521.252 295.284 518.219 302.705 515.154 310.273C512.269 317.402 509.334 324.596 506.579 331.336C505.731 333.398 504.899 335.461 504.052 337.523C503.416 339.066 502.796 340.609 502.16 342.152C502.046 342.428 501.948 342.688 501.834 342.964C500.563 346.114 499.258 349.362 495.884 351.295C493.568 352.626 491.058 352.805 488.694 352.805C488.09 352.805 487.471 352.789 486.884 352.773C486.313 352.756 485.726 352.74 485.156 352.74H471.281C459.217 352.74 447.152 352.74 435.104 352.74H422.892C349.901 352.756 276.91 352.756 203.918 352.773C189.979 352.773 176.023 352.789 162.083 352.789C145.796 352.805 128.97 352.805 112.406 352.805C110.857 352.805 109.292 352.854 107.645 352.903C105.95 352.951 104.254 353 102.559 353ZM254.883 250.803H117.101C110.857 250.803 105.901 251.257 103.602 256.941L87.6081 296.307C87.0049 297.785 86.3691 299.295 85.7658 300.74C84.2496 304.329 82.6844 308.048 81.4454 311.767L77.614 323.379C76.3423 327.211 76.3097 331.385 77.4836 335.818C79.1466 342.038 83.8909 347.186 90.1841 349.59C94.3252 351.165 98.9718 351.376 102.559 351.376C104.222 351.376 105.917 351.327 107.564 351.279C109.162 351.23 110.808 351.181 112.373 351.181C128.938 351.181 145.763 351.165 162.05 351.165C175.99 351.165 189.946 351.149 203.886 351.149C276.877 351.132 349.868 351.116 422.86 351.116H435.071C447.136 351.116 459.2 351.116 471.249 351.116H485.123C485.71 351.116 486.313 351.132 486.9 351.149C487.487 351.165 488.09 351.181 488.677 351.181C490.813 351.181 493.063 351.019 495.052 349.882C497.938 348.225 499.079 345.384 500.302 342.363C500.416 342.087 500.514 341.811 500.628 341.551C501.264 340.008 501.883 338.465 502.519 336.923C503.367 334.86 504.198 332.798 505.046 330.735C507.801 323.996 510.736 316.801 513.622 309.672C516.687 302.104 519.719 294.683 522.817 287.099C525.344 280.928 527.643 273.603 525.475 266.003C523.763 259.994 519.263 254.976 513.426 252.573C509.22 250.851 504.492 250.624 500.84 250.624C499.03 250.624 497.204 250.689 495.427 250.738C493.715 250.803 491.938 250.851 490.259 250.851H490.226C472.211 250.851 454.195 250.835 436.18 250.835C401.094 250.819 366.009 250.819 330.923 250.819C305.588 250.803 280.235 250.803 254.883 250.803ZM520.241 261.537C516.361 256.081 510.769 253.693 504.312 253.693C373.72 253.645 243.145 253.661 112.553 253.661C109.846 253.661 107.336 255.35 106.325 257.851C100.325 272.597 94.3415 287.342 88.3418 302.088C87.0864 305.174 85.831 308.243 84.592 311.329C83.6953 313.537 84.6735 314.983 87.0375 314.983C87.3636 314.983 87.6897 314.983 88.0157 314.983C104.45 314.983 120.9 314.983 137.334 314.983C138.557 314.983 139.698 314.706 140.693 313.943C142.519 312.53 142.551 310.176 140.774 308.73C139.763 307.902 138.573 307.61 137.285 307.61C130.324 307.61 123.378 307.723 116.417 307.577C110.678 307.463 106.292 304.784 103.537 299.717C101.874 296.664 101.531 293.319 101.874 289.876C102.771 280.765 110.498 276.397 116.661 276.38C128.237 276.348 139.812 276.364 151.388 276.364C152.089 276.364 152.806 276.397 153.491 276.51C154.567 276.689 155.284 277.533 155.268 278.605C155.268 279.125 155.154 279.693 154.975 280.181C154.062 282.552 153.1 284.906 152.17 287.261C151.975 287.765 151.714 287.976 151.16 287.959C149.774 287.911 148.388 287.943 147.002 287.943C139.062 287.927 131.139 287.927 123.199 287.911C121.96 287.911 120.835 288.219 119.873 289.015C118.194 290.412 118.194 292.669 119.857 294.082C120.835 294.91 121.976 295.219 123.248 295.219C130.226 295.202 137.22 295.137 144.198 295.235C148.877 295.3 152.806 297.2 155.725 300.87C158.806 304.735 159.458 309.217 158.708 313.976C157.583 321.154 151.355 326.464 144.051 326.448C122.971 326.448 101.874 326.448 80.7932 326.432H79.6031C79.6031 328.234 79.4889 329.939 79.6194 331.612C80.0106 336.257 81.8204 340.284 85.3582 343.418C89.2711 346.894 93.9992 348.339 99.1511 348.355C113.987 348.404 128.824 348.355 143.66 348.339C248.411 348.323 353.145 348.307 457.896 348.29C468.738 348.29 479.58 348.29 490.422 348.307C493.047 348.307 495.46 346.683 496.454 344.247C498.443 339.391 500.416 334.535 502.389 329.68C503.09 327.974 502.226 326.61 500.4 326.497C500.074 326.48 499.747 326.48 499.421 326.48C486.998 326.48 474.591 326.497 462.168 326.497C461.173 326.497 460.162 326.415 459.168 326.253C453.625 325.344 449.206 320.537 448.815 314.95C448.668 312.774 448.685 310.565 448.668 308.373C448.652 301.909 448.652 295.43 448.668 288.966C448.668 288.43 448.717 287.894 448.782 287.359C449.63 281.187 454.913 276.429 461.092 276.397C472.097 276.348 483.101 276.364 494.106 276.332C494.775 276.332 495.003 276.527 495.003 277.209C494.971 279.758 494.987 282.292 494.987 284.841C494.987 286.855 494.987 286.855 492.981 286.855C484.83 286.855 476.678 286.855 468.526 286.871C466.113 286.871 465.494 287.488 465.477 289.811C465.477 290.022 465.477 290.249 465.477 290.46V296.29H466.472H482.938C484.813 296.29 486.688 296.274 488.563 296.29C490.063 296.307 490.976 297.2 490.927 298.661C490.911 299.165 490.797 299.685 490.617 300.156C489.9 302.023 489.101 303.858 488.416 305.742C488.172 306.424 487.813 306.603 487.112 306.603C480.265 306.57 473.417 306.586 466.57 306.586H465.477C465.477 308.698 465.51 310.663 465.461 312.644C465.396 315.275 465.803 316.087 468.95 316.087C481.536 316.103 494.106 316.087 506.693 316.119C507.59 316.119 507.997 315.892 508.34 315.031C512.187 305.482 516.067 295.949 519.98 286.417C521.513 282.665 523.111 278.946 523.404 274.821C523.779 270.047 523.078 265.516 520.241 261.537ZM212.69 326.432C208.01 326.399 203.348 326.415 198.668 326.415V326.399C194.152 326.399 189.636 326.578 185.136 326.35C178.713 326.042 172.99 323.914 168.523 319.075C165.523 315.827 163.909 311.897 163.241 307.61C162.442 302.478 162.556 297.362 164.072 292.377C166.583 284.094 172.289 279.157 180.604 277.144C182.74 276.624 184.99 276.413 187.207 276.38C194.478 276.283 201.766 276.397 209.054 276.315C212.152 276.283 213.162 278.102 211.988 280.7C211.076 282.714 210.293 284.793 209.51 286.855C209.217 287.651 208.826 287.943 207.945 287.943C202.761 287.894 197.576 287.894 192.375 287.927C190.5 287.943 188.658 288.284 186.93 289.096C183.963 290.509 182.055 292.831 181.109 295.933C180.001 299.587 179.968 303.29 181.142 306.944C182.74 311.946 186.799 314.82 192.212 314.82C198.929 314.836 205.63 314.82 212.347 314.82C213.586 314.82 213.586 314.82 213.586 316.087C213.586 319.221 213.57 322.372 213.603 325.506C213.619 326.204 213.423 326.432 212.69 326.432ZM272.785 326.448C267.975 326.415 263.166 326.415 258.356 326.448C257.541 326.448 257.378 326.204 257.378 325.441C257.41 319.4 257.378 313.375 257.41 307.334C257.41 306.538 257.247 306.262 256.383 306.278C250.221 306.31 244.041 306.31 237.879 306.278C237.178 306.278 236.949 306.44 236.949 307.171C236.982 313.294 236.949 319.4 236.982 325.522C236.982 326.285 236.803 326.545 235.987 326.545C231.145 326.513 226.319 326.513 221.477 326.545C220.646 326.545 220.417 326.285 220.417 325.473C220.45 317.435 220.434 309.396 220.434 301.357C220.434 293.432 220.434 285.491 220.434 277.566C220.434 276.348 220.434 276.348 221.64 276.348C226.368 276.348 231.096 276.348 235.824 276.348C237.096 276.348 237.096 276.348 237.096 277.663C237.096 282.974 237.112 288.268 237.08 293.578C237.08 294.26 237.227 294.52 237.976 294.504C244.204 294.472 250.416 294.472 256.644 294.504C257.378 294.504 257.557 294.277 257.541 293.578C257.508 288.171 257.541 282.746 257.508 277.339C257.508 276.543 257.769 276.332 258.535 276.332C263.263 276.364 267.991 276.348 272.72 276.315C273.502 276.315 273.812 276.51 273.812 277.355C273.796 293.384 273.796 309.396 273.812 325.425C273.844 326.22 273.616 326.448 272.785 326.448ZM321.516 318.247C320.603 320.878 319.495 323.427 318.419 325.993C318.321 326.22 317.815 326.399 317.506 326.399C314.522 326.432 311.522 326.415 308.539 326.415C303.941 326.415 299.36 326.415 294.762 326.415C293.278 326.415 291.778 326.48 290.311 326.399C285.632 326.123 282.176 322.485 282.159 317.824C282.143 311.117 282.159 304.41 282.159 297.703C282.159 290.915 282.176 284.127 282.143 277.322C282.143 276.478 282.404 276.267 283.203 276.283C287.98 276.315 292.757 276.283 297.55 276.299C298.61 276.299 298.61 276.299 298.61 277.403C298.61 289.112 298.626 300.838 298.593 312.547C298.593 314.284 298.626 314.901 301.039 314.918C304.838 314.95 308.653 314.918 312.451 314.918C314.62 314.918 316.805 315.015 318.973 314.885C320.766 314.771 322.25 316.168 321.516 318.247ZM384.888 326.415C379.834 326.415 374.78 326.399 369.726 326.432C369.074 326.432 368.764 326.237 368.536 325.636C367.59 323.216 366.563 320.845 365.618 318.425C365.389 317.841 365.096 317.613 364.427 317.613C360.466 317.646 356.488 317.63 352.526 317.63C352.151 317.63 351.759 317.63 351.385 317.581C349.607 317.289 348.727 316.006 349.33 314.284C350.08 312.124 350.993 310.013 351.857 307.886C352.558 306.181 352.558 306.181 354.466 306.181C356.259 306.181 358.053 306.181 359.846 306.181C360.123 306.181 360.417 306.148 360.841 306.132C358.672 300.659 356.553 295.316 354.335 289.746C353.52 291.776 352.803 293.562 352.086 295.365C348.124 305.385 344.162 315.405 340.233 325.441C339.939 326.172 339.597 326.464 338.782 326.464C333.842 326.415 328.885 326.448 323.945 326.448H322.869C323.049 325.944 323.147 325.587 323.277 325.246C329.505 309.672 335.749 294.098 341.945 278.508C342.581 276.933 343.64 276.332 345.238 276.332C351.352 276.348 357.466 276.364 363.58 276.332C365.21 276.332 366.139 277.03 366.726 278.54C371.715 291.175 376.769 303.777 381.791 316.395C382.997 319.432 384.22 322.469 385.426 325.49C385.524 325.733 385.59 325.993 385.704 326.367C385.361 326.383 385.117 326.399 384.888 326.415ZM441.364 326.415H440.484C429.185 326.415 417.871 326.497 406.572 326.383C400.344 326.318 394.72 324.369 390.122 320.033C386.926 317.029 385.068 313.245 384.187 308.99C382.981 303.192 383.111 297.427 384.954 291.792C387.562 283.802 393.268 279.06 401.355 277.144C403.54 276.624 405.855 276.397 408.121 276.38C417.61 276.299 427.082 276.348 436.571 276.364C437.027 276.364 437.5 276.397 437.957 276.429C439.913 276.624 440.875 277.939 440.207 279.758C439.245 282.373 438.185 284.939 437.093 287.505C436.995 287.732 436.44 287.894 436.098 287.894C428.647 287.911 421.213 287.911 413.762 287.927C413.094 287.927 412.409 287.976 411.741 288.041C406.409 288.625 402.953 291.597 401.6 296.794C400.752 300.058 400.801 303.322 401.746 306.554C403.246 311.686 407.224 314.723 412.621 314.836C416.012 314.901 419.42 314.836 422.811 314.869C423.414 314.869 423.61 314.69 423.593 314.073C423.561 311.994 423.577 309.899 423.577 307.821C423.577 307.61 423.544 307.399 423.528 307.09C420.903 307.09 418.376 307.09 415.849 307.09C413.403 307.09 412.36 305.531 413.257 303.274C414.039 301.309 414.822 299.36 415.588 297.395C415.767 296.924 416.028 296.745 416.55 296.745C424.571 296.761 432.577 296.761 440.598 296.745C441.152 296.745 441.429 296.843 441.429 297.492C441.413 306.96 441.429 316.444 441.446 325.912C441.413 326.026 441.397 326.156 441.364 326.415Z" fill="#BFBFBF"/>
</svg>
