<svg width="595" height="595" viewBox="0 0 595 595" fill="none" xmlns="http://www.w3.org/2000/svg">
<path d="M101.757 236.922L99.7634 235.186C93.204 229.72 82.8505 228.305 73.2687 231.585C60.4071 236.022 52.1114 249.527 53.076 264.446C54.2979 283.16 67.7382 295.507 85.68 294.478C91.9822 294.156 95.712 292.677 99.3776 289.14L101.757 286.825V293.385H116.548V213H101.757V236.922ZM91.4677 244.832C102.529 248.755 106.323 264.896 98.5416 274.735C92.368 282.517 78.5419 282.581 72.1754 274.864C64.3299 265.346 68.124 248.884 79.1207 244.832C82.336 243.675 88.1237 243.675 91.4677 244.832Z" fill="#BFBFBF"/>
<path d="M149.666 230.813C125.551 235.958 116.419 267.34 133.911 285.025C146.579 297.822 168.83 297.95 181.627 285.346C194.36 272.806 194.36 251.97 181.691 239.43C176.675 234.543 172.174 232.035 165.743 230.685C160.148 229.527 155.518 229.527 149.666 230.813ZM163.685 244.768C169.087 246.376 173.717 251.006 175.132 256.215C179.183 271.456 167.094 284.06 152.367 279.944C148.444 278.851 143.557 274.478 141.499 270.362C139.441 266.118 139.441 258.337 141.563 254.157C145.936 245.604 154.425 242.003 163.685 244.768Z" fill="#BFBFBF"/>
<path d="M224.263 230.685C222.527 231.199 220.855 231.585 220.662 231.649C220.469 231.649 218.926 232.678 217.254 233.9L214.295 236.215V230.942L199.826 231.328V293.063L214.295 293.449V275.764C214.295 265.604 214.617 256.729 215.003 254.864C215.775 251.07 218.668 246.89 221.369 245.475C225.163 243.546 231.208 243.546 236.289 245.475C237.06 245.797 237.639 244.446 238.99 239.109C239.89 235.379 240.662 232.035 240.662 231.714C240.662 230.878 234.81 229.72 230.822 229.784C228.958 229.784 226.064 230.234 224.263 230.685Z" fill="#BFBFBF"/>
<path d="M275.388 230.17C271.272 230.878 268.828 231.842 265.806 233.9C264.005 235.122 262.398 236.151 262.269 236.151C262.076 236.151 262.012 235.058 262.076 233.707L262.205 231.328L247.735 230.942V293.385H262.462L262.848 253.192L264.713 250.427C271.015 241.102 285.806 242.131 289.15 252.035C289.986 254.478 290.178 258.401 290.178 274.221V293.449L305.291 293.063L305.612 273.128C305.998 250.942 305.998 250.942 310.564 247.147C315.001 243.482 322.975 242.967 327.606 245.99C328.763 246.761 330.435 248.819 331.335 250.62C332.943 253.835 332.943 253.964 333.136 273.578L333.329 293.385H348.055V271.841C348.055 251.713 347.991 249.977 346.705 246.311C343.618 237.115 337.445 231.971 327.541 230.234C318.538 228.691 308.635 231.392 303.426 236.73L300.918 239.302L297.638 236.344C291.85 231.135 283.426 228.755 275.388 230.17Z" fill="#BFBFBF"/>
<path d="M379.566 230.556C365.483 233.771 355.772 246.633 355.772 262.195C355.772 283.803 374.1 298.851 393.971 293.706C397.508 292.806 403.36 289.333 403.36 288.111C403.36 287.854 403.682 287.597 404.003 287.597C404.389 287.597 404.646 288.883 404.646 290.491V293.385H419.437V231.006H404.646V233.9C404.646 235.508 404.389 236.794 404.132 236.794C403.81 236.794 402.781 235.958 401.817 234.929C397.765 230.685 387.605 228.691 379.566 230.556ZM394.164 244.832C398.087 245.99 402.588 250.491 404.26 254.929C405.804 258.851 405.482 267.469 403.682 271.134C399.566 279.623 389.148 283.16 380.595 278.98C374.036 275.764 371.013 270.427 370.949 262.195C370.949 258.08 371.271 256.408 372.492 253.9C376.479 245.54 384.839 242.067 394.164 244.832Z" fill="#BFBFBF"/>
<path d="M151.917 302.066C151.917 302.259 151.917 320.265 151.917 342.065V381.808L166.065 382.193L166.193 369.461L166.386 356.728L168.958 356.535L171.595 356.342L180.534 367.724C185.486 374.026 190.116 379.814 190.823 380.65C192.109 382.129 192.302 382.193 201.241 382.001L210.437 381.808L197.575 365.731C190.502 356.856 184.714 349.525 184.714 349.332C184.714 349.139 190.373 342.644 197.254 334.863C204.135 327.082 209.794 320.522 209.794 320.265C209.794 319.944 205.807 319.751 200.855 319.751H191.916L182.013 331.133L172.11 342.58L166.065 342.966V301.745H158.991C155.132 301.745 151.917 301.873 151.917 302.066Z" fill="#BFBFBF"/>
<path d="M285.162 341.744L285.355 381.808L299.825 382.193V375.57L302.461 377.949C306.32 381.422 310.114 382.901 316.159 383.222C324.905 383.801 332.3 381.293 338.538 375.634C345.226 369.718 348.698 361.293 348.698 351.261C348.698 341.037 345.419 332.934 338.924 326.696C329.085 317.307 312.107 315.892 302.397 323.609L299.825 325.667V301.745H285.034L285.162 341.744ZM324.583 334.413C327.734 336.021 330.114 338.464 332.043 342.258C333.329 344.702 333.586 346.117 333.586 350.94C333.586 355.956 333.329 357.178 331.85 360.007C328.506 366.309 322.654 369.718 315.516 369.461C308.699 369.203 302.14 364.123 300.21 357.628C296.931 346.696 301.69 336.342 311.4 333.191C314.23 332.226 321.818 332.934 324.583 334.413Z" fill="#BFBFBF"/>
<path d="M231.851 319.429C211.209 323.931 201.627 350.04 213.524 369.589C215.967 373.576 221.176 378.206 225.421 380.264C230.63 382.708 235.453 383.608 241.305 383.287C247.028 382.965 251.53 381.165 255.002 377.756L257.382 375.441V382.129H272.172L272.044 351.069L271.851 320.072H257.703L257.382 323.159L257.06 326.31L255.452 324.574C250.501 319.236 241.626 317.307 231.851 319.429ZM248.764 334.413C261.626 340.972 260.983 362.194 247.8 368.174C243.877 369.911 238.025 369.846 233.845 368.046C227.028 365.023 223.684 359.493 223.684 350.94C223.62 346.438 223.877 345.281 225.549 341.937C227.607 337.821 230.694 334.992 234.617 333.513C238.154 332.226 245.356 332.677 248.764 334.413Z" fill="#BFBFBF"/>
<path d="M380.209 318.85C367.348 321.358 358.152 330.49 355.386 343.545C353.586 351.905 355.065 361.744 359.116 368.432C365.354 378.785 375.451 384.058 387.605 383.222C393.457 382.837 396.736 381.679 400.595 378.528C402.074 377.306 403.424 376.341 403.617 376.341C403.81 376.341 403.874 377.563 403.81 379.042L403.682 381.808L418.151 382.193V319.686L403.682 320.072L403.617 322.645C403.553 324.059 403.489 325.41 403.424 325.667C403.424 325.86 402.395 325.153 401.302 324.059C397.765 320.78 393.199 319.108 387.154 318.786C384.196 318.658 381.11 318.722 380.209 318.85ZM393.264 333.641C396.929 334.863 400.723 338.464 402.717 342.644C404.775 346.824 404.839 354.67 402.91 358.978C399.952 365.666 394.035 369.525 387.026 369.461C379.952 369.396 374.872 366.245 371.785 359.943C366.833 349.847 371.27 336.921 380.852 333.641C384.646 332.355 389.534 332.355 393.264 333.641Z" fill="#BFBFBF"/>
<path d="M440.658 345.217C440.658 359.621 440.916 369.911 441.237 369.525C448.375 361.808 467.603 338.786 467.218 338.4C466.96 338.143 460.851 333.963 453.713 329.14L440.658 320.329V345.217Z" fill="#BFBFBF"/>
<path d="M488.568 326.31C485.802 329.59 474.806 342.387 464.195 354.734C453.52 367.017 444.131 378.014 443.231 379.171C441.752 381.036 441.752 381.1 443.038 380.2C453.97 372.74 491.719 346.889 498.471 342.194L507.474 336.021L500.722 328.239C496.992 323.931 493.905 320.394 493.841 320.394C493.712 320.394 491.397 323.095 488.568 326.31Z" fill="#BFBFBF"/>
<path d="M512.04 342.323C494.87 354.027 475.385 367.403 468.761 371.969C462.073 376.534 456.221 380.457 455.706 380.65C455.192 380.843 454.806 381.165 454.806 381.422C454.806 381.615 474.613 381.872 498.857 382.001C534.869 382.193 542.972 382.065 543.229 381.357C543.422 380.907 543.486 367.146 543.422 350.747L543.229 320.973L512.04 342.323Z" fill="#BFBFBF"/>
</svg>
