<svg width="595" height="595" viewBox="0 0 595 595" fill="none" xmlns="http://www.w3.org/2000/svg">
<path d="M297.886 107.608C192.904 107.673 107.546 193.134 107.609 298.116C107.674 403.1 193.137 488.457 298.118 488.393C403.101 488.33 488.459 402.867 488.394 297.885C488.331 192.901 402.869 107.543 297.886 107.608ZM298.121 491.485C191.432 491.549 104.584 404.806 104.518 298.119C104.453 191.431 191.197 104.582 297.885 104.516C404.572 104.451 491.422 191.194 491.486 297.883C491.553 404.57 404.808 491.42 298.121 491.485Z" fill="#BFBFBF"/>
<path d="M297.915 154.653C218.873 154.701 154.607 219.045 154.655 298.087C154.703 377.129 219.047 441.396 298.089 441.348C377.132 441.299 441.398 376.954 441.349 297.912C441.302 218.87 376.957 154.605 297.915 154.653ZM298.093 445.469C216.777 445.52 150.582 379.404 150.533 298.09C150.483 216.777 216.598 150.581 297.912 150.531C379.227 150.481 445.422 216.596 445.472 297.91C445.521 379.224 379.407 445.42 298.093 445.469Z" fill="#BFBFBF"/>
<path d="M142.262 272.982C142.687 270.513 142.092 268.477 140.474 266.874C138.856 265.27 136.286 264.165 132.761 263.556C129.313 262.963 126.588 263.103 124.582 263.975C122.577 264.848 121.379 266.43 120.983 268.719L120.413 272.038L141.792 275.722L142.262 272.982ZM144.271 279.766L116.719 275.017L117.923 268.032C118.504 264.662 120.127 262.273 122.795 260.867C125.461 259.458 128.968 259.127 133.316 259.877C136.12 260.362 138.494 261.226 140.437 262.475C142.382 263.725 143.785 265.297 144.65 267.194C145.514 269.092 145.748 271.199 145.35 273.515L144.271 279.766Z" fill="#BFBFBF"/>
<path d="M149.922 253.087L123.521 243.885L128.084 230.797L131.041 231.827L127.651 241.553L135.972 244.451L139.142 235.357L142.101 236.387L138.93 245.482L148.139 248.691L151.758 238.301L154.537 239.85L149.922 253.087Z" fill="#BFBFBF"/>
<path d="M148.841 220.865C147.297 222.319 145.76 223.179 144.228 223.441C142.696 223.707 141.078 223.384 139.373 222.476C137.348 221.393 136.046 219.865 135.474 217.888C134.902 215.91 135.174 213.873 136.292 211.778C137.347 209.796 138.694 208.517 140.332 207.94C141.97 207.367 143.958 207.464 146.299 208.236L145.32 211.488C143.581 211.034 142.224 210.94 141.254 211.208C140.284 211.473 139.509 212.148 138.932 213.232C138.282 214.451 138.127 215.56 138.469 216.557C138.811 217.553 139.65 218.405 140.986 219.118C142.092 219.707 143.081 219.932 143.954 219.791C144.829 219.652 145.739 219.138 146.685 218.252L149.072 216.018C150.702 214.52 152.297 213.664 153.859 213.448C155.426 213.232 157.175 213.639 159.109 214.671C161.183 215.776 162.509 217.325 163.088 219.321C163.666 221.314 163.39 223.373 162.26 225.492C159.78 230.144 155.958 231.346 150.797 229.098L152.491 225.918C154.237 226.642 155.675 226.854 156.81 226.558C157.945 226.259 158.881 225.42 159.619 224.038C160.271 222.816 160.396 221.679 159.998 220.623C159.599 219.569 158.72 218.678 157.361 217.954C156.139 217.302 155.025 217.048 154.018 217.19C153.01 217.335 151.99 217.901 150.96 218.889L148.841 220.865Z" fill="#BFBFBF"/>
<path d="M170.662 210.339L147.831 194.201L149.888 191.291L172.719 207.429L170.662 210.339Z" fill="#BFBFBF"/>
<path d="M180.481 180.892L177.041 184.589L174.748 182.454L180.536 176.233L189.336 184.424C189.23 186.11 188.892 187.612 188.321 188.936C187.751 190.258 186.922 191.502 185.838 192.669C183.56 195.115 180.942 196.118 177.979 195.679C175.017 195.241 171.77 193.378 168.234 190.086C164.718 186.817 162.614 183.71 161.928 180.77C161.24 177.831 162.008 175.165 164.229 172.777C167.377 169.393 171.248 169.143 175.839 172.027L173.897 174.976C172.235 174.004 170.809 173.514 169.618 173.51C168.426 173.508 167.367 174.003 166.442 174.998C165.003 176.543 164.628 178.309 165.317 180.287C166.008 182.267 167.816 184.617 170.74 187.337C173.664 190.057 176.165 191.664 178.241 192.152C180.318 192.64 182.129 192.052 183.677 190.389C184.957 189.014 185.708 187.539 185.928 185.961L180.481 180.892Z" fill="#BFBFBF"/>
<path d="M208.8 171.665L187.592 159.996L200.89 177.63L198.293 179.585L181.461 157.263L184.431 155.023L205.639 166.691L192.34 149.06L194.935 147.101L211.769 169.425L208.8 171.665Z" fill="#BFBFBF"/>
<path d="M220.858 163.876L207.898 139.101L220.18 132.676L221.634 135.454L212.507 140.225L216.591 148.034L225.126 143.569L226.578 146.345L218.043 150.807L222.562 159.447L232.312 154.347L233.279 157.378L220.858 163.876Z" fill="#BFBFBF"/>
<path d="M246.886 148.754C249.268 147.972 250.788 146.491 251.446 144.309C252.103 142.13 251.874 139.34 250.759 135.943C249.668 132.62 248.265 130.277 246.557 128.916C244.845 127.554 242.885 127.234 240.68 127.959L237.479 129.009L244.247 149.62L246.886 148.754ZM241.837 153.708L233.116 127.144L239.849 124.934C243.098 123.868 245.969 124.182 248.464 125.877C250.957 127.572 252.892 130.515 254.268 134.707C255.157 137.412 255.505 139.913 255.31 142.216C255.119 144.517 254.387 146.497 253.12 148.15C251.847 149.803 250.096 150.996 247.864 151.73L241.837 153.708Z" fill="#BFBFBF"/>
<path d="M267.213 150.349L266.745 141.911L270.247 141.253L269.869 149.85L267.213 150.349Z" fill="#BFBFBF"/>
<path d="M293.395 143.341L293.831 115.388L307.691 115.603L307.642 118.736L297.345 118.575L297.208 127.385L306.84 127.534L306.79 130.668L297.159 130.516L297.005 140.266L308.01 140.436L307.411 143.561L293.395 143.341Z" fill="#BFBFBF"/>
<path d="M329.621 146.595L323.691 123.128L319.861 144.879L316.662 144.314L321.507 116.778L325.171 117.424L331.101 140.892L334.929 119.142L338.13 119.703L333.285 147.239L329.621 146.595Z" fill="#BFBFBF"/>
<path d="M360.522 144.28L355.782 142.538L356.86 139.596L364.839 142.527L360.693 153.812C359.099 154.365 357.582 154.637 356.141 154.622C354.7 154.606 353.233 154.326 351.738 153.777C348.601 152.624 346.661 150.598 345.919 147.699C345.177 144.797 345.636 141.081 347.304 136.547C348.959 132.039 351.008 128.897 353.454 127.124C355.898 125.353 358.651 125.029 361.716 126.153C366.051 127.747 367.78 131.217 366.899 136.567L363.426 135.918C363.682 134.011 363.581 132.506 363.123 131.406C362.664 130.307 361.797 129.523 360.524 129.055C358.538 128.325 356.768 128.662 355.21 130.064C353.651 131.468 352.183 134.043 350.808 137.791C349.431 141.541 348.92 144.469 349.273 146.573C349.627 148.679 350.869 150.12 353.001 150.904C354.767 151.552 356.417 151.671 357.958 151.263L360.522 144.28Z" fill="#BFBFBF"/>
<path d="M368.735 160.516L381.832 135.813L384.982 137.483L371.883 162.185L368.735 160.516Z" fill="#BFBFBF"/>
<path d="M391.991 175.188L396.845 151.474L383.949 169.405L381.312 167.505L397.637 144.81L400.656 146.981L395.802 170.695L408.698 152.765L411.339 154.664L395.011 177.361L391.991 175.188Z" fill="#BFBFBF"/>
<path d="M402.969 184.365L422.763 164.619L432.552 174.434L430.336 176.646L423.061 169.355L416.824 175.576L423.627 182.399L421.408 184.608L414.606 177.789L407.703 184.676L415.474 192.466L412.869 194.29L402.969 184.365Z" fill="#BFBFBF"/>
<path d="M418.894 201.466L441.423 184.908L449.632 196.079L447.109 197.932L441.01 189.635L433.91 194.852L439.614 202.615L437.089 204.47L431.386 196.708L423.53 202.481L430.044 211.347L427.194 212.761L418.894 201.466Z" fill="#BFBFBF"/>
<path d="M447.893 219.318C448.814 221.105 449.859 222.217 451.027 222.657C452.195 223.097 453.589 222.899 455.215 222.06C456.721 221.281 457.617 220.284 457.898 219.066C458.178 217.847 457.865 216.358 456.956 214.594L455.807 212.367L446.725 217.055L447.893 219.318ZM437.989 232.144L446.289 222.527C445.967 222.132 445.622 221.577 445.252 220.859L444.01 218.458L433.677 223.793L432.079 220.696L456.921 207.87L459.815 213.472C461.166 216.091 461.596 218.404 461.103 220.407C460.609 222.41 459.226 223.999 456.954 225.174C455.491 225.927 454.047 226.284 452.615 226.244C451.184 226.206 449.873 225.772 448.683 224.947L439.713 235.485L437.989 232.144Z" fill="#BFBFBF"/>
<path d="M442.854 243.566L469.407 234.813L473.748 247.977L470.77 248.959L467.547 239.178L459.181 241.936L462.196 251.084L459.221 252.066L456.203 242.916L446.945 245.97L450.389 256.42L447.242 256.879L442.854 243.566Z" fill="#BFBFBF"/>
<path d="M453.533 271.692C453.917 274.169 455.131 275.91 457.176 276.913C459.22 277.917 462.01 278.146 465.544 277.599C469.002 277.06 471.54 276.06 473.162 274.593C474.785 273.126 475.416 271.246 475.06 268.95L474.545 265.622L453.107 268.945L453.533 271.692ZM449.466 265.904L477.095 261.62L478.179 268.623C478.703 272.003 477.927 274.788 475.849 276.97C473.77 279.155 470.551 280.586 466.191 281.261C463.379 281.697 460.854 281.634 458.613 281.07C456.372 280.506 454.541 279.462 453.114 277.939C451.691 276.418 450.797 274.496 450.438 272.174L449.466 265.904Z" fill="#BFBFBF"/>
<path d="M297.884 108.122C193.185 108.187 108.058 193.417 108.123 298.115C108.186 402.815 193.416 487.941 298.116 487.878C402.816 487.813 487.941 402.583 487.877 297.883C487.814 193.184 402.583 108.058 297.884 108.122ZM298.119 491.999C191.147 492.064 104.066 405.089 104 298.118C103.936 191.147 190.91 104.066 297.882 104C404.853 103.935 491.933 190.91 492 297.882C492.064 404.852 405.09 491.934 298.119 491.999Z" fill="#BFBFBF"/>
<path d="M457.949 351.63C457.741 351.63 457.529 351.598 457.318 351.531C456.235 351.183 455.637 350.025 455.984 348.94C461.255 332.482 463.922 315.35 463.912 298.024C463.912 297.495 463.893 296.967 463.875 296.441C463.859 296.035 463.845 295.631 463.838 295.225C463.818 294.087 464.723 293.149 465.863 293.128C467.023 293.089 467.939 294.015 467.96 295.153L467.993 296.294C468.013 296.868 468.033 297.445 468.033 298.021C468.045 315.777 465.312 333.331 459.91 350.197C459.631 351.072 458.82 351.63 457.949 351.63Z" fill="#BFBFBF"/>
<path d="M138.892 351.825C138.021 351.825 137.21 351.269 136.929 350.396C131.507 333.534 128.753 315.984 128.742 298.228C128.742 297.652 128.762 297.075 128.78 296.501L128.813 295.36C128.832 294.221 129.719 293.311 130.906 293.332C132.046 293.353 132.952 294.29 132.935 295.427C132.926 295.832 132.912 296.237 132.898 296.644C132.881 297.17 132.863 297.697 132.863 298.227C132.874 315.553 135.561 332.681 140.852 349.134C141.202 350.218 140.605 351.377 139.523 351.725C139.312 351.793 139.099 351.825 138.892 351.825Z" fill="#BFBFBF"/>
<path d="M156.041 382.893C156.7 383.99 157.502 384.657 158.453 384.895C159.401 385.131 160.447 384.907 161.588 384.219C162.708 383.55 163.355 382.751 163.527 381.823C163.701 380.896 163.405 379.793 162.64 378.518L161.207 376.136L154.427 380.209L156.041 382.893ZM145.285 389.628C146.885 392.292 148.995 392.836 151.611 391.264C152.888 390.497 153.654 389.58 153.91 388.511C154.168 387.445 153.914 386.274 153.148 384.997L151.372 382.045L143.554 386.743L145.285 389.628ZM138.197 384.979L162.166 370.583L166.017 376.991C167.333 379.185 167.831 381.23 167.512 383.128C167.193 385.027 166.106 386.533 164.25 387.646C163.113 388.332 161.914 388.64 160.657 388.573C159.401 388.505 158.168 388.072 156.959 387.277C157.335 388.816 157.223 390.291 156.624 391.703C156.022 393.115 155.04 394.23 153.671 395.051C151.542 396.33 149.458 396.678 147.415 396.093C145.369 395.51 143.663 394.075 142.291 391.793L138.197 384.979Z" fill="#BFBFBF"/>
<path d="M183.967 401.286L186.867 404.68L173.052 416.482C170.47 418.687 167.992 419.784 165.613 419.773C163.236 419.761 161.106 418.655 159.222 416.449C157.341 414.247 156.58 411.97 156.94 409.62C157.301 407.268 158.772 404.99 161.352 402.787L175.165 390.984L178.065 394.378L164.013 406.384C160.857 409.08 160.263 411.578 162.23 413.882C164.196 416.183 166.757 415.987 169.914 413.292L183.967 401.286Z" fill="#BFBFBF"/>
<path d="M175.134 431.939L193.787 411.113L197.11 414.09L178.459 434.918L175.134 431.939Z" fill="#BFBFBF"/>
<path d="M188.816 443.44L204.852 420.537L208.509 423.096L194.742 442.76L203.115 448.622L200.365 451.524L188.816 443.44Z" fill="#BFBFBF"/>
<path d="M212.92 458.654L223.911 437.314L218.061 434.302L219.873 430.787L235.538 438.854L233.73 442.371L227.88 439.359L216.888 460.699L212.92 458.654Z" fill="#BFBFBF"/>
<path d="M246.068 472.234L253.711 445.34L258.004 446.56L250.362 473.453L246.068 472.234Z" fill="#BFBFBF"/>
<path d="M276.869 478.587L270.503 457.209L267.68 477.295L263.724 476.739L267.615 449.053L271.995 449.669L278.365 471.047L281.185 450.959L285.14 451.517L281.251 479.202L276.869 478.587Z" fill="#BFBFBF"/>
<path d="M314.553 455.36L312.676 468.312L319.101 467.642L314.553 455.36ZM322.953 478.146L320.43 471.323L312.097 472.191L311.036 479.389L306.675 479.844L311.717 451.209L316.702 450.687L327.51 477.671L322.953 478.146Z" fill="#BFBFBF"/>
<path d="M357.718 469.877L351.838 450.343L351.981 471.604L348.831 472.554L337.311 454.797L343.171 474.257L339.421 475.386L331.36 448.615L336.535 447.057L348.781 466.27L348.384 443.49L353.481 441.955L361.543 468.726L357.718 469.877Z" fill="#BFBFBF"/>
<path d="M374.79 462.916L362.039 438.033L374.968 431.407L376.771 434.929L367.816 439.518L371.297 446.314L379.662 442.029L381.464 445.546L373.101 449.833L376.96 457.359L386.542 452.449L387.823 456.237L374.79 462.916Z" fill="#BFBFBF"/>
<path d="M395.367 433.442C396.841 432.364 397.697 431.28 397.934 430.186C398.171 429.092 397.813 427.892 396.858 426.583C395.95 425.341 394.928 424.671 393.796 424.579C392.659 424.486 391.376 424.96 389.942 426.008L388.013 427.416L393.437 434.85L395.367 433.442ZM409.086 441.947L398.888 435.477C398.609 435.715 398.377 435.909 398.194 436.056C398.012 436.206 397.836 436.341 397.669 436.463L395.675 437.918L402.255 446.933L398.744 449.495L382.263 426.912L388.021 422.709C390.359 421.001 392.608 420.251 394.761 420.455C396.914 420.66 398.753 421.809 400.277 423.895C401.216 425.183 401.768 426.539 401.938 427.968C402.108 429.394 401.892 430.781 401.288 432.127L412.881 439.178L409.086 441.947Z" fill="#BFBFBF"/>
<path d="M421.511 431.35L402.259 411.076L405.497 408.001L424.747 428.275L421.511 431.35Z" fill="#BFBFBF"/>
<path d="M438.222 398.336C440.668 400.585 442.074 402.905 442.438 405.298C442.803 407.691 442.116 409.963 440.375 412.113C438.339 414.63 435.837 415.764 432.869 415.511C429.9 415.259 426.547 413.623 422.813 410.603C419.119 407.614 416.827 404.648 415.94 401.695C415.052 398.745 415.635 396.002 417.689 393.464C419.279 391.495 421.144 390.435 423.281 390.283C425.418 390.131 427.91 390.89 430.761 392.554L428.441 396.421C426.505 395.324 424.928 394.746 423.703 394.68C422.482 394.614 421.469 395.079 420.664 396.073C418.432 398.833 420.097 402.464 425.658 406.961C431.22 411.459 435.14 412.296 437.424 409.474C439.178 407.304 438.501 404.758 435.39 401.838L438.222 398.336Z" fill="#BFBFBF"/>
<path d="M435.859 375.699L445.329 384.729L448.505 379.103L435.859 375.699ZM459.3 382.047L452.274 380.152L448.158 387.449L453.411 392.483L451.256 396.301L430.831 375.605L433.294 371.24L461.55 378.056L459.3 382.047Z" fill="#BFBFBF"/>
<path d="M411.217 262.921L410.005 269.516L409.616 271.645L409.607 271.691C409.607 271.691 409.099 274.784 406.544 274.786H406.038H390.699H390.609C390.609 274.786 387.218 274.793 388.169 270.816L388.294 270.29C388.571 268.968 388.721 268.307 388.87 267.591C390.098 261.811 387.518 259.198 383.643 259.142C379.93 259.09 375.642 260.92 374.301 267.368C372.965 273.816 365.626 311.407 365.626 311.407C365.626 311.407 363.629 318.524 370.299 318.524C375.859 318.524 379.182 315.156 380.307 310.071C380.87 307.526 381.229 305.915 381.533 304.555L381.574 304.368C381.574 304.368 381.991 302.196 384.96 302.202L385.03 302.203H401.126L401.145 302.202C401.145 302.202 403.239 302.188 402.695 304.704L402.682 304.762C402.342 306.512 401.803 309.192 400.99 312.958C397.212 330.532 380.974 334.536 372.522 334.536H362.513C347.834 334.536 340.948 324.085 343.172 314.293C346.877 297.957 353.838 262.254 353.838 262.254C353.838 262.254 357.284 244.173 379.195 244.238C388.363 244.266 392.138 244.238 393.541 244.238C393.541 244.238 414.693 244.763 411.217 262.921ZM412.682 235.941H363.054C350.352 236.296 348.104 248.662 348.104 248.662L332.196 330.736C329.086 342.816 341.421 343.142 341.421 343.142H391.366C402.808 342.909 405.363 331.378 405.363 331.378C405.363 331.378 420.184 257.122 421.906 247.393C423.886 236.201 412.682 235.941 412.682 235.941Z" fill="#BFBFBF"/>
<path d="M246.869 268.933L246.863 268.983C246.863 268.983 246.427 272.161 243.634 272.161L243.58 272.159H229.044L228.964 272.155C228.964 272.155 226.425 272.092 226.846 268.688L226.86 268.579C227.202 265.797 227.699 263.345 225.868 261.436C224.568 259.905 221.399 259.637 219.706 260.268C216.134 261.248 214.037 265.113 214.23 269.289C214.621 273.913 218.207 275.93 220.602 277.501C228.285 283.034 238.898 287.742 239.194 298.583C239.125 309.263 237.357 319.108 229.242 326.454C220.965 334.268 209.552 335.141 199.039 333.998C194.091 333.268 188.533 330.723 185.716 326.411C181.618 320.28 184.183 311.838 185.563 305.177L185.575 305.127C185.575 305.127 185.912 303.127 188.942 303.118H189.084H202.748L202.802 303.119C202.802 303.119 205.116 303.095 204.48 305.751L204.462 305.815C203.471 309.805 202.476 316.981 207.551 318.596C210.49 319.655 213.675 318.809 215.563 316.666C217.67 314.505 219.301 309.461 218.59 306.237C217.875 299.389 205.973 296.308 200.512 290.315C195.06 285.106 192.93 277.789 194.618 268.843C196.73 258.335 202.03 251.134 210.175 247.188C220.638 242.605 236.846 242.621 244.184 252.312C247.236 256.423 247.91 262.467 246.869 268.933ZM251.445 235.939H201.816C188.455 237.213 186.866 248.662 186.866 248.662L170.958 330.736C168.277 342.742 180.182 343.142 180.182 343.142H230.13C241.841 343.098 244.123 331.378 244.123 331.378C244.123 331.378 258.814 257.099 260.668 247.391C262.914 235.614 251.445 235.939 251.445 235.939Z" fill="#BFBFBF"/>
<path d="M328.352 266.936C328.352 266.936 322.717 296.529 318.746 315.816C314.771 335.097 289.606 334.77 284.313 334.77H262.884L262.322 334.759C262.322 334.759 259.778 334.763 260.531 331.101L260.563 330.96L277.248 246.894L277.266 246.808C277.607 244.986 279.031 244.475 279.763 244.447L279.793 244.446C282.89 244.378 289.298 244.392 302.19 244.321C333.405 244.151 328.352 266.936 328.352 266.936ZM331.934 235.94H282.307C269.825 236.202 267.357 248.662 267.357 248.662L251.453 330.738C248.842 342.91 260.674 343.142 260.674 343.142H310.618C322.502 342.973 324.614 331.378 324.614 331.378C324.614 331.378 339.264 257.091 341.157 247.392C343.359 236.107 331.934 235.94 331.934 235.94Z" fill="#BFBFBF"/>
<path d="M301.574 262.948H295.225L284.309 318.479C284.309 318.479 296.867 319.004 298.541 310.493C299.586 305.179 303.944 283.248 305.828 273.585C307.887 263.033 301.574 262.948 301.574 262.948Z" fill="#BFBFBF"/>
<path d="M237.448 360.42C237.375 359.683 237.061 359.11 236.507 358.702C235.952 358.294 235.2 358.09 234.25 358.09C233.605 358.09 233.059 358.182 232.615 358.364C232.17 358.541 231.829 358.788 231.592 359.104C231.36 359.421 231.245 359.78 231.245 360.182C231.232 360.517 231.302 360.81 231.455 361.059C231.613 361.309 231.829 361.525 232.103 361.708C232.377 361.885 232.694 362.04 233.053 362.174C233.413 362.302 233.796 362.411 234.204 362.503L235.885 362.905C236.702 363.087 237.451 363.331 238.133 363.636C238.815 363.94 239.406 364.315 239.905 364.759C240.404 365.204 240.791 365.728 241.065 366.33C241.345 366.933 241.489 367.625 241.495 368.404C241.489 369.549 241.196 370.542 240.618 371.382C240.045 372.217 239.217 372.865 238.133 373.328C237.055 373.785 235.754 374.013 234.232 374.013C232.721 374.013 231.406 373.782 230.285 373.319C229.171 372.856 228.3 372.171 227.673 371.264C227.051 370.35 226.726 369.22 226.695 367.874H230.523C230.565 368.502 230.745 369.025 231.062 369.446C231.385 369.86 231.814 370.173 232.35 370.387C232.892 370.594 233.504 370.697 234.186 370.697C234.856 370.697 235.438 370.6 235.931 370.405C236.43 370.21 236.817 369.939 237.091 369.592C237.365 369.245 237.502 368.846 237.502 368.395C237.502 367.975 237.378 367.622 237.128 367.335C236.884 367.049 236.525 366.806 236.05 366.605C235.581 366.404 235.005 366.221 234.323 366.056L232.286 365.545C230.709 365.161 229.463 364.561 228.55 363.745C227.636 362.929 227.182 361.83 227.188 360.447C227.182 359.314 227.484 358.325 228.093 357.478C228.708 356.632 229.551 355.971 230.623 355.496C231.695 355.021 232.913 354.783 234.278 354.783C235.666 354.783 236.878 355.021 237.913 355.496C238.955 355.971 239.765 356.632 240.344 357.478C240.922 358.325 241.221 359.305 241.239 360.42H237.448Z" fill="#BFBFBF"/>
<path d="M248.111 355.039V373.749H244.155V355.039H248.111Z" fill="#BFBFBF"/>
<path d="M267.015 355.039V373.749H263.598L255.458 361.973H255.321V373.749H251.366V355.039H254.837L262.913 366.806H263.077V355.039H267.015Z" fill="#BFBFBF"/>
<path d="M286.791 361.589H282.789C282.716 361.071 282.567 360.612 282.342 360.21C282.117 359.802 281.827 359.454 281.474 359.168C281.121 358.882 280.713 358.663 280.25 358.51C279.793 358.358 279.297 358.282 278.761 358.282C277.792 358.282 276.949 358.523 276.23 359.004C275.512 359.479 274.954 360.173 274.558 361.087C274.163 361.994 273.965 363.097 273.965 364.394C273.965 365.728 274.163 366.848 274.558 367.756C274.96 368.663 275.521 369.348 276.239 369.811C276.958 370.274 277.789 370.505 278.733 370.505C279.263 370.505 279.753 370.435 280.204 370.295C280.661 370.155 281.066 369.951 281.419 369.683C281.772 369.409 282.065 369.077 282.296 368.687C282.534 368.298 282.698 367.853 282.789 367.354L286.791 367.372C286.687 368.231 286.428 369.059 286.014 369.857C285.606 370.649 285.055 371.358 284.361 371.985C283.673 372.607 282.85 373.1 281.894 373.465C280.944 373.825 279.869 374.004 278.669 374.004C277.001 374.004 275.508 373.627 274.193 372.872C272.884 372.116 271.848 371.023 271.087 369.592C270.332 368.161 269.954 366.428 269.954 364.394C269.954 362.353 270.338 360.618 271.105 359.187C271.873 357.755 272.914 356.665 274.229 355.916C275.545 355.161 277.025 354.783 278.669 354.783C279.753 354.783 280.758 354.935 281.684 355.24C282.616 355.544 283.441 355.989 284.16 356.574C284.878 357.152 285.463 357.862 285.914 358.702C286.371 359.543 286.663 360.505 286.791 361.589Z" fill="#BFBFBF"/>
<path d="M289.627 373.749V355.039H302.234V358.3H293.583V362.758H301.586V366.02H293.583V370.487H302.271V373.749H289.627Z" fill="#BFBFBF"/>
<path d="M319.364 355.039V373.749H315.408V358.794H315.298L311.014 361.48V357.971L315.645 355.039H319.364Z" fill="#BFBFBF"/>
<path d="M330.58 354.783C331.542 354.783 332.468 354.945 333.357 355.267C334.252 355.59 335.05 356.105 335.75 356.811C336.457 357.518 337.014 358.456 337.422 359.625C337.836 360.788 338.046 362.216 338.053 363.91C338.053 365.499 337.873 366.918 337.514 368.167C337.16 369.409 336.652 370.466 335.988 371.337C335.324 372.208 334.523 372.872 333.585 373.328C332.647 373.779 331.6 374.004 330.443 374.004C329.194 374.004 328.092 373.764 327.136 373.283C326.179 372.795 325.409 372.135 324.824 371.3C324.246 370.46 323.896 369.516 323.774 368.468H327.675C327.827 369.15 328.147 369.68 328.634 370.058C329.121 370.429 329.724 370.615 330.443 370.615C331.661 370.615 332.586 370.085 333.22 369.025C333.853 367.96 334.173 366.501 334.179 364.65H334.051C333.771 365.198 333.393 365.67 332.918 366.066C332.443 366.455 331.898 366.757 331.283 366.97C330.674 367.183 330.025 367.29 329.337 367.29C328.235 367.29 327.251 367.031 326.387 366.513C325.522 365.996 324.84 365.283 324.34 364.375C323.841 363.468 323.591 362.433 323.591 361.269C323.585 360.015 323.874 358.897 324.459 357.917C325.044 356.936 325.86 356.169 326.907 355.615C327.961 355.054 329.185 354.777 330.58 354.783ZM330.607 357.889C329.992 357.889 329.444 358.035 328.963 358.328C328.488 358.62 328.11 359.013 327.83 359.506C327.556 360 327.422 360.551 327.428 361.16C327.428 361.775 327.562 362.329 327.83 362.822C328.104 363.31 328.475 363.699 328.944 363.992C329.419 364.278 329.962 364.421 330.571 364.421C331.027 364.421 331.451 364.336 331.84 364.165C332.23 363.995 332.568 363.76 332.854 363.462C333.147 363.157 333.375 362.807 333.54 362.411C333.704 362.015 333.786 361.595 333.786 361.151C333.78 360.56 333.64 360.018 333.366 359.525C333.092 359.031 332.714 358.635 332.233 358.337C331.752 358.038 331.21 357.889 330.607 357.889Z" fill="#BFBFBF"/>
<path d="M341.031 373.749L348.787 358.401V358.273H339.752V355.039H352.88V358.319L345.114 373.749H341.031Z" fill="#BFBFBF"/>
<path d="M355.59 373.749V370.898L362.25 364.732C362.817 364.184 363.292 363.69 363.675 363.252C364.065 362.813 364.361 362.384 364.562 361.964C364.763 361.537 364.863 361.078 364.863 360.584C364.863 360.036 364.738 359.564 364.488 359.168C364.239 358.766 363.898 358.459 363.465 358.246C363.033 358.026 362.543 357.917 361.995 357.917C361.422 357.917 360.923 358.032 360.496 358.264C360.07 358.495 359.741 358.827 359.51 359.26C359.278 359.692 359.162 360.207 359.162 360.803H355.408C355.408 359.579 355.685 358.517 356.239 357.615C356.793 356.714 357.57 356.016 358.569 355.523C359.567 355.03 360.719 354.783 362.022 354.783C363.362 354.783 364.528 355.021 365.521 355.496C366.52 355.965 367.296 356.616 367.85 357.451C368.405 358.285 368.682 359.241 368.682 360.319C368.682 361.026 368.542 361.723 368.261 362.411C367.987 363.1 367.497 363.864 366.791 364.704C366.084 365.539 365.088 366.541 363.803 367.71L361.072 370.387V370.515H368.928V373.749H355.59Z" fill="#BFBFBF"/>
</svg>
