<svg width="595" height="595" viewBox="0 0 595 595" fill="none" xmlns="http://www.w3.org/2000/svg">
<path d="M267.835 330.354C208.835 332.154 150.135 339.354 106.335 350.254C80.3354 356.654 63.2354 362.954 62.0354 366.454C61.4354 368.454 68.3354 367.754 92.1354 363.354C181.035 346.954 302.835 342.354 412.335 351.154C447.035 353.954 492.335 359.954 515.735 364.754C539.735 369.654 540.835 364.654 517.335 357.054C458.735 338.054 360.135 327.454 267.835 330.354Z" fill="#BFBFBF"/>
<path d="M143.935 195.154C130.135 199.054 122.635 208.454 118.235 227.154C115.635 238.054 115.635 273.354 118.135 284.554C122.935 305.654 132.835 315.554 150.335 316.454C154.735 316.654 160.235 316.354 162.535 315.754C168.635 314.054 174.835 308.954 178.035 302.754L180.835 297.454V314.654H190.835V253.654H151.835V264.654H178.135L177.635 274.854C176.935 287.654 174.435 294.954 168.835 300.054C159.635 308.354 144.735 307.354 137.035 298.054C131.135 290.854 128.935 279.654 128.835 256.454C128.835 219.254 135.835 205.354 154.835 205.354C167.435 205.354 175.035 212.154 176.535 224.754L177.135 229.654H190.135L189.535 224.354C189.135 221.454 188.135 216.854 187.135 214.154C184.835 207.354 176.135 198.654 169.335 196.254C162.335 193.754 150.635 193.254 143.935 195.154Z" fill="#BFBFBF"/>
<path d="M262.835 313.654H274.835V195.654H262.835V313.654Z" fill="#BFBFBF"/>
<path d="M286.835 313.654H298.835V195.654H286.835V313.654Z" fill="#BFBFBF"/>
<path d="M214.935 226.154C207.235 228.554 202.635 234.754 201.335 244.354L200.635 249.654H206.235C211.835 249.654 211.835 249.654 211.835 246.654C211.835 241.654 214.235 237.154 217.735 235.754C219.635 234.954 223.235 234.554 226.935 234.854C232.335 235.254 233.535 235.654 235.935 238.454C238.535 241.354 238.835 242.354 238.835 249.054C238.835 254.854 238.435 256.654 236.935 258.054C235.935 258.954 230.035 261.754 223.735 264.254C208.335 270.454 205.335 272.054 202.535 275.854C199.135 280.454 197.835 284.954 197.835 292.154C197.835 303.354 201.435 310.854 208.435 314.554C212.135 316.354 221.235 317.054 225.335 315.654C229.535 314.254 235.335 309.454 237.935 305.254L239.735 302.354L240.935 307.054C242.435 313.054 244.735 314.654 252.035 314.654H257.835V310.154C257.835 306.154 257.635 305.654 255.535 305.654C250.935 305.654 250.835 304.954 250.835 273.354C250.835 254.054 250.435 241.954 249.635 238.954C248.235 233.254 242.835 227.554 237.235 225.854C231.835 224.254 220.535 224.454 214.935 226.154ZM237.635 285.254C237.335 295.554 237.135 296.554 234.635 299.854C229.535 306.554 219.235 308.454 214.035 303.654C209.435 299.354 208.835 287.654 212.935 280.954C214.235 278.854 217.135 276.854 222.035 274.454C226.035 272.654 231.135 270.254 233.335 269.154L237.335 267.154L237.635 270.654C237.835 272.554 237.835 279.154 237.635 285.254Z" fill="#BFBFBF"/>
<path d="M324.135 226.754C312.035 232.754 306.135 249.754 307.135 275.654C308.135 300.754 314.735 312.854 329.135 315.854C345.535 319.354 359.235 308.854 360.635 292.054L361.135 285.654H349.835V289.654C349.835 301.354 340.535 309.054 330.435 305.654C323.335 303.354 320.435 296.754 319.235 280.854L318.535 271.654H361.835V265.854C361.835 247.954 357.435 233.554 350.535 228.854C343.335 224.054 331.435 223.154 324.135 226.754ZM342.235 236.754C346.335 239.954 348.035 244.354 348.735 253.354L349.435 261.654H334.135C325.735 261.654 318.835 261.354 318.835 260.854C318.835 260.454 319.335 256.854 319.835 252.954C320.935 244.354 323.735 238.254 327.635 236.254C331.735 233.954 339.035 234.254 342.235 236.754Z" fill="#BFBFBF"/>
<path d="M396.335 227.154C392.535 228.454 387.335 233.254 383.635 238.654C381.935 241.154 381.935 241.054 381.935 233.854L381.835 226.654H370.835V313.654H382.835V284.254C382.835 252.154 383.335 248.954 388.635 243.254C392.235 239.454 396.735 237.654 402.835 237.654H407.835V225.654H404.135C402.035 225.754 398.535 226.354 396.335 227.154Z" fill="#BFBFBF"/>
<path d="M415.835 229.354C416.335 230.954 422.135 250.454 428.835 272.954L440.835 313.654L437.235 325.254C435.235 331.654 433.935 337.154 434.435 337.654C434.935 338.054 438.135 338.754 441.535 339.154L447.735 339.854L448.735 335.954C449.235 333.854 450.835 327.654 452.235 322.154C453.635 316.654 460.635 292.954 467.635 269.354L480.535 226.654H468.135L465.935 234.854C461.935 249.854 446.435 296.654 445.735 295.954C445.435 295.454 441.135 279.754 436.335 260.854L427.535 226.654H414.935L415.835 229.354Z" fill="#BFBFBF"/>
<path d="M275.035 254.354L274.835 313.554L268.635 313.954L262.335 314.254L268.635 314.454C272.835 314.554 275.035 314.254 275.335 313.354C275.635 312.754 275.735 285.854 275.635 253.654L275.335 195.154L275.035 254.354Z" fill="#BFBFBF"/>
<path d="M299.035 254.354L298.835 313.554L292.635 313.954L286.335 314.254L292.635 314.454C296.835 314.554 299.035 314.254 299.335 313.354C299.635 312.754 299.735 285.854 299.635 253.654L299.335 195.154L299.035 254.354Z" fill="#BFBFBF"/>
<path d="M408.135 231.654C408.135 235.254 408.335 236.654 408.535 234.854C408.735 233.154 408.735 230.154 408.535 228.354C408.335 226.654 408.135 228.054 408.135 231.654Z" fill="#BFBFBF"/>
<path d="M370.335 314.154L383.335 314.354L377.135 313.954L370.835 313.554L370.535 270.354L370.335 227.154V314.154Z" fill="#BFBFBF"/>
<path d="M179.535 230.354C181.335 230.554 184.535 230.554 186.535 230.354C188.635 230.154 187.235 229.954 183.335 229.954C179.535 229.954 177.835 230.154 179.535 230.354Z" fill="#BFBFBF"/>
<path d="M203.635 250.354C205.435 250.554 208.135 250.554 209.635 250.354C211.135 250.154 209.635 249.954 206.335 249.954C203.035 249.954 201.835 250.154 203.635 250.354Z" fill="#BFBFBF"/>
<path d="M158.135 265.354C161.835 265.554 167.835 265.554 171.635 265.354C175.335 265.154 172.235 265.054 164.835 265.054C157.435 265.054 154.335 265.154 158.135 265.354Z" fill="#BFBFBF"/>
<path d="M319.135 277.154C319.135 280.454 319.335 281.654 319.535 279.854C319.735 278.054 319.735 275.354 319.535 273.854C319.335 272.354 319.135 273.854 319.135 277.154Z" fill="#BFBFBF"/>
<path d="M355.235 285.354C360.535 285.754 360.735 285.854 361.135 288.954C361.535 292.054 361.635 292.054 361.435 288.654L361.335 285.154L349.835 284.954L355.235 285.354Z" fill="#BFBFBF"/>
<path d="M210.135 292.154C210.135 294.354 210.335 295.154 210.535 293.854C210.735 292.654 210.735 290.854 210.535 289.854C210.235 288.954 210.035 289.954 210.135 292.154Z" fill="#BFBFBF"/>
<path d="M258.135 310.154C258.135 312.854 258.335 313.954 258.535 312.354C258.735 310.854 258.735 308.654 258.535 307.354C258.335 306.154 258.135 307.354 258.135 310.154Z" fill="#BFBFBF"/>
<path d="M183.135 315.354C184.635 315.554 187.035 315.554 188.635 315.354C190.135 315.154 188.835 314.954 185.835 314.954C182.835 314.954 181.535 315.154 183.135 315.354Z" fill="#BFBFBF"/>
<path d="M119.897 379.633L117.135 380.415C116.961 379.955 116.705 379.508 116.366 379.074C116.036 378.631 115.585 378.266 115.011 377.98C114.438 377.693 113.704 377.55 112.809 377.55C111.585 377.55 110.564 377.832 109.747 378.396C108.94 378.952 108.536 379.659 108.536 380.519C108.536 381.283 108.814 381.886 109.37 382.329C109.925 382.771 110.794 383.14 111.975 383.436L114.946 384.165C116.735 384.599 118.069 385.263 118.946 386.157C119.823 387.042 120.262 388.184 120.262 389.581C120.262 390.727 119.932 391.751 119.272 392.654C118.62 393.557 117.708 394.269 116.536 394.79C115.363 395.31 113.999 395.571 112.444 395.571C110.403 395.571 108.714 395.128 107.376 394.243C106.038 393.357 105.192 392.064 104.835 390.363L107.754 389.633C108.032 390.71 108.557 391.517 109.33 392.055C110.112 392.593 111.133 392.863 112.392 392.863C113.826 392.863 114.963 392.559 115.806 391.951C116.657 391.335 117.083 390.597 117.083 389.738C117.083 389.043 116.84 388.462 116.353 387.993C115.867 387.515 115.12 387.159 114.112 386.925L110.777 386.144C108.944 385.71 107.598 385.037 106.738 384.126C105.886 383.205 105.461 382.055 105.461 380.675C105.461 379.547 105.778 378.548 106.412 377.68C107.055 376.812 107.928 376.131 109.031 375.636C110.143 375.141 111.402 374.894 112.809 374.894C114.79 374.894 116.345 375.328 117.474 376.196C118.612 377.064 119.419 378.21 119.897 379.633Z" fill="#BFBFBF"/>
<path d="M124.891 402.654V375.154H127.861V378.331H128.226C128.452 377.984 128.765 377.541 129.164 377.003C129.572 376.456 130.154 375.97 130.91 375.545C131.674 375.111 132.708 374.894 134.011 374.894C135.696 374.894 137.182 375.315 138.467 376.157C139.753 376.999 140.756 378.192 141.477 379.738C142.198 381.283 142.558 383.106 142.558 385.206C142.558 387.324 142.198 389.16 141.477 390.714C140.756 392.259 139.757 393.457 138.48 394.308C137.203 395.15 135.731 395.571 134.063 395.571C132.778 395.571 131.748 395.358 130.975 394.933C130.202 394.499 129.607 394.008 129.19 393.462C128.773 392.906 128.452 392.446 128.226 392.081H127.966V402.654H124.891ZM127.913 385.154C127.913 386.665 128.135 387.997 128.578 389.152C129.021 390.297 129.668 391.196 130.519 391.847C131.37 392.489 132.413 392.811 133.646 392.811C134.932 392.811 136.005 392.472 136.864 391.795C137.733 391.109 138.385 390.189 138.819 389.034C139.262 387.871 139.483 386.578 139.483 385.154C139.483 383.748 139.266 382.481 138.832 381.352C138.406 380.215 137.759 379.317 136.891 378.657C136.031 377.988 134.949 377.654 133.646 377.654C132.395 377.654 131.344 377.971 130.493 378.605C129.642 379.23 128.999 380.106 128.565 381.235C128.131 382.355 127.913 383.661 127.913 385.154Z" fill="#BFBFBF"/>
<path d="M155.64 395.571C153.711 395.571 152.048 395.146 150.649 394.295C149.26 393.436 148.187 392.238 147.431 390.701C146.684 389.156 146.311 387.359 146.311 385.311C146.311 383.262 146.684 381.456 147.431 379.894C148.187 378.323 149.238 377.099 150.584 376.222C151.939 375.337 153.52 374.894 155.327 374.894C156.369 374.894 157.398 375.067 158.415 375.415C159.431 375.762 160.356 376.326 161.19 377.107C162.024 377.88 162.688 378.904 163.183 380.18C163.679 381.456 163.926 383.028 163.926 384.894V386.196H148.5V383.54H160.799C160.799 382.411 160.573 381.404 160.122 380.519C159.679 379.633 159.045 378.935 158.219 378.422C157.403 377.91 156.439 377.654 155.327 377.654C154.102 377.654 153.042 377.958 152.148 378.566C151.262 379.165 150.58 379.946 150.102 380.909C149.624 381.873 149.386 382.906 149.386 384.008V385.779C149.386 387.29 149.646 388.57 150.167 389.62C150.697 390.662 151.431 391.456 152.369 392.003C153.307 392.541 154.397 392.811 155.64 392.811C156.447 392.811 157.177 392.698 157.828 392.472C158.489 392.238 159.058 391.89 159.535 391.43C160.013 390.962 160.382 390.38 160.643 389.686L163.613 390.519C163.301 391.526 162.775 392.411 162.037 393.175C161.299 393.93 160.387 394.521 159.301 394.946C158.215 395.363 156.995 395.571 155.64 395.571Z" fill="#BFBFBF"/>
<path d="M176.734 395.571C174.858 395.571 173.242 395.128 171.887 394.243C170.532 393.357 169.49 392.138 168.76 390.584C168.03 389.03 167.666 387.255 167.666 385.258C167.666 383.227 168.039 381.435 168.786 379.881C169.542 378.318 170.593 377.099 171.939 376.222C173.294 375.337 174.875 374.894 176.682 374.894C178.089 374.894 179.357 375.154 180.486 375.675C181.615 376.196 182.541 376.925 183.261 377.863C183.982 378.8 184.43 379.894 184.603 381.144H181.529C181.294 380.232 180.773 379.425 179.965 378.722C179.166 378.01 178.089 377.654 176.734 377.654C175.535 377.654 174.484 377.967 173.581 378.592C172.686 379.208 171.987 380.08 171.483 381.209C170.988 382.329 170.74 383.644 170.74 385.154C170.74 386.699 170.984 388.045 171.47 389.191C171.965 390.337 172.66 391.226 173.555 391.86C174.458 392.494 175.518 392.811 176.734 392.811C177.533 392.811 178.258 392.672 178.91 392.394C179.561 392.116 180.113 391.717 180.564 391.196C181.016 390.675 181.338 390.05 181.529 389.321H184.603C184.43 390.501 184 391.565 183.314 392.511C182.636 393.449 181.737 394.195 180.617 394.751C179.505 395.297 178.21 395.571 176.734 395.571Z" fill="#BFBFBF"/>
<path d="M189.099 395.154V375.154H192.173V395.154H189.099ZM190.662 371.821C190.063 371.821 189.546 371.617 189.112 371.209C188.686 370.801 188.473 370.311 188.473 369.738C188.473 369.165 188.686 368.674 189.112 368.266C189.546 367.858 190.063 367.654 190.662 367.654C191.261 367.654 191.774 367.858 192.2 368.266C192.634 368.674 192.851 369.165 192.851 369.738C192.851 370.311 192.634 370.801 192.2 371.209C191.774 371.617 191.261 371.821 190.662 371.821Z" fill="#BFBFBF"/>
<path d="M203.695 395.623C202.426 395.623 201.275 395.384 200.242 394.907C199.208 394.421 198.387 393.722 197.779 392.811C197.171 391.89 196.867 390.779 196.867 389.477C196.867 388.331 197.093 387.403 197.545 386.691C197.996 385.97 198.6 385.406 199.356 384.998C200.111 384.59 200.945 384.286 201.857 384.087C202.778 383.878 203.703 383.713 204.633 383.592C205.849 383.436 206.835 383.318 207.59 383.24C208.355 383.153 208.911 383.01 209.258 382.811C209.614 382.611 209.792 382.264 209.792 381.769V381.665C209.792 380.38 209.44 379.382 208.737 378.67C208.042 377.958 206.987 377.602 205.571 377.602C204.103 377.602 202.952 377.923 202.118 378.566C201.284 379.208 200.698 379.894 200.359 380.623L197.441 379.581C197.962 378.366 198.657 377.42 199.525 376.743C200.402 376.057 201.358 375.58 202.392 375.311C203.434 375.033 204.459 374.894 205.466 374.894C206.109 374.894 206.848 374.972 207.681 375.128C208.524 375.276 209.336 375.584 210.118 376.053C210.908 376.521 211.564 377.229 212.085 378.175C212.607 379.121 212.867 380.389 212.867 381.977V395.154H209.792V392.446H209.636C209.427 392.88 209.08 393.344 208.594 393.839C208.107 394.334 207.46 394.755 206.652 395.102C205.844 395.449 204.858 395.623 203.695 395.623ZM204.164 392.863C205.38 392.863 206.405 392.624 207.238 392.146C208.081 391.669 208.715 391.053 209.141 390.297C209.575 389.542 209.792 388.748 209.792 387.915V385.102C209.662 385.258 209.375 385.402 208.932 385.532C208.498 385.653 207.994 385.762 207.421 385.857C206.856 385.944 206.305 386.022 205.766 386.092C205.236 386.153 204.806 386.205 204.476 386.248C203.677 386.352 202.93 386.521 202.235 386.756C201.549 386.982 200.993 387.324 200.568 387.784C200.151 388.236 199.942 388.852 199.942 389.633C199.942 390.701 200.337 391.508 201.128 392.055C201.927 392.593 202.939 392.863 204.164 392.863Z" fill="#BFBFBF"/>
<path d="M221.554 368.488V395.154H218.479V368.488H221.554Z" fill="#BFBFBF"/>
<path d="M235.89 375.154V377.758H225.518V375.154H235.89ZM228.541 370.363H231.616V389.425C231.616 390.293 231.742 390.944 231.994 391.378C232.255 391.804 232.585 392.09 232.984 392.238C233.392 392.376 233.822 392.446 234.274 392.446C234.613 392.446 234.891 392.429 235.108 392.394C235.325 392.35 235.499 392.316 235.629 392.29L236.255 395.05C236.046 395.128 235.755 395.206 235.382 395.284C235.008 395.371 234.535 395.415 233.961 395.415C233.093 395.415 232.242 395.228 231.408 394.855C230.582 394.482 229.896 393.913 229.349 393.149C228.81 392.385 228.541 391.422 228.541 390.258V370.363Z" fill="#BFBFBF"/>
<path d="M242.495 402.654C241.974 402.654 241.51 402.611 241.101 402.524C240.693 402.446 240.411 402.368 240.254 402.29L241.036 399.581C241.783 399.772 242.443 399.842 243.017 399.79C243.59 399.738 244.098 399.482 244.541 399.021C244.993 398.57 245.405 397.837 245.779 396.821L246.352 395.258L238.952 375.154H242.287L247.811 391.092H248.02L253.544 375.154H256.88L248.385 398.071C248.003 399.104 247.529 399.959 246.965 400.636C246.4 401.322 245.744 401.83 244.997 402.159C244.259 402.489 243.425 402.654 242.495 402.654Z" fill="#BFBFBF"/>
<path d="M274.332 383.123V395.154H271.257V368.488H274.332V378.279H274.593C275.062 377.246 275.766 376.426 276.704 375.818C277.65 375.202 278.91 374.894 280.482 374.894C281.846 374.894 283.04 375.167 284.065 375.714C285.09 376.252 285.885 377.081 286.45 378.201C287.023 379.312 287.309 380.727 287.309 382.446V395.154H284.235V382.654C284.235 381.066 283.822 379.837 282.997 378.969C282.18 378.093 281.047 377.654 279.596 377.654C278.589 377.654 277.685 377.867 276.886 378.292C276.096 378.718 275.47 379.338 275.01 380.154C274.558 380.97 274.332 381.96 274.332 383.123Z" fill="#BFBFBF"/>
<path d="M298.824 395.623C297.556 395.623 296.405 395.384 295.371 394.907C294.338 394.421 293.517 393.722 292.909 392.811C292.301 391.89 291.997 390.779 291.997 389.477C291.997 388.331 292.223 387.403 292.674 386.691C293.126 385.97 293.73 385.406 294.485 384.998C295.241 384.59 296.075 384.286 296.987 384.087C297.908 383.878 298.833 383.713 299.762 383.592C300.978 383.436 301.964 383.318 302.72 383.24C303.484 383.153 304.04 383.01 304.387 382.811C304.744 382.611 304.922 382.264 304.922 381.769V381.665C304.922 380.38 304.57 379.382 303.866 378.67C303.171 377.958 302.116 377.602 300.7 377.602C299.232 377.602 298.081 377.923 297.247 378.566C296.414 379.208 295.827 379.894 295.489 380.623L292.57 379.581C293.091 378.366 293.786 377.42 294.655 376.743C295.532 376.057 296.487 375.58 297.521 375.311C298.563 375.033 299.588 374.894 300.596 374.894C301.239 374.894 301.977 374.972 302.811 375.128C303.654 375.276 304.466 375.584 305.247 376.053C306.038 376.521 306.694 377.229 307.215 378.175C307.736 379.121 307.997 380.389 307.997 381.977V395.154H304.922V392.446H304.765C304.557 392.88 304.209 393.344 303.723 393.839C303.237 394.334 302.589 394.755 301.782 395.102C300.974 395.449 299.988 395.623 298.824 395.623ZM299.293 392.863C300.509 392.863 301.534 392.624 302.368 392.146C303.211 391.669 303.845 391.053 304.27 390.297C304.705 389.542 304.922 388.748 304.922 387.915V385.102C304.791 385.258 304.505 385.402 304.062 385.532C303.627 385.653 303.124 385.762 302.55 385.857C301.986 385.944 301.434 386.022 300.896 386.092C300.366 386.153 299.936 386.205 299.606 386.248C298.807 386.352 298.06 386.521 297.365 386.756C296.679 386.982 296.123 387.324 295.697 387.784C295.28 388.236 295.072 388.852 295.072 389.633C295.072 390.701 295.467 391.508 296.257 392.055C297.056 392.593 298.068 392.863 299.293 392.863Z" fill="#BFBFBF"/>
<path d="M313.609 395.154V375.154H316.58V378.175H316.788C317.153 377.186 317.813 376.383 318.768 375.766C319.724 375.15 320.801 374.842 322 374.842C322.226 374.842 322.508 374.846 322.847 374.855C323.185 374.863 323.442 374.876 323.615 374.894V378.019C323.511 377.993 323.272 377.954 322.899 377.902C322.534 377.841 322.147 377.811 321.739 377.811C320.766 377.811 319.898 378.014 319.133 378.422C318.378 378.822 317.778 379.377 317.335 380.089C316.901 380.792 316.684 381.595 316.684 382.498V395.154H313.609Z" fill="#BFBFBF"/>
<path d="M334.208 395.571C332.54 395.571 331.068 395.15 329.791 394.308C328.514 393.457 327.515 392.259 326.794 390.714C326.074 389.16 325.713 387.324 325.713 385.206C325.713 383.106 326.074 381.283 326.794 379.738C327.515 378.192 328.519 376.999 329.804 376.157C331.09 375.315 332.575 374.894 334.26 374.894C335.563 374.894 336.592 375.111 337.348 375.545C338.113 375.97 338.694 376.456 339.094 377.003C339.502 377.541 339.819 377.984 340.045 378.331H340.306V368.488H343.381V395.154H340.41V392.081H340.045C339.819 392.446 339.498 392.906 339.081 393.462C338.664 394.008 338.069 394.499 337.296 394.933C336.523 395.358 335.494 395.571 334.208 395.571ZM334.625 392.811C335.858 392.811 336.901 392.489 337.752 391.847C338.603 391.196 339.25 390.297 339.693 389.152C340.136 387.997 340.358 386.665 340.358 385.154C340.358 383.661 340.141 382.355 339.706 381.235C339.272 380.106 338.629 379.23 337.778 378.605C336.927 377.971 335.876 377.654 334.625 377.654C333.322 377.654 332.236 377.988 331.368 378.657C330.508 379.317 329.861 380.215 329.426 381.352C329.001 382.481 328.788 383.748 328.788 385.154C328.788 386.578 329.005 387.871 329.439 389.034C329.882 390.189 330.534 391.109 331.394 391.795C332.262 392.472 333.339 392.811 334.625 392.811Z" fill="#BFBFBF"/>
<path d="M353.973 395.154L347.876 375.154H351.107L355.433 390.467H355.641L359.915 375.154H363.198L367.42 390.415H367.628L371.954 375.154H375.185L369.087 395.154H366.064L361.687 379.79H361.374L356.996 395.154H353.973Z" fill="#BFBFBF"/>
<path d="M385.139 395.623C383.871 395.623 382.72 395.384 381.687 394.907C380.653 394.421 379.832 393.722 379.224 392.811C378.616 391.89 378.312 390.779 378.312 389.477C378.312 388.331 378.538 387.403 378.989 386.691C379.441 385.97 380.045 385.406 380.801 384.998C381.556 384.59 382.39 384.286 383.302 384.087C384.223 383.878 385.148 383.713 386.077 383.592C387.293 383.436 388.279 383.318 389.035 383.24C389.799 383.153 390.355 383.01 390.703 382.811C391.059 382.611 391.237 382.264 391.237 381.769V381.665C391.237 380.38 390.885 379.382 390.182 378.67C389.487 377.958 388.431 377.602 387.015 377.602C385.548 377.602 384.397 377.923 383.563 378.566C382.729 379.208 382.143 379.894 381.804 380.623L378.885 379.581C379.406 378.366 380.101 377.42 380.97 376.743C381.847 376.057 382.803 375.58 383.836 375.311C384.879 375.033 385.904 374.894 386.911 374.894C387.554 374.894 388.292 374.972 389.126 375.128C389.969 375.276 390.781 375.584 391.563 376.053C392.353 376.521 393.009 377.229 393.53 378.175C394.051 379.121 394.312 380.389 394.312 381.977V395.154H391.237V392.446H391.081C390.872 392.88 390.525 393.344 390.038 393.839C389.552 394.334 388.905 394.755 388.097 395.102C387.289 395.449 386.303 395.623 385.139 395.623ZM385.608 392.863C386.824 392.863 387.849 392.624 388.683 392.146C389.526 391.669 390.16 391.053 390.585 390.297C391.02 389.542 391.237 388.748 391.237 387.915V385.102C391.107 385.258 390.82 385.402 390.377 385.532C389.943 385.653 389.439 385.762 388.866 385.857C388.301 385.944 387.749 386.022 387.211 386.092C386.681 386.153 386.251 386.205 385.921 386.248C385.122 386.352 384.375 386.521 383.68 386.756C382.994 386.982 382.438 387.324 382.012 387.784C381.595 388.236 381.387 388.852 381.387 389.633C381.387 390.701 381.782 391.508 382.573 392.055C383.372 392.593 384.384 392.863 385.608 392.863Z" fill="#BFBFBF"/>
<path d="M399.924 395.154V375.154H402.895V378.175H403.103C403.468 377.186 404.128 376.383 405.084 375.766C406.039 375.15 407.116 374.842 408.315 374.842C408.541 374.842 408.823 374.846 409.162 374.855C409.501 374.863 409.757 374.876 409.931 374.894V378.019C409.826 377.993 409.587 377.954 409.214 377.902C408.849 377.841 408.463 377.811 408.054 377.811C407.082 377.811 406.213 378.014 405.449 378.422C404.693 378.822 404.094 379.377 403.651 380.089C403.216 380.792 402.999 381.595 402.999 382.498V395.154H399.924Z" fill="#BFBFBF"/>
<path d="M421.357 395.571C419.429 395.571 417.766 395.146 416.367 394.295C414.977 393.436 413.905 392.238 413.149 390.701C412.402 389.156 412.028 387.359 412.028 385.311C412.028 383.262 412.402 381.456 413.149 379.894C413.905 378.323 414.956 377.099 416.302 376.222C417.657 375.337 419.238 374.894 421.044 374.894C422.087 374.894 423.116 375.067 424.132 375.415C425.149 375.762 426.074 376.326 426.908 377.107C427.742 377.88 428.406 378.904 428.901 380.18C429.396 381.456 429.644 383.028 429.644 384.894V386.196H414.217V383.54H426.517C426.517 382.411 426.291 381.404 425.839 380.519C425.396 379.633 424.762 378.935 423.937 378.422C423.12 377.91 422.156 377.654 421.044 377.654C419.82 377.654 418.76 377.958 417.865 378.566C416.979 379.165 416.298 379.946 415.82 380.909C415.342 381.873 415.103 382.906 415.103 384.008V385.779C415.103 387.29 415.364 388.57 415.885 389.62C416.415 390.662 417.149 391.456 418.087 392.003C419.025 392.541 420.115 392.811 421.357 392.811C422.165 392.811 422.895 392.698 423.546 392.472C424.206 392.238 424.775 391.89 425.253 391.43C425.731 390.962 426.1 390.38 426.36 389.686L429.331 390.519C429.018 391.526 428.493 392.411 427.755 393.175C427.016 393.93 426.104 394.521 425.018 394.946C423.933 395.363 422.712 395.571 421.357 395.571Z" fill="#BFBFBF"/>
<path d="M447.715 368.488V395.154H444.64V368.488H447.715Z" fill="#BFBFBF"/>
<path d="M462.051 375.154V377.758H451.679V375.154H462.051ZM454.702 370.363H457.777V389.425C457.777 390.293 457.903 390.944 458.155 391.378C458.416 391.804 458.746 392.09 459.145 392.238C459.553 392.376 459.983 392.446 460.435 392.446C460.774 392.446 461.052 392.429 461.269 392.394C461.486 392.35 461.66 392.316 461.79 392.29L462.415 395.05C462.207 395.128 461.916 395.206 461.543 395.284C461.169 395.371 460.696 395.415 460.122 395.415C459.254 395.415 458.402 395.228 457.569 394.855C456.743 394.482 456.057 393.913 455.51 393.149C454.971 392.385 454.702 391.422 454.702 390.258V370.363Z" fill="#BFBFBF"/>
<path d="M474.018 395.571C472.35 395.571 470.878 395.15 469.601 394.308C468.324 393.457 467.325 392.259 466.604 390.714C465.883 389.16 465.523 387.324 465.523 385.206C465.523 383.106 465.883 381.283 466.604 379.738C467.325 378.192 468.329 376.999 469.614 376.157C470.9 375.315 472.385 374.894 474.07 374.894C475.373 374.894 476.402 375.111 477.158 375.545C477.922 375.97 478.504 376.456 478.904 377.003C479.312 377.541 479.629 377.984 479.855 378.331H480.116V368.488H483.191V395.154H480.22V392.081H479.855C479.629 392.446 479.308 392.906 478.891 393.462C478.474 394.008 477.879 394.499 477.106 394.933C476.333 395.358 475.304 395.571 474.018 395.571ZM474.435 392.811C475.668 392.811 476.711 392.489 477.562 391.847C478.413 391.196 479.06 390.297 479.503 389.152C479.946 387.997 480.168 386.665 480.168 385.154C480.168 383.661 479.951 382.355 479.516 381.235C479.082 380.106 478.439 379.23 477.588 378.605C476.737 377.971 475.686 377.654 474.435 377.654C473.132 377.654 472.046 377.988 471.178 378.657C470.318 379.317 469.671 380.215 469.236 381.352C468.811 382.481 468.598 383.748 468.598 385.154C468.598 386.578 468.815 387.871 469.249 389.034C469.692 390.189 470.344 391.109 471.204 391.795C472.072 392.472 473.149 392.811 474.435 392.811Z" fill="#BFBFBF"/>
<path d="M491.49 395.363C490.847 395.363 490.296 395.133 489.835 394.672C489.375 394.212 489.145 393.661 489.145 393.019C489.145 392.376 489.375 391.825 489.835 391.365C490.296 390.905 490.847 390.675 491.49 390.675C492.133 390.675 492.685 390.905 493.145 391.365C493.605 391.825 493.835 392.376 493.835 393.019C493.835 393.444 493.727 393.835 493.51 394.191C493.301 394.547 493.019 394.833 492.663 395.05C492.315 395.258 491.924 395.363 491.49 395.363Z" fill="#BFBFBF"/>
</svg>
