<svg width="595" height="595" viewBox="0 0 595 595" fill="none" xmlns="http://www.w3.org/2000/svg">
<path d="M320.59 254.54C319.416 254.824 317.673 255.18 316.748 255.393C314.898 255.785 313.973 256.141 309.491 258.311C304.261 260.872 301.7 264.323 299.886 271.296C299.103 274.284 298.961 275.565 298.925 280.474C298.925 285.597 298.996 286.522 299.85 289.546C301.273 294.669 301.807 295.665 304.617 298.511C305.72 299.649 306.929 300.574 307.285 300.574C307.677 300.574 307.961 300.717 307.961 300.859C307.961 301.037 308.637 301.464 309.491 301.82C310.309 302.175 311.625 302.744 312.408 303.1C314.436 304.025 318.776 305.484 321.658 306.266C323.045 306.622 324.753 307.191 325.464 307.476C326.211 307.796 327.03 308.045 327.314 308.045C327.634 308.045 328.737 308.437 329.805 308.935C330.872 309.433 331.903 309.824 332.117 309.824C332.722 309.824 334.643 311.638 335.248 312.812C335.639 313.559 335.852 314.84 335.852 316.797C335.852 319.216 335.71 319.821 335.034 320.781C334.002 322.24 332.579 322.987 330.801 322.987C328.737 322.987 327.421 322.169 326.425 320.248C325.713 318.789 325.535 317.935 325.464 314.52C325.358 311.176 325.215 310.464 324.717 310.18C324.361 310.002 318.812 309.824 312.373 309.788L300.668 309.717L300.384 315.907C300.241 319.323 300.17 324.801 300.206 328.11L300.312 334.122L302.447 335.474C307.285 338.533 313.404 340.846 319.879 342.055C324.859 342.98 336.92 343.016 341.758 342.091C346.098 341.273 347.628 340.846 349.478 340.028C350.296 339.672 351.043 339.352 351.185 339.352C351.292 339.352 352.288 338.711 353.427 337.929C361.894 332.165 364.419 326.295 364.099 312.848C363.957 307.014 363.85 306.195 362.961 303.598C361.609 299.649 360.542 297.871 358.087 295.558C355.383 292.997 348.873 289.724 344.675 288.799C343.964 288.657 341.189 287.803 338.556 286.949C335.923 286.06 333.077 285.17 332.259 284.957C331.334 284.708 330.018 283.889 328.88 282.822C326.994 281.115 326.994 281.079 327.03 279.016C327.065 276.525 327.848 274.818 329.306 274.071C331.512 272.932 334.927 273.786 335.923 275.743C336.244 276.312 336.635 278.269 336.813 280.047C336.991 281.862 337.24 283.605 337.346 283.961C337.524 284.53 338.307 284.565 348.802 284.53C354.992 284.494 360.435 284.352 360.897 284.174L361.68 283.854V273.466L361.645 263.042L360.15 262.082C359.297 261.548 358.229 260.979 357.731 260.801C357.233 260.588 356.628 260.196 356.379 259.876C356.13 259.556 355.775 259.307 355.597 259.307C355.419 259.307 354.458 258.915 353.427 258.489C350.083 256.994 345.564 255.465 342.292 254.718C339.481 254.077 337.987 253.97 330.907 254.006C325.286 254.042 322.049 254.184 320.59 254.54Z" fill="#BFBFBF"/>
<path d="M246.593 254.824C245.419 255.109 243.961 255.358 243.392 255.358C241.862 255.394 237.379 257.67 235.601 259.307C234.676 260.196 233.644 261.655 232.932 263.185C231.865 265.497 231.794 265.959 231.581 271.118C231.474 274.106 231.225 276.917 231.083 277.344C230.869 277.877 230.442 278.162 229.624 278.233L228.45 278.34V293.175L229.695 293.602L230.94 293.993L231.047 307.832C231.118 315.481 231.083 322.204 230.94 322.845C230.834 323.485 230.193 324.695 229.517 325.477L228.272 326.971V333.802C228.272 338.64 228.379 340.739 228.699 341.059C229.304 341.664 257.48 341.664 258.084 341.059C258.404 340.739 258.511 338.605 258.511 333.66C258.511 326.722 258.511 326.651 257.657 325.869C255.594 323.912 255.558 323.627 255.416 308.757C255.309 298.084 255.381 294.918 255.736 294.42C256.092 293.957 256.839 293.815 259.152 293.779C261.82 293.708 262.104 293.673 262.247 292.961C262.567 291.36 262.638 279.727 262.318 278.767L261.998 277.806H254.954V276.846C254.954 275.494 256.234 273.003 257.48 271.972C258.191 271.367 259.152 271.011 260.539 270.869C264.168 270.442 263.848 271.189 263.848 263.469C263.848 259.698 263.705 256.425 263.563 256.176C262.745 254.931 250.4 253.935 246.593 254.824Z" fill="#BFBFBF"/>
<path d="M60.8538 255.643C60.6048 255.82 60.3913 258.524 60.249 263.149L60.0356 270.406L61.6009 271.936C62.9172 273.252 63.1662 273.786 63.3797 275.387C63.4864 276.419 63.5575 287.411 63.4864 299.827L63.3797 322.347L61.672 323.841L60 325.299V341.13L60.925 341.344C61.423 341.486 71.9534 341.486 84.3336 341.379C105.715 341.202 106.924 341.166 109.628 340.454C112.616 339.636 115.854 338.356 115.854 337.893C115.854 337.751 116.245 337.537 116.743 337.431C117.205 337.324 118.7 336.114 120.016 334.798C125.708 329.177 126.526 324.41 126.526 296.661C126.491 279.656 126.277 274.64 125.352 271.047C123.538 264.181 118.913 259.058 112.367 256.674L109.272 255.571L85.2586 255.465C72.0601 255.429 61.0673 255.5 60.8538 255.643ZM97.0341 275.885C99.0619 277.272 99.1686 278.553 99.0619 299.329C98.9552 316.583 98.9196 317.153 98.2081 318.54C97.7812 319.323 96.9629 320.248 96.3581 320.603C94.9351 321.422 91.5199 321.813 91.1286 321.208C90.8439 320.71 90.8795 276.668 91.1641 275.885C91.3776 275.316 92.1958 275.067 94.2948 274.996C95.2909 274.96 96.1091 275.245 97.0341 275.885Z" fill="#BFBFBF"/>
<path d="M488.471 256.39C486.906 256.461 486.586 256.603 486.408 257.279C486.301 257.706 486.194 260.943 486.194 264.465C486.194 270.371 486.265 270.904 486.87 271.296C487.226 271.509 487.902 272.434 488.329 273.359C489.112 274.96 489.112 275.031 489.005 292.499C488.862 323.449 488.862 322.631 488.151 324.232C487.76 325.015 487.084 326.082 486.657 326.58C485.839 327.469 485.839 327.612 485.91 334.407L486.016 341.308L500.709 341.415L515.366 341.486L515.722 340.597C515.9 340.099 516.078 336.861 516.042 333.375V327.078L514.975 325.975C514.192 325.157 513.836 324.339 513.587 322.773C513.374 321.528 513.232 307.761 513.232 289.012C513.232 271.58 513.089 257.172 512.947 256.959C512.698 256.567 492.954 256.105 488.471 256.39Z" fill="#BFBFBF"/>
<path d="M522.232 257.919C521.379 258.346 520.703 258.809 520.703 258.987C520.703 259.165 520.454 259.307 520.169 259.307C519.884 259.307 519.457 259.663 519.244 260.089C518.995 260.552 518.71 260.979 518.568 261.086C517.109 262.117 516.54 268.877 517.714 271.153C518.781 273.217 519.956 274.462 521.734 275.423C523.228 276.241 523.869 276.383 526.573 276.383C529.205 276.383 529.881 276.241 531.162 275.494C532.976 274.426 534.257 273.075 535.253 271.225C536.356 269.126 536.32 264.536 535.146 262.224C534.221 260.374 532.798 258.987 530.77 257.884C528.849 256.852 524.331 256.888 522.232 257.919ZM529.668 259.912C530.593 260.339 531.802 261.335 532.62 262.295C533.901 263.896 533.972 264.11 534.008 266.564C534.008 268.841 533.901 269.339 533.012 270.691L532.016 272.221L531.304 271.011C530.877 270.335 530.272 269.375 529.881 268.805C529.134 267.738 529.276 267.133 530.308 267.133C531.98 267.133 532.727 263.398 531.411 261.762C530.806 261.014 530.415 260.943 526.608 260.801L522.481 260.623V272.825H524.616V270.157C524.616 267.596 524.651 267.489 525.434 267.489C526.11 267.489 526.608 268.058 527.853 270.157C529.134 272.327 529.561 272.825 530.272 272.825C531.126 272.825 531.126 272.825 530.45 273.359C530.095 273.644 528.956 274.035 527.96 274.284C524.545 275.067 521.094 273.181 519.6 269.73C518.782 267.809 518.746 266.351 519.457 264.252C520.525 261.157 523.869 258.809 526.786 259.093C527.498 259.165 528.778 259.556 529.668 259.912ZM528.885 262.971C530.984 264.038 529.347 265.71 526.217 265.71H524.616V262.509H526.324C527.248 262.509 528.387 262.722 528.885 262.971Z" fill="#BFBFBF"/>
<path d="M287.327 259.876C287.043 259.983 285.904 260.303 284.837 260.623C283.77 260.943 281.778 261.548 280.39 261.975C277.117 263.007 272.457 264.394 269.326 265.319C267.903 265.746 266.587 266.315 266.338 266.564C266.089 266.884 265.946 268.805 265.946 271.972C265.946 274.675 265.769 277.166 265.591 277.521C265.413 277.842 264.844 278.162 264.31 278.233L263.314 278.34L263.207 285.277C263.172 289.083 263.207 292.57 263.314 292.997C263.456 293.602 263.776 293.815 264.523 293.815C265.484 293.815 265.52 293.886 265.769 295.985C265.875 297.195 265.982 305.27 265.982 313.915C265.982 328.394 266.053 329.817 266.658 331.739C267.512 334.407 268.152 335.794 268.544 335.794C268.686 335.794 268.828 336.008 268.828 336.257C268.828 336.968 271.212 338.925 273.524 340.099C276.477 341.593 280.639 342.34 285.726 342.304C289.889 342.269 296.399 341.451 297.004 340.846C297.182 340.668 297.253 337.288 297.217 333.268L297.111 326.011L295.19 325.762C292.735 325.477 291.561 324.588 290.814 322.418C290.245 320.852 290.209 319.429 290.422 307.689C290.529 300.005 290.778 294.527 290.992 294.242C291.205 293.957 292.343 293.815 294.265 293.815H297.217L297.431 292.712C297.715 291.289 297.715 280.012 297.431 278.944C297.217 278.233 297.004 278.162 294.3 278.162C292.735 278.162 291.241 278.02 291.027 277.877C290.743 277.699 290.529 274.675 290.351 268.912C290.209 264.11 290.031 260.089 289.924 259.912C289.746 259.627 288.181 259.627 287.327 259.876Z" fill="#BFBFBF"/>
<path d="M195.187 276.597C191.025 276.917 185.155 277.913 182.735 278.731C181.241 279.194 179.854 279.585 179.64 279.585C178.182 279.585 171.138 283.605 170.391 284.886C169.893 285.704 169.715 299.365 170.213 300.076C170.533 300.61 183.056 301.001 188.072 300.646L191.807 300.397L191.985 297.906C192.234 294.882 193.159 293.424 195.222 292.748C198.317 291.716 200.523 293.673 200.523 297.515V299.685L196.503 300.859C194.333 301.535 191.736 302.353 190.74 302.744C189.779 303.1 188.321 303.563 187.538 303.705C186.755 303.883 185.261 304.381 184.23 304.808C183.198 305.199 182.131 305.555 181.846 305.555C181.206 305.555 176.367 307.689 174.268 308.899C173.272 309.468 171.067 311.532 169.999 312.883C168.221 315.125 166.904 321.528 167.189 326.367C167.367 329.817 168.825 334.407 170.177 335.865C172.205 338.035 173.521 339.103 175.3 340.063C181.846 343.478 194.013 342.66 199.705 338.462C200.452 337.893 200.488 337.893 200.701 339.245C200.843 339.992 200.986 340.81 201.057 341.024C201.164 341.379 204.045 341.486 213.828 341.486C225.96 341.486 226.493 341.451 226.849 340.81C227.062 340.383 227.205 337.466 227.205 333.766C227.205 327.256 227.169 327.149 225.604 324.908C224.928 323.947 224.892 323.129 224.679 308.579C224.394 291.111 224.216 289.582 221.868 286.06C221.121 284.957 219.947 283.534 219.307 282.929C218.133 281.826 214.718 279.585 214.255 279.585C214.113 279.585 213.295 279.265 212.441 278.873C209.275 277.415 200.096 276.205 195.187 276.597ZM200.167 319.572C200.167 322.169 200.096 322.382 199.207 323.129C198.673 323.521 197.357 324.161 196.29 324.552C194.44 325.193 194.297 325.193 193.195 324.588C190.704 323.236 190.882 319.999 193.586 318.255C194.404 317.722 195.4 317.295 195.756 317.259C196.147 317.259 197.144 316.975 198.033 316.619C199.136 316.192 199.705 316.121 199.883 316.37C200.025 316.583 200.167 318.006 200.167 319.572Z" fill="#BFBFBF"/>
<path d="M448.84 277.095C447.773 277.272 445.781 277.557 444.393 277.735C443.041 277.913 440.942 278.411 439.768 278.838C438.63 279.229 437.456 279.585 437.207 279.585C436.211 279.585 429.238 283.249 428.206 284.316L427.139 285.419V292.961C427.139 300.468 427.139 300.503 427.957 300.681C429.202 301.001 448.271 300.966 448.698 300.681C448.911 300.503 449.16 299.329 449.267 298.049C449.587 293.851 451.935 291.787 455.208 292.783C457.058 293.353 457.734 294.562 457.734 297.479V299.827L455.848 300.539C454.781 300.895 453.323 301.357 452.54 301.464C451.259 301.713 449.267 302.389 443.148 304.701C441.867 305.164 440.551 305.555 440.195 305.555C439.448 305.555 435.428 307.049 432.653 308.401C430.661 309.362 426.428 313.061 426.428 313.88C426.428 314.057 426.001 315.267 425.467 316.548C424.578 318.718 424.506 319.252 424.542 324.054C424.542 331.134 425.36 333.837 428.455 337.075C431.657 340.454 436.922 342.553 442.294 342.553C447.702 342.553 455.386 340.454 456.987 338.498C457.698 337.644 458.09 337.822 458.09 338.889C458.09 339.458 458.196 340.205 458.303 340.632C458.481 341.344 458.766 341.379 467.802 341.593C472.925 341.735 478.759 341.735 480.787 341.593L484.416 341.379V326.758L483.455 325.726L482.459 324.73L482.245 309.006C482.032 294.811 481.925 293.032 481.285 290.72C479.862 285.49 476.055 281.506 470.079 279.016C465.881 277.237 454.817 276.241 448.84 277.095ZM457.165 317.01C457.271 317.473 457.378 318.896 457.378 320.176C457.378 322.169 457.271 322.596 456.596 323.2C455.457 324.161 453.821 325.015 452.504 325.264C450.156 325.797 448.093 323.129 448.947 320.71C449.516 319.109 450.797 318.149 453.714 317.117C456.773 316.05 456.88 316.05 457.165 317.01Z" fill="#BFBFBF"/>
<path d="M160.252 277.628C158.437 278.126 157.121 278.944 155.698 280.474L154.809 281.435L154.453 279.869L154.062 278.34H129.194L129.088 285.455C129.016 291.681 129.088 292.712 129.621 293.708C129.977 294.349 130.368 294.882 130.511 294.882C130.653 294.882 130.973 295.558 131.222 296.376C131.578 297.515 131.685 301.286 131.685 310.713V323.556L130.368 325.157L129.016 326.794V333.766C129.016 337.608 129.123 340.81 129.301 340.917C129.764 341.202 153.528 341.557 156.267 341.308L158.9 341.059V326.011L157.868 325.406C156.161 324.446 155.876 322.809 155.947 314.307C155.983 310.215 156.196 306.053 156.41 305.057C157.121 301.677 160.003 299.649 164.77 299.223L167.26 298.973L167.509 297.373C167.651 296.483 167.687 291.752 167.545 286.842L167.331 277.877L166.477 277.486C165.375 276.988 162.386 277.059 160.252 277.628Z" fill="#BFBFBF"/>
<path d="M383.986 277.628C376.266 278.767 370.467 282.573 368.333 287.91C366.803 291.645 366.625 293.673 366.412 307.014C366.127 327.434 366.981 332.308 371.748 336.719C375.839 340.49 378.828 341.557 388.54 342.553C399.817 343.763 413.727 340.846 420.629 335.865L422.443 334.549L422.692 330.991C422.799 329.035 422.87 325.442 422.799 322.987L422.692 318.54L410.81 318.433C401.525 318.362 398.857 318.469 398.607 318.789C398.465 319.038 398.323 320.248 398.323 321.493C398.323 322.738 398.145 324.09 397.932 324.517C396.117 328.039 392.631 328.003 391.35 324.41C391.03 323.521 390.71 321.208 390.603 319.216L390.425 315.623L399.248 315.409C404.122 315.267 411.272 315.16 415.115 315.16C421.696 315.16 422.158 315.125 422.514 314.484C422.977 313.595 422.977 301.001 422.514 295.594C422.016 290.257 421.447 288.194 419.81 285.882C417.498 282.609 414.403 280.545 408.818 278.482C405.438 277.272 390.212 276.739 383.986 277.628ZM396.402 293.388C397.256 293.922 397.932 295.95 398.038 298.12C398.145 300.29 398.109 300.396 397.362 300.361C396.9 300.361 395.121 300.325 393.342 300.29C390.176 300.219 390.141 300.219 390.141 299.294C390.141 297.479 390.959 295.274 391.99 294.206C392.844 293.317 393.378 293.104 394.552 293.104C395.335 293.104 396.188 293.246 396.402 293.388Z" fill="#BFBFBF"/>
</svg>
