<svg width="595" height="595" viewBox="0 0 595 595" fill="none" xmlns="http://www.w3.org/2000/svg">
<path d="M243.632 165.395C232.584 167.404 222.261 172.928 214.504 180.796C208.98 186.432 205.688 191.565 202.507 199.321C200.778 203.618 198.713 212.825 198.713 216.396V218.684H253.118L252.951 191.621L252.839 164.558L250.161 164.614C248.71 164.614 245.808 165.004 243.632 165.395Z" fill="#BFBFBF"/>
<path d="M260.651 218.684H314.777V164.558H260.651V218.684Z" fill="#BFBFBF"/>
<path d="M322.589 218.684H376.882L376.548 214.332C375.934 206.631 373.2 197.982 369.405 191.565C361.035 177.559 348.034 168.464 332.075 165.451C329.564 164.949 326.383 164.558 325.044 164.558H322.589V218.684Z" fill="#BFBFBF"/>
<path d="M198.713 280.622H253.118L252.951 253.447L252.839 226.217H198.713V280.622Z" fill="#BFBFBF"/>
<path d="M322.589 280.622H376.715V226.217H322.589V280.622Z" fill="#BFBFBF"/>
<path d="M198.936 292.34C200.666 313.879 215.286 332.628 235.82 339.658C239.949 341.053 247.705 342.56 250.83 342.56H253.118L252.951 315.385L252.839 288.155H198.546L198.936 292.34Z" fill="#BFBFBF"/>
<path d="M322.812 292.619C323.984 308.02 332.577 323.197 345.244 332.293C352.721 337.65 363.379 341.556 372.697 342.393L376.715 342.727V288.155H322.422L322.812 292.619Z" fill="#BFBFBF"/>
<path d="M260.651 342.56H262.771C268.24 342.56 278.786 339.882 284.366 337.092C301.441 328.554 312.991 311.703 314.554 293.01L314.944 288.434H260.651V342.56Z" fill="#BFBFBF"/>
<path d="M309.476 375.817C304.342 377.044 302.947 377.547 300.157 378.997C291.508 383.461 286.152 394.956 287.156 406.73C288.607 422.689 298.26 431.282 314.777 431.282C320.357 431.282 324.542 430.724 330.01 429.217L333.191 428.325V401.15H313.661V410.078H322.031V421.238L320.524 421.629C318.013 422.354 310.759 422.019 308.583 421.126C301.72 418.225 298.316 410.134 299.711 400.09C301.218 389.153 307.411 384.298 318.627 385.135C321.082 385.303 324.598 385.972 326.439 386.642C328.281 387.256 329.955 387.758 330.122 387.758C330.289 387.758 330.345 385.582 330.289 382.903L330.122 378.049L326.774 376.989C323.538 375.984 312.099 375.203 309.476 375.817Z" fill="#BFBFBF"/>
<path d="M392.897 376.486C380.788 379.667 373.869 390.715 374.65 405.614C375.264 417.388 380.788 426.037 389.94 429.664C392.674 430.724 394.236 430.947 399.872 431.003C407.796 431.003 410.753 430.166 415.663 426.595C421.913 421.963 425.261 414.988 425.707 405.447C426.154 395.514 424.033 388.651 418.788 382.792C413.208 376.598 402.495 373.975 392.897 376.486ZM405.508 386.028C408.521 387.367 411.534 391.05 412.65 394.677C413.934 398.695 413.934 408.348 412.65 412.031C411.423 415.658 409.525 418.448 407.07 420.122C404.169 422.075 397.975 422.41 394.738 420.792C389.214 417.946 387.038 413.035 387.038 403.382C387.038 393.784 389.437 388.483 394.794 386.028C397.752 384.689 402.55 384.689 405.508 386.028Z" fill="#BFBFBF"/>
<path d="M100.226 402.657C94.7576 417.332 90.182 429.664 90.0146 430.054C89.8472 430.612 91.0748 430.724 95.762 430.612L101.788 430.445L105.36 419.843L116.185 419.676L127.066 419.564L128.851 425.144L130.693 430.724H143.359L140.011 421.684C138.17 416.662 133.818 404.777 130.358 395.291C126.898 385.749 123.885 377.547 123.662 376.989C123.327 376.152 122.434 376.04 116.743 376.04H110.214L100.226 402.657ZM120.258 398.583C122.267 404.833 123.941 410.134 123.941 410.301C123.941 410.692 109.21 410.748 108.819 410.357C108.652 410.245 110.27 405.056 112.335 398.806C114.399 392.557 116.129 387.423 116.129 387.312C116.185 386.251 117.245 389.097 120.258 398.583Z" fill="#BFBFBF"/>
<path d="M154.073 430.724H185.879V421.238H165.791V376.04H154.073V430.724Z" fill="#BFBFBF"/>
<path d="M198.713 430.724H230.575L230.24 421.517L220.642 421.405C215.341 421.35 210.766 421.126 210.431 420.959C210.04 420.736 209.873 413.147 209.873 398.472L209.929 376.319L198.713 375.984V430.724Z" fill="#BFBFBF"/>
<path d="M243.353 376.152C243.353 376.263 243.297 388.539 243.186 403.549L243.074 430.724H276.275V421.238H254.513V406.73H272.927V397.802H254.513V385.526H276.275V376.04H259.814C250.774 376.04 243.353 376.096 243.353 376.152Z" fill="#BFBFBF"/>
<path d="M349.373 430.724H360.533V376.04H349.373V430.724Z" fill="#BFBFBF"/>
<path d="M439.769 430.724H449.813V412.198C449.813 396.407 449.925 393.784 450.594 394.454C451.32 395.235 455.226 401.373 467.892 421.629L473.528 430.724H486.083V376.04H475.425L475.593 394.733C475.704 405 475.593 413.426 475.425 413.426C475.258 413.426 472.077 408.571 468.339 402.657C464.6 396.798 459.355 388.428 456.621 384.131L451.654 376.319L439.769 375.984V430.724Z" fill="#BFBFBF"/>
<path d="M494.007 376.431C495.402 376.654 495.513 376.877 495.736 379.834L495.904 383.015L496.015 379.834C496.127 377.044 496.294 376.654 497.41 376.431C498.08 376.319 497.243 376.207 495.569 376.207C493.895 376.207 493.17 376.319 494.007 376.431Z" fill="#BFBFBF"/>
<path d="M499.587 379.5C499.642 382.68 499.698 382.792 499.866 380.337C499.977 378.886 500.312 377.826 500.647 377.993C501.261 378.384 501.261 378.16 500.814 376.933C500.089 374.98 499.475 376.207 499.587 379.5Z" fill="#BFBFBF"/>
<path d="M504.497 377.212C504.106 377.826 503.995 378.495 504.162 378.718C504.33 378.886 504.553 378.663 504.609 378.216C504.609 377.77 504.832 378.663 505.055 380.225L505.446 383.015L505.501 379.5C505.557 377.602 505.501 376.04 505.334 376.04C505.222 376.04 504.832 376.542 504.497 377.212Z" fill="#BFBFBF"/>
<path d="M501.205 379.388C501.205 380.169 502.767 383.406 502.823 382.68C502.823 382.457 502.432 381.453 501.986 380.448C501.54 379.388 501.205 378.942 501.205 379.388Z" fill="#BFBFBF"/>
<path d="M287.602 164.391L314.777 164.558V218.684L287.602 218.851L260.372 218.963H315.056V164.279H260.372L287.602 164.391Z" fill="#BFBFBF"/>
<path d="M322.31 164.67C322.143 165.06 322.087 177.336 322.143 191.9L322.31 218.405L322.589 191.175C322.756 176.22 322.812 164 322.701 164C322.645 164 322.422 164.335 322.31 164.67Z" fill="#BFBFBF"/>
<path d="M212.272 219.075C219.861 219.186 232.249 219.186 239.893 219.075C247.482 219.019 241.233 218.963 226.055 218.963C210.877 218.963 204.628 219.019 212.272 219.075Z" fill="#BFBFBF"/>
<path d="M335.869 219.075C343.291 219.186 355.455 219.186 362.932 219.075C370.354 219.019 364.272 218.963 349.373 218.963C334.474 218.963 328.392 219.019 335.869 219.075Z" fill="#BFBFBF"/>
<path d="M253.118 250.211C253.118 263.715 253.174 269.183 253.23 262.32C253.341 255.456 253.341 244.408 253.23 237.768C253.174 231.127 253.118 236.707 253.118 250.211Z" fill="#BFBFBF"/>
<path d="M322.31 253.001C322.31 268.011 322.366 274.093 322.422 266.505C322.533 258.86 322.533 246.584 322.422 239.163C322.366 231.741 322.31 237.935 322.31 253.001Z" fill="#BFBFBF"/>
<path d="M376.827 253.392L376.715 280.622L349.54 280.789L322.31 280.901L349.54 281.068C370.912 281.124 376.827 281.013 376.994 280.455C377.161 280.12 377.217 267.732 377.161 253.001L376.994 226.217L376.827 253.392Z" fill="#BFBFBF"/>
<path d="M212.551 281.013C219.973 281.124 232.137 281.124 239.614 281.013C247.036 280.957 240.954 280.901 226.055 280.901C211.156 280.901 205.074 280.957 212.551 281.013Z" fill="#BFBFBF"/>
<path d="M253.118 314.939C253.118 329.949 253.174 336.031 253.23 328.443C253.341 320.798 253.341 308.522 253.23 301.101C253.174 293.679 253.118 299.873 253.118 314.939Z" fill="#BFBFBF"/>
<path d="M270.137 288.267C295.191 288.657 315.223 288.657 314.944 288.267C314.833 288.043 302.501 287.932 287.547 287.988C272.592 288.043 264.78 288.211 270.137 288.267Z" fill="#BFBFBF"/>
<path d="M376.715 315.609C376.548 330.73 376.603 342.895 376.882 342.616C377.106 342.393 377.217 330.061 377.161 315.162L376.994 288.155L376.715 315.609Z" fill="#BFBFBF"/>
<path d="M153.794 431.003H185.879L169.976 430.891L154.073 430.724L153.906 403.382L153.794 376.04V431.003Z" fill="#BFBFBF"/>
<path d="M505.78 379.388C505.78 381.397 505.892 382.178 506.004 381.174C506.115 380.225 506.115 378.551 506.004 377.547C505.892 376.598 505.78 377.379 505.78 379.388Z" fill="#BFBFBF"/>
<path d="M259.981 385.917C262.771 386.028 267.459 386.028 270.304 385.917C273.094 385.861 270.807 385.749 265.115 385.749C259.423 385.749 257.136 385.861 259.981 385.917Z" fill="#BFBFBF"/>
<path d="M450.036 412.31C450.036 422.298 450.148 426.372 450.204 421.35C450.315 416.383 450.315 408.237 450.204 403.215C450.148 398.248 450.036 402.322 450.036 412.31Z" fill="#BFBFBF"/>
<path d="M272.927 406.73L264.055 406.73C259.144 406.73 255.015 406.897 254.904 407.121C254.736 407.4 258.754 407.511 263.776 407.4C270.695 407.288 273.039 407.065 273.262 406.507C273.429 406.116 273.429 403.94 273.318 401.652L273.15 397.523L272.927 406.73Z" fill="#BFBFBF"/>
<path d="M386.871 405.056C386.871 406.116 386.982 406.563 387.15 406.005C387.261 405.502 387.261 404.61 387.15 404.052C386.982 403.549 386.871 403.996 386.871 405.056Z" fill="#BFBFBF"/>
<path d="M321.696 415.379C321.696 418.448 321.752 419.62 321.864 418.002C321.975 416.383 321.975 413.872 321.864 412.422C321.752 410.971 321.696 412.31 321.696 415.379Z" fill="#BFBFBF"/>
<path d="M260.26 421.071C263.218 421.182 268.128 421.182 271.141 421.071C274.099 421.015 271.644 420.903 265.673 420.903C259.702 420.903 257.247 421.015 260.26 421.071Z" fill="#BFBFBF"/>
<path d="M206.134 431.115C210.654 431.226 218.02 431.226 222.595 431.115C227.115 431.059 223.377 430.947 214.337 430.947C205.297 430.947 201.559 431.059 206.134 431.115Z" fill="#BFBFBF"/>
<path d="M251.053 431.115C255.685 431.226 263.385 431.226 268.072 431.115C272.704 431.059 268.909 430.947 259.535 430.947C250.161 430.947 246.366 431.059 251.053 431.115Z" fill="#BFBFBF"/>
<path d="M398.644 431.673C399.481 431.784 400.821 431.784 401.713 431.673C402.55 431.561 401.825 431.449 400.151 431.449C398.477 431.449 397.752 431.561 398.644 431.673Z" fill="#BFBFBF"/>
</svg>
