<svg width="595" height="595" viewBox="0 0 595 595" fill="none" xmlns="http://www.w3.org/2000/svg">
<path d="M354.207 247.814C350.281 248.423 344.628 250.285 341.717 251.876C334.745 255.7 328.415 262.809 326.113 269.341C323.27 277.431 322.932 285.588 325.132 292.358C328.212 301.734 335.76 308.842 346.422 312.396C352.752 314.495 354.884 314.799 363.008 314.799C368.457 314.766 371.097 314.63 373.501 314.19C380.236 312.938 387.988 310.264 389.782 308.571L390.696 307.691L390.932 300.719C391.169 292.764 391.203 292.832 388.428 292.866C385.28 292.866 385.246 292.9 382.809 297.706C377.799 307.522 371.673 311.347 361.789 310.805C356.78 310.534 353.666 309.113 350.213 305.525C344.493 299.669 342.022 291.918 341.988 279.8C341.954 270.695 343.477 264.839 347.268 259.119C349.875 255.227 352.819 252.993 356.746 252.045C360.334 251.165 366.968 251.808 370.624 253.365C374.008 254.82 377.224 258.104 382.572 265.415C384.467 268.021 385.178 268.36 388.157 267.987C390.019 267.784 390.256 266.938 389.612 262.876C389.308 261.082 388.935 258.51 388.732 257.122C388.258 253.703 387.717 252.925 384.941 251.673C382.2 250.454 376.615 248.863 372.519 248.085C368.288 247.306 358.235 247.171 354.207 247.814Z" fill="#BEBEBE"/>
<path d="M285.157 248.288C279.165 249.574 275.611 251.368 272.091 254.922C268.605 258.408 266.811 262.301 267.082 265.889C267.725 274.554 272.193 279.767 283.667 285.216C300.253 293.103 301.505 293.881 303.333 297.638C304.653 300.346 304.653 303.663 303.333 305.931C299.644 312.227 288.068 312.565 281.399 306.574C279.199 304.611 277.372 301.836 276.153 298.62C274.63 294.592 274.698 294.66 271.448 294.66C269.891 294.66 268.402 294.761 268.097 294.863C267.623 295.032 267.556 295.946 267.556 301.632C267.556 310.162 267.522 310.094 271.313 311.313C286.781 316.323 300.084 316.39 310.069 311.584C312.844 310.23 313.826 309.553 315.417 307.86C318.734 304.273 320.088 300.685 320.054 295.574C320.054 288.973 316.839 283.659 310.272 279.36C307.429 277.533 304.822 276.212 297.24 272.861C289.049 269.24 284.818 266.396 283.261 263.486C282.449 261.962 282.449 258.679 283.261 257.088C285.089 253.534 288.575 251.909 293.923 252.146C298.29 252.349 302.453 254.516 305.364 258.07C306.786 259.83 307.293 260.71 309.02 264.806C309.764 266.532 310.475 266.904 313.115 266.904C316.297 266.904 316.398 266.769 316.162 262.572C315.654 253.805 315.586 253.23 314.808 252.654C313.048 251.334 305.398 248.965 300.219 248.118C295.988 247.408 288.778 247.509 285.157 248.288Z" fill="#BEBEBE"/>
<path d="M420.854 248.829C420.482 249.269 420.515 249.709 420.955 251.334L421.463 253.297L419.974 257.122C419.161 259.255 416.217 267.209 413.407 274.859C407.247 291.58 402.847 302.716 401.493 304.882C400.207 307.014 398.345 308.571 396.212 309.35C394.351 309.993 393.471 310.907 393.471 312.159C393.471 313.885 393.742 313.919 404.471 313.953C414.017 313.953 414.423 313.953 414.795 313.31C415.404 312.159 415.201 311.008 414.254 310.264C413.746 309.858 413.204 309.553 413.001 309.553C412.223 309.553 410.293 307.691 409.684 306.371C408.465 303.663 408.702 302.377 412.189 292.866C413.61 288.906 412.595 289.21 424.746 289.447C436.119 289.65 436.153 289.65 436.627 291.512C436.729 291.986 437.575 294.152 438.489 296.318C440.994 302.309 441.4 306.54 439.64 308.301C439.2 308.741 437.913 309.384 436.763 309.722C434.562 310.399 433.885 311.211 434.292 312.768C434.495 313.513 434.664 313.581 437.744 313.682C439.572 313.784 446.579 313.784 453.382 313.75C460.185 313.75 466.414 313.716 467.26 313.75C471.525 313.852 489.532 313.615 490.209 313.445C490.886 313.276 490.987 313.073 490.886 311.855L490.784 310.433L488.821 309.993C484.252 308.977 481.814 306.473 480.833 301.836C480.63 300.854 480.393 295.777 480.291 290.496C480.19 285.25 480.054 277.329 479.953 272.895C479.784 265.11 479.817 264.839 480.427 264.941C481.002 265.043 503.985 290.632 519.555 308.47C522.805 312.193 524.869 314.292 525.309 314.325C528.423 314.529 529.473 314.359 530.251 313.581C530.894 312.938 530.962 312.599 530.793 310.094C530.691 308.605 530.454 306.134 530.251 304.679C530.048 303.223 529.811 300.075 529.676 297.74C529.574 295.404 529.439 292.866 529.337 292.121C529.1 289.413 529.202 262.605 529.507 259.695C529.845 255.971 530.454 255.227 534.685 253.5C537.901 252.146 538.341 251.605 537.698 249.879L537.325 248.965H526.189C513.97 248.965 513.97 248.965 513.97 250.962C513.97 252.316 514.613 252.891 516.678 253.331C519.352 253.907 521.958 255.464 522.737 257.021C523.888 259.322 524.599 267.513 524.768 281.019C524.802 285.115 524.7 287.89 524.497 288.025C524.328 288.127 517.727 280.883 509.875 271.914C493.187 252.857 490.716 250.149 489.633 249.405C488.923 248.965 487.501 248.897 479.716 248.931C470.983 248.999 467.158 249.269 466.515 249.912C465.703 250.725 466.38 253.365 467.361 253.365C468.174 253.365 473.251 256.107 474.097 256.987C474.977 257.901 475.045 258.205 475.248 262.165C475.383 264.501 475.519 274.317 475.519 283.998C475.553 303.189 475.485 303.968 473.657 306.473C472.371 308.267 471.66 308.707 468.546 309.519C465.229 310.433 465.093 310.399 462.927 309.316C459.949 307.793 458.899 306.303 456.631 300.211C455.548 297.232 451.148 285.758 446.849 274.689C442.584 263.621 438.658 253.433 438.116 252.045C436.593 248.051 437.203 248.288 428.673 248.288C422.377 248.288 421.26 248.355 420.854 248.829ZM425.762 264.332C426.473 265.787 428.402 270.424 430.027 274.622C432.227 280.342 432.938 282.474 432.735 283.117L432.532 283.998L425.762 284.031C417.435 284.065 416.149 283.964 416.149 283.185C416.149 282.407 420.414 269.714 422.276 265.043C423.054 262.978 423.833 261.488 424.036 261.556C424.273 261.624 425.017 262.876 425.762 264.332Z" fill="#BEBEBE"/>
<path d="M61.2852 249.269C60.439 250.183 60.8114 251.571 62.0299 252.079C65.7871 253.602 67.1748 254.482 67.9872 255.836L68.8334 257.224L68.8672 280.85C68.8672 300.38 68.7995 304.645 68.3934 305.559C67.6487 307.353 65.8886 308.774 63.6885 309.35C60.7098 310.094 59.8298 311.211 60.7437 312.972C61.0822 313.581 61.6237 313.615 76.9569 313.615H92.8317L93.0348 312.768C93.441 311.11 92.9671 310.331 91.2747 309.891C88.533 309.214 86.8745 308.301 86.1298 307.116C85.4867 306.067 85.4528 305.457 85.4528 295.303C85.4528 289.413 85.5544 284.539 85.6559 284.404C86.2652 283.794 88.3299 285.961 96.5212 295.641C109.079 310.501 108.943 310.331 111.211 312.058L113.276 313.615H122.28C127.255 313.615 131.656 313.513 132.062 313.412C132.84 313.208 133.314 311.99 132.976 311.11C132.874 310.805 131.825 310.094 130.674 309.485C127.898 308.03 125.191 305.254 114.765 293.204C109.959 287.619 104.34 281.256 102.309 279.056C100.041 276.585 98.6536 274.791 98.7213 274.452C98.789 274.114 103.359 269.951 108.91 265.212C116.153 258.984 119.775 256.073 121.806 254.956C123.329 254.076 124.92 253.365 125.292 253.365C126.443 253.365 128.102 252.654 128.44 252.011C128.948 251.063 128.846 249.777 128.271 249.168C127.797 248.728 126.104 248.66 115.95 248.626C102.783 248.626 102.918 248.592 103.122 250.792C103.223 252.079 103.291 252.146 105.085 252.722C107.15 253.399 108.808 254.922 108.808 256.174C108.808 258.036 107.15 260.405 102.851 264.738C97.0628 270.56 87.416 278.413 86.0283 278.413C85.5882 278.413 85.4867 277.16 85.2836 269.815C84.8774 256.073 85.3851 254.55 90.9701 252.823C93.0687 252.18 93.6779 251.503 93.5087 250.048C93.4072 249.202 93.2718 249.134 91.207 248.897C89.9885 248.795 82.9142 248.66 75.4338 248.66C62.3007 248.592 61.8607 248.626 61.2852 249.269Z" fill="#BEBEBE"/>
<path d="M135.548 249.066C134.905 249.371 134.668 249.811 134.6 250.759C134.465 252.485 134.905 252.925 137.173 253.365C139.914 253.94 141.133 254.787 142.115 256.851L142.995 258.611V281.053C143.028 302.716 142.995 303.528 142.351 305.017C141.065 307.86 140.524 308.368 137.782 309.181C134.736 310.061 133.889 310.907 134.431 312.701L134.736 313.784L166.248 313.885C201.823 313.953 198.201 314.258 198.675 311.245C198.81 310.399 199.352 307.387 199.893 304.51C201.044 298.383 201.078 298.485 197.795 298.18L195.628 297.977L192.041 301.497C188.25 305.22 184.865 307.691 182.225 308.673C180.295 309.418 171.427 310.128 168.211 309.858C163.98 309.485 161.78 308.097 160.122 304.848C159.58 303.833 159.513 302.716 159.58 295.032C159.682 284.268 159.749 283.185 160.189 282.745C160.731 282.204 173.289 282 176.233 282.474C178.603 282.881 178.806 282.982 180.566 284.81C181.582 285.859 182.766 287.416 183.206 288.33C183.646 289.21 184.289 290.09 184.628 290.259C185.339 290.632 187.099 290.699 188.622 290.395L189.671 290.192V280.647C189.705 275.434 189.57 270.932 189.434 270.695C189.096 270.187 186.049 269.781 184.865 270.086C184.391 270.187 183.917 270.594 183.782 270.966C183.68 271.338 182.969 272.523 182.258 273.606C179.889 277.16 177.554 277.803 167.23 277.769C162.457 277.769 160.359 277.634 160.02 277.329C159.58 276.991 159.546 275.265 159.648 265.516C159.682 259.221 159.851 253.974 159.986 253.839C160.122 253.703 161.882 253.568 163.879 253.5C165.91 253.433 169.396 253.297 171.698 253.23C177.08 253.026 179.077 253.365 182.529 255.057C184.662 256.14 186.083 257.156 188.52 259.525L191.736 262.572L193.801 262.605C195.392 262.605 196.001 262.47 196.305 262.03C196.881 261.252 197.152 258.713 197.118 253.94C197.084 250.251 197.05 249.912 196.373 249.506C195.324 248.829 136.834 248.423 135.548 249.066Z" fill="#BEBEBE"/>
<path d="M200.198 249.642C198.844 250.996 199.69 252.654 202.06 253.297C202.804 253.534 204.158 254.279 205.106 254.99C206.697 256.174 207.272 257.156 213.839 269.274C217.697 276.449 221.725 284.031 222.775 286.164L224.704 290.056L224.839 295.167C225.076 303.088 224.129 306.811 221.624 308.301C221.014 308.639 219.593 309.181 218.408 309.485C216.648 309.959 216.242 310.23 215.971 310.975C215.734 311.584 215.768 312.159 216.039 312.768L216.445 313.615H249.312L249.684 312.735C249.955 312.159 249.955 311.584 249.752 310.975C249.481 310.23 249.075 309.993 247.348 309.519C244.505 308.774 242.745 307.556 241.865 305.762C241.188 304.374 241.154 303.731 241.154 296.318V288.398L246.942 278.074C254.253 265.009 258.146 258.442 259.466 256.919C260.041 256.276 261.7 254.956 263.189 254.008C265.457 252.519 265.863 252.113 266.066 251.131C266.473 248.965 266.54 248.965 255.506 248.965C246.028 248.965 245.554 248.999 245.216 249.608C244.708 250.623 244.81 251.842 245.487 252.417C245.791 252.688 246.807 253.196 247.721 253.534C250.462 254.55 251.647 256.174 251.647 258.984C251.647 260.236 251.106 261.556 248.635 266.329C244.167 275.028 239.902 282.136 239.157 282.136C238.683 282.136 238.345 281.594 234.723 274.859C232.828 271.304 230.221 266.498 228.935 264.129C227.141 260.778 226.532 259.356 226.396 257.934C226.193 256.073 226.193 256.039 227.547 254.753C228.664 253.67 229.206 253.433 230.864 253.23C231.947 253.094 233.098 252.756 233.437 252.451C234.114 251.842 234.249 249.98 233.64 249.371C233.335 249.066 229.172 248.965 217.054 248.965C201.315 248.965 200.841 248.999 200.198 249.642Z" fill="#BEBEBE"/>
<path d="M71.8456 319.267C68.0885 327.763 59.8972 345.06 59.3556 345.635C58.9495 346.075 58.2048 346.515 57.6632 346.617C56.9186 346.786 56.6816 347.023 56.6816 347.666V348.478H61.725C65.7868 348.478 66.8361 348.377 67.1746 347.971C67.7838 347.26 67.0392 346.447 65.8206 346.447C63.4174 346.447 63.2482 345.5 64.8729 341.37L65.9222 338.662L72.4887 338.73L79.0891 338.832L80.2061 341.539C80.8492 343.029 81.357 344.586 81.3908 344.992C81.3908 345.906 80.4769 346.447 78.9199 346.447C77.5998 346.447 77.1259 347.091 77.8029 347.971C78.1752 348.478 78.7845 348.512 84.2002 348.309C87.5173 348.174 90.2929 347.937 90.3606 347.801C90.6991 347.226 90.0898 346.447 89.3113 346.447C87.7543 346.447 87.2465 345.533 81.5939 333.145C80.0707 329.76 77.9044 324.886 76.7875 322.347C74.7904 317.71 74.7904 317.676 73.6734 317.676C72.658 317.676 72.4887 317.846 71.8456 319.267ZM75.4335 330.336C76.8552 333.653 77.9721 336.428 77.9044 336.496C77.7691 336.631 67.1407 336.733 67.0053 336.564C66.9715 336.496 68.1223 333.619 69.6455 330.099C71.1348 326.612 72.4887 323.871 72.6241 324.006C72.7595 324.175 74.0119 326.985 75.4335 330.336Z" fill="#BEBEBE"/>
<path d="M389.849 318.015C384.806 319.064 381.523 322.449 381.523 326.477C381.523 329.828 383.317 332.13 387.649 334.228C388.699 334.77 390.594 335.684 391.813 336.259C394.757 337.715 396.111 338.865 396.653 340.49C397.262 342.25 396.856 343.875 395.468 345.297C393.573 347.26 390.256 347.767 387.04 346.617C384.129 345.601 383.824 345.161 383.147 341.269C383.012 340.355 382.775 340.016 382.335 340.016C381.455 340.016 381.353 340.456 381.421 344.247L381.455 347.598L383.486 348.275C386.6 349.291 392.93 349.223 395.637 348.174C399.428 346.684 401.561 343.875 401.595 340.422C401.595 336.767 399.97 335.007 393.505 331.791C386.769 328.44 385.145 326.342 386.634 322.991C387.649 320.655 389.511 319.572 392.422 319.572C396.145 319.572 397.499 320.757 398.074 324.412C398.278 325.597 398.413 325.8 399.09 325.8C399.902 325.8 399.902 325.766 399.902 322.28V318.76L398.311 318.387C396.179 317.846 391.609 317.643 389.849 318.015Z" fill="#BEBEBE"/>
<path d="M335.997 323.092C331.901 323.938 328.787 326.409 327.027 330.133C326.045 332.197 325.944 332.705 325.977 335.616C326.011 339.982 326.858 342.216 329.464 344.789C331.901 347.192 333.932 347.937 337.79 347.903C343.985 347.835 348.554 344.383 350.01 338.662C350.653 336.09 350.517 332.637 349.604 330.031C348.791 327.662 345.508 324.412 343.172 323.634C341.04 322.923 337.926 322.686 335.997 323.092ZM340.228 324.954C343.612 326.375 345.406 330.099 345.406 335.785C345.406 341.979 343.206 345.703 339.144 346.312C334.236 347.023 330.852 342.352 330.852 334.804C330.852 327.56 335.32 322.889 340.228 324.954Z" fill="#BEBEBE"/>
<path d="M182.022 323.431C178.163 324.243 175.523 326.612 175.218 329.456C174.88 333.145 176.437 334.973 182.428 337.816C186.659 339.847 187.505 340.659 187.505 342.758C187.505 345.229 184.526 347.124 181.412 346.617C178.501 346.177 176.944 344.721 176.674 342.25C176.64 341.878 176.572 341.404 176.538 341.269C176.538 341.099 176.166 341.032 175.76 341.099C175.015 341.201 174.981 341.37 174.947 344.01C174.947 345.804 175.083 346.921 175.353 347.158C175.557 347.327 176.877 347.734 178.231 348.004C185.372 349.528 191.736 346.583 191.736 341.709C191.736 338.527 189.84 336.496 184.56 333.991C179.584 331.656 178.434 330.065 179.72 327.357C180.769 325.157 183.951 324.378 186.591 325.698C187.945 326.375 188.216 326.782 188.52 328.576C188.69 329.659 188.859 329.862 189.536 329.862C190.382 329.862 190.382 329.828 190.382 326.985V324.141L189.13 323.803C187.166 323.261 183.612 323.092 182.022 323.431Z" fill="#BEBEBE"/>
<path d="M529.202 323.566C525.343 324.378 522.872 326.646 522.534 329.693C522.128 333.111 523.888 335.074 529.744 337.816C532.756 339.238 533.738 339.881 534.279 340.761C535.566 342.859 534.821 345.06 532.485 346.143C530.048 347.226 527.34 346.82 525.31 345.06C524.396 344.247 524.125 343.74 524.057 342.623C523.989 341.438 523.82 341.167 523.177 341.099C522.432 340.998 522.399 341.032 522.5 344.146L522.602 347.294L524.802 347.869C530.624 349.358 536.818 347.767 538.476 344.315C539.153 342.859 539.187 340.287 538.544 339.035C537.698 337.444 535.498 335.751 532.215 334.161C527.171 331.791 526.02 330.437 526.833 327.966C527.476 326.105 528.931 325.123 531.131 325.123C533.162 325.123 535.193 325.902 535.43 326.748C535.532 327.086 535.701 327.899 535.802 328.576C536.039 329.76 536.716 330.403 537.359 329.997C537.529 329.896 537.664 328.542 537.664 326.985V324.141L536.412 323.803C534.212 323.261 531.131 323.16 529.202 323.566Z" fill="#BEBEBE"/>
<path d="M123.126 323.803C119.842 324.345 117.676 325.428 115.611 327.459C113.005 329.997 112.091 332.299 112.091 336.293C112.125 341.573 114.359 345.466 118.522 347.531C120.621 348.546 121.061 348.648 124.039 348.648C126.68 348.648 127.56 348.512 128.947 347.869C130.708 347.057 133.178 344.924 133.178 344.213C133.178 343.401 132.061 343.401 131.012 344.18C128.981 345.737 127.661 346.21 125.529 346.244C120.248 346.244 116.593 341.201 117.033 334.465C117.405 328.711 120.113 325.495 124.615 325.428C125.732 325.394 127.018 325.563 127.458 325.8C128.981 326.579 130.538 328.339 131.351 330.133C131.926 331.487 132.298 331.927 132.738 331.825C133.28 331.723 133.348 331.351 133.246 328.677C133.178 326.985 133.043 325.394 132.975 325.055C132.671 324.006 126.544 323.194 123.126 323.803Z" fill="#BEBEBE"/>
<path d="M161.814 324.277C160.731 324.717 159.445 325.428 159.005 325.868C157.346 327.391 156.635 329.794 157.211 331.927C157.82 334.194 159.309 335.481 163.811 337.647C168.381 339.813 169.396 340.761 169.396 342.724C169.396 345.974 165.097 347.835 161.442 346.143C159.614 345.33 158.937 344.45 158.632 342.69C158.429 341.506 158.226 341.201 157.718 341.201C157.109 341.201 157.041 341.438 157.041 344.213V347.226L158.395 347.734C159.14 348.004 161.205 348.275 162.965 348.377C165.673 348.512 166.519 348.444 168.381 347.801C173.932 345.94 175.489 340.964 171.698 337.275C170.851 336.462 168.821 335.21 166.519 334.127C162.356 332.13 161.272 331.114 161.272 329.286C161.272 325.868 164.962 324.108 168.617 325.766C169.836 326.342 170.073 326.612 170.242 327.729C170.648 329.997 170.75 330.234 171.528 330.133C172.172 330.031 172.273 329.76 172.375 327.899C172.578 324.581 172.408 324.209 170.411 323.803C167.433 323.16 164.048 323.363 161.814 324.277Z" fill="#BEBEBE"/>
<path d="M212.857 323.905C210.217 324.514 208.288 325.495 206.426 327.222C201.383 331.893 201.552 340.93 206.798 345.737C209.1 347.835 211.3 348.648 214.753 348.648C217.968 348.648 220.338 347.835 222.335 346.075C225.009 343.706 224.061 342.589 221.116 344.586C219.288 345.77 216.953 346.414 215.057 346.177C214.55 346.109 213.331 345.567 212.349 344.992C209.066 343.029 207.374 338.967 207.746 334.059C208.186 328.034 212.282 324.243 217.054 325.462C219.356 326.037 220.676 327.188 221.861 329.726C222.639 331.317 223.079 331.893 223.485 331.825C223.993 331.723 224.061 331.283 223.959 328.339C223.892 326.477 223.689 324.785 223.519 324.581C222.775 323.668 215.836 323.228 212.857 323.905Z" fill="#BEBEBE"/>
<path d="M235.299 323.769C231.812 324.649 228.631 327.222 227.04 330.471C225.72 333.145 225.55 337.308 226.6 340.727C227.243 342.859 227.615 343.435 229.409 345.263C231.88 347.7 233.843 348.478 237.566 348.478C243.287 348.478 247.687 345.567 249.583 340.592C250.767 337.376 250.666 333.077 249.278 329.963C248.364 327.865 245.825 325.326 243.761 324.412C241.797 323.566 237.499 323.228 235.299 323.769ZM240.985 325.902C243.964 327.594 245.859 332.502 245.453 337.613C244.979 343.57 242.441 346.786 238.21 346.786C233.606 346.786 230.865 342.555 230.898 335.447C230.898 331.791 231.372 329.997 232.895 327.763C234.656 325.258 238.311 324.412 240.985 325.902Z" fill="#BEBEBE"/>
<path d="M352.278 323.668C352.041 323.769 351.838 324.108 351.838 324.48C351.838 324.988 352.075 325.123 352.989 325.123C355.121 325.123 355.223 325.462 355.256 332.333C355.29 335.718 355.358 339.576 355.426 340.93C355.561 344.586 355.324 345.195 353.496 345.635C352.684 345.838 352.041 346.109 352.109 346.21C352.142 346.346 352.176 346.583 352.176 346.786C352.176 346.989 355.29 347.124 360.808 347.124H369.473L369.371 343.807C369.27 340.693 369.236 340.524 368.525 340.422C367.814 340.321 367.746 340.422 367.746 341.979C367.746 343.13 367.543 343.909 367.103 344.45C366.562 345.161 366.223 345.229 363.177 345.229L359.826 345.263L359.724 336.124C359.555 325.698 359.623 325.36 361.755 325.191C362.838 325.089 363.008 324.954 363.008 324.277V323.431L357.863 323.498C355.02 323.498 352.481 323.6 352.278 323.668Z" fill="#BEBEBE"/>
<path d="M98.3151 324.243C94.3887 325.326 91.207 327.899 89.7515 331.148C88.6683 333.585 88.5668 337.884 89.5145 340.659C91.3424 346.143 95.0995 348.817 100.888 348.817C104.137 348.817 106.743 347.835 108.808 345.872C110.263 344.45 110.297 344.383 109.688 343.909C109.079 343.469 108.91 343.503 107.894 344.281C104.306 347.023 100.38 347.124 97.3673 344.552C93.6102 341.336 92.5609 334.668 95.0656 329.726C96.4196 327.052 98.2135 325.766 100.82 325.529C104.171 325.258 106.506 326.714 107.996 330.099C108.571 331.419 108.977 331.893 109.485 331.893C110.094 331.893 110.162 331.69 110.128 330.099C110.094 329.151 109.993 327.492 109.891 326.477L109.654 324.615L107.962 324.209C105.694 323.701 100.211 323.701 98.3151 324.243Z" fill="#BEBEBE"/>
<path d="M280.52 324.006C280.012 324.209 279.91 330.37 280.384 330.674C281.095 331.114 281.704 330.437 281.874 328.982C282.144 326.545 282.72 326.138 286.139 326.138H289.049V335.65C289.049 344.653 289.016 345.161 288.406 345.635C288.034 345.906 287.323 346.109 286.815 346.109C285.665 346.109 285.258 346.684 285.902 347.327C286.274 347.7 287.357 347.767 291.69 347.564C296.868 347.361 297.038 347.327 296.936 346.65C296.868 346.075 296.564 345.906 295.413 345.838C294.431 345.77 293.924 345.567 293.822 345.161C293.72 344.857 293.551 340.422 293.45 335.345L293.247 326.138H296.259C299.779 326.138 300.185 326.409 300.558 328.914C300.761 330.336 300.896 330.539 301.607 330.539C302.453 330.539 302.453 330.539 302.352 327.222L302.25 323.938L291.588 323.871C285.732 323.837 280.723 323.905 280.52 324.006Z" fill="#BEBEBE"/>
<path d="M303.333 324.006C302.961 324.818 303.367 325.292 304.518 325.394C305.195 325.462 305.939 325.732 306.21 326.037C306.786 326.748 307.056 344.01 306.515 345.06C306.244 345.5 305.702 345.77 304.856 345.838C303.841 345.906 303.57 346.075 303.502 346.684L303.401 347.463H314.638L314.537 346.684C314.469 346.109 314.198 345.906 313.251 345.838C311.423 345.669 311.22 345.161 311.22 340.287V335.954H312.337C313.352 335.954 313.589 336.191 315.18 338.595C316.094 340.016 317.685 342.623 318.7 344.315L320.494 347.463H323.473C326.384 347.463 326.451 347.429 326.451 346.65C326.451 346.075 326.214 345.77 325.673 345.635C325.131 345.5 323.777 343.909 321.577 340.862C319.783 338.324 318.226 336.056 318.125 335.819C318.023 335.582 318.497 335.142 319.309 334.804C324.556 332.434 324.184 325.631 318.734 324.108C317.312 323.735 303.536 323.634 303.333 324.006ZM316.229 325.935C317.752 326.714 318.362 327.662 318.429 329.286C318.531 332.163 316.838 333.754 313.318 334.127C310.881 334.397 311.017 334.668 311.152 329.32L311.254 325.462H313.284C314.401 325.462 315.721 325.665 316.229 325.935Z" fill="#BEBEBE"/>
<path d="M431.888 324.243C426.811 325.834 424.645 329.693 426.642 333.585C427.522 335.311 428.842 336.293 432.735 338.087C436.627 339.881 438.049 341.032 438.353 342.521C438.827 345.06 436.593 347.124 433.411 347.124C430.061 347.091 427.657 345.466 427.657 343.198C427.657 341.776 426.913 341.133 426.134 341.912C425.796 342.25 425.66 342.758 425.762 343.198C425.863 343.604 425.965 344.789 425.965 345.838V347.767L427.86 348.343C430.433 349.088 435.104 349.054 437.304 348.309C440.757 347.124 442.551 345.06 442.551 342.216C442.551 339.068 440.52 336.767 435.882 334.804C431.042 332.705 429.553 331.046 430.331 328.508C431.042 326.172 433.581 325.021 436.39 325.8C438.319 326.308 439.03 327.086 439.301 328.982C439.504 330.336 439.64 330.539 440.384 330.539C441.23 330.539 441.23 330.539 441.129 327.594L441.027 324.615L439.335 324.243C437.101 323.701 433.581 323.701 431.888 324.243Z" fill="#BEBEBE"/>
<path d="M138.357 324.345C135.48 324.446 135.209 324.548 135.209 325.123C135.209 325.495 135.243 325.8 135.311 325.8C135.345 325.834 135.988 325.902 136.733 326.003C137.477 326.105 138.256 326.342 138.425 326.511C138.628 326.714 138.797 330.437 138.865 335.819C139 346.041 138.933 346.447 136.733 346.447C135.785 346.447 135.548 346.583 135.548 347.091C135.548 347.429 135.785 347.801 136.056 347.937C136.597 348.14 148.647 348.106 152.235 347.869L154.537 347.734L154.435 344.992C154.334 342.419 154.266 342.216 153.589 342.115C152.878 342.013 152.81 342.149 152.81 343.57C152.81 345.026 152.743 345.161 151.626 345.635C150.881 345.94 149.256 346.109 146.921 346.109H143.401L143.265 343.469C143.198 342.047 143.198 339.915 143.265 338.73L143.367 336.631H146.549C150.103 336.631 150.78 336.97 150.78 338.696C150.78 339.509 150.915 339.678 151.626 339.678H152.472V331.554H151.626C150.915 331.554 150.78 331.723 150.78 332.536C150.78 333.077 150.543 333.788 150.238 334.059C149.663 334.668 149.053 334.736 144.856 334.634L143.333 334.601V326.138H147.158C149.223 326.138 151.152 326.274 151.423 326.443C151.693 326.612 151.998 327.323 152.1 328.034C152.269 329.083 152.472 329.388 153.081 329.456C153.826 329.557 153.86 329.523 153.758 326.917L153.657 324.277L147.564 324.243C144.213 324.243 140.05 324.277 138.357 324.345Z" fill="#BEBEBE"/>
<path d="M252.053 324.852C252.121 325.462 252.392 325.665 253.407 325.732C254.084 325.8 254.795 326.003 254.964 326.24C255.371 326.748 255.641 345.093 255.269 345.669C255.1 345.906 254.423 346.109 253.678 346.109C252.426 346.109 251.952 346.515 252.223 347.361C252.426 347.869 260.956 348.004 261.26 347.497C261.734 346.752 261.023 346.109 259.737 346.109C258.62 346.109 258.349 345.974 258.078 345.229C257.875 344.687 257.774 341.066 257.808 336.395L257.909 328.474L264.848 336.699C275.07 348.817 274.664 348.444 275.849 347.26C276.356 346.752 276.39 345.601 276.289 336.564C276.187 327.12 276.221 326.409 276.796 325.969C277.135 325.732 277.677 325.597 278.015 325.698C278.692 325.868 279.843 324.92 279.572 324.412C279.267 323.938 270.704 324.006 270.399 324.514C270.061 325.055 271.212 325.8 272.362 325.8C273.818 325.8 274.021 326.782 273.919 334.059L273.818 340.524L268.741 334.601C265.931 331.351 262.817 327.662 261.802 326.375L259.974 324.108H255.98C251.986 324.108 251.952 324.108 252.053 324.852Z" fill="#BEBEBE"/>
<path d="M489.87 324.378C488.516 324.48 488.246 324.581 488.246 325.123C488.246 325.631 488.55 325.834 489.6 326.003C490.683 326.172 491.021 326.409 491.157 327.052C491.427 328.034 491.021 336.394 490.412 342.893C490.175 345.466 489.836 346.041 488.449 346.312C487.264 346.515 486.621 347.327 487.162 347.869C487.332 348.038 489.363 348.106 491.664 348.072C495.726 347.971 495.861 347.937 495.963 347.192C496.064 346.515 495.929 346.447 494.744 346.447C492.815 346.447 492.578 345.974 492.612 342.284C492.646 340.524 492.714 338.832 492.781 338.459C492.849 338.121 493.018 335.514 493.154 332.739C493.391 328.034 493.492 327.154 493.763 327.526C494 327.797 501.379 345.297 501.819 346.549C502.191 347.632 502.394 347.801 503.105 347.734C503.85 347.632 504.154 347.057 505.847 342.724C506.896 340.016 508.758 335.548 509.976 332.773C512.481 327.12 512.413 327.12 512.819 332.739C512.921 334.397 513.09 336.09 513.158 336.462C513.496 338.324 513.632 344.958 513.327 345.398C513.158 345.669 512.345 345.974 511.533 346.075C510.382 346.244 510.078 346.414 510.078 346.955C510.078 347.598 510.315 347.632 515.493 347.632C520.841 347.632 520.909 347.632 521.011 346.854C521.112 346.21 520.977 346.109 519.927 346.109C518.032 346.109 517.863 345.533 517.186 336.801C516.881 332.502 516.543 328.542 516.475 327.966C516.272 326.579 517.05 325.8 518.574 325.8C519.623 325.8 519.758 325.698 519.657 325.021C519.555 324.311 519.42 324.277 515.595 324.175L511.635 324.074L510.992 325.36C510.619 326.071 509.265 329.151 507.945 332.231C506.625 335.311 505.204 338.628 504.763 339.61L503.951 341.438L500.634 333.517C498.806 329.185 497.08 325.292 496.809 324.852C496.301 324.04 495.658 324.006 489.87 324.378Z" fill="#BEBEBE"/>
<path d="M442.923 324.751C442.652 324.92 442.551 325.935 442.619 328.034C442.72 330.81 442.788 331.046 443.431 331.148C444.074 331.25 444.21 331.046 444.413 329.625C444.785 327.086 445.191 326.815 448.711 326.815H451.724L451.622 336.293C451.555 343.333 451.419 345.838 451.081 346.177C450.844 346.414 450.167 346.583 449.558 346.617C448.711 346.617 448.441 346.786 448.373 347.361L448.271 348.14H459.509L459.407 347.361C459.34 346.786 459.069 346.583 458.053 346.515C457.376 346.447 456.666 346.21 456.463 346.007C456.09 345.533 456.023 343.401 456.056 333.484L456.09 326.815H458.933C462.183 326.815 462.724 327.12 463.029 329.117C463.368 331.046 463.469 331.216 464.214 331.216C464.891 331.216 464.925 331.046 464.823 327.899L464.721 324.615L454.025 324.548C448.17 324.514 443.16 324.615 442.923 324.751Z" fill="#BEBEBE"/>
<path d="M466.651 325.191C466.719 325.8 466.989 326.003 468.005 326.071C468.682 326.139 469.393 326.375 469.596 326.612C470.137 327.255 470.171 345.297 469.629 345.94C469.426 346.177 468.682 346.447 468.005 346.515C467.023 346.583 466.752 346.752 466.752 347.294C466.752 347.937 467.023 347.971 476.027 348.072C483.067 348.14 485.369 348.038 485.572 347.734C485.809 347.327 485.673 343.367 485.369 342.453C485.301 342.25 484.997 342.047 484.692 342.047C484.32 342.047 484.184 342.419 484.184 343.333C484.184 345.703 483.778 345.94 479.005 346.041C474.064 346.177 474.537 346.752 474.402 340.558L474.301 336.564L477.719 336.699C479.682 336.767 481.273 336.97 481.51 337.207C481.713 337.41 481.984 338.087 482.119 338.73C482.289 339.542 482.526 339.847 483 339.847C483.609 339.847 483.676 339.576 483.778 336.462C483.88 332.4 483.744 331.554 482.83 331.554C482.356 331.554 482.153 331.791 482.153 332.367C482.153 332.807 481.849 333.517 481.51 333.957C480.935 334.702 480.529 334.77 477.618 334.871L474.368 335.007V330.911C474.368 327.222 474.436 326.815 475.011 326.477C475.858 326.037 481.679 326.037 482.526 326.477C482.898 326.714 483.236 327.357 483.372 328.203C483.575 329.32 483.71 329.557 484.32 329.456C484.963 329.354 485.03 329.151 485.03 326.985V324.615L475.79 324.514L466.549 324.446L466.651 325.191Z" fill="#BEBEBE"/>
<path d="M401.832 325.225C401.628 325.8 401.899 326.206 402.779 326.68C403.49 327.052 404.81 328.948 408.703 335.108L411.038 338.832L411.072 342.216C411.106 344.078 411.038 345.872 410.903 346.177C410.767 346.549 410.192 346.786 409.278 346.854C408.127 346.921 407.857 347.091 407.857 347.632C407.857 348.275 408.093 348.309 413.441 348.309C418.79 348.309 419.026 348.275 419.026 347.632C419.026 347.091 418.756 346.921 417.774 346.854C417.097 346.786 416.352 346.515 416.116 346.21C415.845 345.906 415.608 344.417 415.54 342.521L415.405 339.305L419.06 333.179C421.464 329.185 423.088 326.849 423.664 326.511C424.205 326.206 424.611 325.698 424.611 325.36C424.611 324.852 424.205 324.785 420.922 324.785C418.688 324.785 417.131 324.92 416.996 325.123C416.657 325.665 417.469 326.477 418.349 326.477C420.076 326.477 419.568 328.068 415.912 334.364L414.559 336.699L411.952 332.333C410.531 329.963 409.414 327.696 409.447 327.323C409.515 326.883 409.887 326.579 410.564 326.477C411.275 326.342 411.614 326.105 411.681 325.529C411.783 324.785 411.783 324.785 406.909 324.785C403.118 324.785 401.967 324.886 401.832 325.225Z" fill="#BEBEBE"/>
</svg>
