<svg width="595" height="595" viewBox="0 0 595 595" fill="none" xmlns="http://www.w3.org/2000/svg">
<path d="M223.196 227.053C213.142 227.965 199.204 229.789 192.349 231.158C181.152 233.21 181.838 233.21 199.204 232.07C235.078 229.561 299.973 230.93 330.592 234.807C382.004 241.421 428.847 255.333 454.211 271.298C468.606 280.649 482.088 295.929 483.916 305.736C485.744 315.771 477.975 331.736 467.007 340.859C456.724 349.297 432.046 362.297 419.022 366.175C413.766 367.771 409.882 369.368 410.339 369.824C411.938 371.42 444.385 361.841 461.98 354.543C505.166 336.754 523.446 312.35 511.336 288.631C496.483 260.123 429.761 235.035 346.815 227.053C318.481 224.316 250.617 224.316 223.196 227.053Z" fill="#BEBEBE"/>
<path d="M259.299 263.316C246.503 266.052 232.565 273.351 226.852 280.649C220.911 288.175 214.056 306.421 210.629 323.982C206.973 341.999 210.857 351.806 223.425 358.192C230.737 361.841 237.363 362.525 260.899 362.525C291.975 362.525 302.257 360.245 313.682 350.666C320.08 345.192 329.794 322.613 329.794 322.613C329.794 322.613 321.223 322.613 307.97 322.613H286.491L283.749 330.368C280.321 341.315 274.38 345.876 265.012 344.964C258.614 344.28 257.471 343.368 256.786 337.666C255.643 328.087 265.24 291.596 270.496 284.754C274.152 280.193 276.894 279.28 283.52 279.737C291.518 280.421 291.746 280.649 291.975 289.543V298.666L312.311 299.35C323.279 299.807 334.325 299.35 334.325 299.35C334.325 299.35 336.533 291.596 336.761 286.122C336.99 274.263 329.906 266.28 316.653 263.316C305.913 260.807 272.552 260.807 259.299 263.316Z" fill="#BEBEBE"/>
<path d="M105.489 263.772L80 360.389C80 360.389 90.6559 360.954 103.223 360.954C115.791 360.954 125.626 361.385 125.626 361.385L130.882 341.999L135.909 322.613H145.506C158.988 322.613 160.587 325.578 156.703 341.999C151.904 362.525 150.762 361.385 175.897 361.385H198.29L201.032 348.157C205.602 326.263 204.916 320.789 196.69 315.999L189.607 311.666L197.604 309.157C209.943 305.052 216.113 297.07 216.113 284.754C216.341 275.631 215.427 273.351 209.943 269.245C203.774 264.684 200.346 264.456 154.646 263.772C109.174 263.088 105.489 263.772 105.489 263.772ZM168.128 284.526C177.268 291.368 163.786 304.368 147.791 304.368C145.09 304.368 142.822 304.368 141.74 303.288C141.74 301.027 142.48 297.247 144.592 290C146.649 282.245 147.563 281.561 155.56 281.561C160.13 281.561 165.843 282.929 168.128 284.526Z" fill="#BEBEBE"/>
<path d="M348.872 266.052C346.587 272.894 324.696 361.385 324.696 361.385C324.696 361.385 332.191 361.385 347.272 361.385H369.894L382.004 315.087C388.631 289.772 395.257 266.052 395.257 266.052H348.872Z" fill="#BEBEBE"/>
</svg>
