<svg width="183" height="56" viewBox="0 0 183 56" fill="none" xmlns="http://www.w3.org/2000/svg">
<path d="M66.3038 23.5387V18.8557H58.4802V23.5387H55.4106V12.3289H58.4802V16.4097H66.3038V12.3289H69.3734V23.5387H66.3038Z" fill="white"/>
<path d="M81.6641 21.4123H75.3129L74.2398 23.5387H70.8084L76.7603 12.3289H80.1917L86.1436 23.5387H82.7122L81.6641 21.4123ZM76.4234 19.2244H80.5785L78.5072 15.0945L76.4234 19.2244Z" fill="white"/>
<path d="M87.6035 23.5387V12.3289H90.673V21.0804H98.9833V23.5387H87.6035Z" fill="white"/>
<path d="M101.03 23.5387V12.3289H104.099V21.0804H112.409V23.5387H101.03Z" fill="white"/>
<path d="M128.918 23.5387V15.6599L124.688 23.5387H121.743L117.513 15.6599V23.5387H114.443V12.3289H118.623L123.228 20.8223L127.832 12.3289H131.987V23.5387H128.918Z" fill="white"/>
<path d="M144.265 21.4123H137.914L136.841 23.5387H133.41L139.362 12.3289H142.793L148.745 23.5387H145.313L144.265 21.4123ZM139.012 19.2244H143.167L141.096 15.0945L139.012 19.2244Z" fill="white"/>
<path d="M150.205 23.5387V12.3289H157.916C158.74 12.3289 159.451 12.4149 160.025 12.587C160.599 12.7591 161.073 12.9926 161.435 13.2999C161.797 13.6072 162.059 13.9882 162.221 14.4184C162.383 14.8609 162.47 15.3403 162.47 15.8811C162.47 16.3482 162.408 16.7661 162.271 17.1226C162.134 17.479 161.959 17.774 161.722 18.0322C161.497 18.2903 161.223 18.4992 160.923 18.6713C160.624 18.8434 160.299 18.9909 159.962 19.1015L163.693 23.5387H160.1L156.656 19.4088H153.299V23.5387H150.205ZM159.351 15.8688C159.351 15.6476 159.326 15.4632 159.264 15.3157C159.201 15.1682 159.101 15.0453 158.964 14.947C158.827 14.8487 158.627 14.7872 158.39 14.738C158.153 14.6889 157.854 14.6766 157.492 14.6766H153.287V17.0734H157.492C157.854 17.0734 158.153 17.0488 158.39 17.012C158.627 16.9628 158.827 16.9013 158.964 16.803C159.101 16.7047 159.214 16.5818 159.264 16.4343C159.314 16.2622 159.351 16.0778 159.351 15.8688Z" fill="white"/>
<path d="M168.547 16.5941L174.849 12.3167H178.966L171.305 17.7003L179.478 23.5388H174.998L168.547 18.8803V23.5388H165.453V12.3289H168.547V16.5941Z" fill="white"/>
<path d="M66.3038 43.5985V38.9154H58.4802V43.5985H55.4106V32.3886H58.4802V36.4694H66.3038V32.3886H69.3734V43.5985H66.3038Z" fill="white"/>
<path d="M81.6641 41.4721H75.3129L74.2398 43.5985H70.8084L76.7603 32.3886H80.1917L86.1436 43.5985H82.7122L81.6641 41.4721ZM76.4234 39.2842H80.5785L78.5072 35.1542L76.4234 39.2842Z" fill="white"/>
<path d="M87.6035 43.5985V32.3886H95.3148C96.1383 32.3886 96.8496 32.4747 97.4236 32.6468C97.9975 32.8188 98.4717 33.0524 98.8336 33.3597C99.1954 33.667 99.4575 34.048 99.6197 34.4782C99.7819 34.9207 99.8692 35.4001 99.8692 35.9409C99.8692 36.408 99.8068 36.8259 99.6696 37.1823C99.5323 37.5388 99.3576 37.8338 99.1206 38.0919C98.896 38.35 98.6214 38.559 98.322 38.731C98.0225 38.9031 97.6981 39.0506 97.3612 39.1612L101.092 43.5985H97.4984L94.0545 39.4685H90.698V43.5985H87.6035ZM96.7498 35.9163C96.7498 35.6951 96.7248 35.5107 96.6624 35.3632C96.6 35.2157 96.5002 35.0928 96.3629 34.9944C96.2257 34.8961 96.026 34.8346 95.789 34.7855C95.5519 34.7363 95.2524 34.724 94.8906 34.724H90.6855V37.1209H94.8906C95.2524 37.1209 95.5519 37.0963 95.789 37.0594C96.026 37.0102 96.2257 36.9488 96.3629 36.8505C96.5002 36.7521 96.6125 36.6292 96.6624 36.4817C96.7248 36.3219 96.7498 36.1375 96.7498 35.9163Z" fill="white"/>
<path d="M116.802 37.9813C116.802 38.6942 116.727 39.3334 116.565 39.8988C116.402 40.4519 116.178 40.9435 115.891 41.3615C115.604 41.7794 115.255 42.1235 114.843 42.4185C114.443 42.7012 113.982 42.9348 113.495 43.1191C112.996 43.2912 112.459 43.4141 111.885 43.5002C111.311 43.5739 110.713 43.6231 110.089 43.6231H102.864V32.4132H110.076C110.7 32.4132 111.299 32.4501 111.873 32.5362C112.447 32.6099 112.984 32.7451 113.483 32.9172C113.982 33.0893 114.431 33.3228 114.843 33.6055C115.255 33.8882 115.604 34.2447 115.891 34.6626C116.178 35.0805 116.402 35.5599 116.565 36.1253C116.714 36.6292 116.802 37.2684 116.802 37.9813ZM113.695 37.9813C113.695 37.4405 113.62 36.9734 113.483 36.5801C113.345 36.1867 113.121 35.8549 112.809 35.5967C112.497 35.3386 112.085 35.142 111.586 35.019C111.087 34.8961 110.475 34.8224 109.752 34.8224H105.934V41.1525H109.752C110.475 41.1525 111.087 41.091 111.586 40.9558C112.085 40.8329 112.497 40.6363 112.809 40.3658C113.121 40.1077 113.345 39.7758 113.483 39.3702C113.632 38.9892 113.695 38.5221 113.695 37.9813Z" fill="white"/>
<path d="M130.24 32.3764L133.148 40.1569L136.292 32.3764H139.486L134.919 43.5862H131.501L128.531 36.0393L125.561 43.5862H122.142L117.563 32.3764H120.757L123.839 39.9971L126.809 32.3764H130.24Z" fill="white"/>
<path d="M150.167 41.4721H143.816L142.743 43.5985H139.312L145.264 32.3886H148.695L154.647 43.5985H151.228L150.167 41.4721ZM144.914 39.2842H149.069L146.998 35.1542L144.914 39.2842Z" fill="white"/>
<path d="M156.094 43.5985V32.3886H163.806C164.629 32.3886 165.341 32.4747 165.915 32.6468C166.488 32.8188 166.963 33.0524 167.325 33.3597C167.686 33.667 167.948 34.048 168.111 34.4782C168.273 34.9207 168.36 35.4001 168.36 35.9409C168.36 36.408 168.298 36.8259 168.161 37.1823C168.023 37.5388 167.849 37.8338 167.612 38.0919C167.387 38.35 167.112 38.559 166.813 38.731C166.513 38.9031 166.189 39.0506 165.852 39.1612L169.583 43.5985H165.989L162.545 39.4685H159.189V43.5985H156.094ZM165.253 35.9163C165.253 35.6951 165.228 35.5107 165.166 35.3632C165.103 35.2157 165.004 35.0928 164.866 34.9944C164.729 34.8961 164.529 34.8346 164.292 34.7855C164.055 34.7363 163.756 34.724 163.394 34.724H159.189V37.1209H163.394C163.756 37.1209 164.055 37.0963 164.292 37.0594C164.529 37.0102 164.729 36.9488 164.866 36.8505C165.004 36.7521 165.116 36.6292 165.166 36.4817C165.216 36.3219 165.253 36.1375 165.253 35.9163Z" fill="white"/>
<path d="M171.355 32.3886H182.884V34.7855H174.512V36.6292H182.448V39.026H174.512V41.2139H182.997V43.6108H171.355V32.3886Z" fill="white"/>
<path d="M11.7905 47.8383L0 43.7944V11.6399L11.7905 15.6838V47.8383Z" fill="white"/>
<path d="M35.3961 56.0005L23.5933 51.9566V19.802L35.3961 23.8459V56.0005Z" fill="white"/>
<path d="M23.5944 36.1984L11.7915 32.1545V0L23.5944 4.0439V36.1984Z" fill="#2A8FFF"/>
<path d="M47.1979 44.3606L35.395 40.3167V8.16211L47.1979 12.206V44.3606Z" fill="#2A8FFF"/>
</svg>
