<svg width="150" height="151" viewBox="0 0 150 151" fill="none" xmlns="http://www.w3.org/2000/svg">
<path d="M50.1484 88.5012L41.6736 76.6216L63.3601 45.5419L71.8291 57.4202L50.1484 88.5012Z" fill="#071EB5"/>
<path d="M67.0552 112.318L58.5804 100.438L80.2669 69.3587L88.7416 81.2383L67.0552 112.318Z" fill="#071EB5"/>
<path d="M69.2006 85.2151L60.7259 73.3355L82.4136 42.2499L90.8871 54.1353L69.2006 85.2151Z" fill="#3292FC"/>
<path d="M86.1132 109.033L77.6384 97.1535L99.3248 66.0738L107.8 77.9534L86.1132 109.033Z" fill="#3292FC"/>
<path d="M32.4745 137.732C-1.21864 114.203 -9.61221 67.302 13.7786 33.1873C37.1693 -0.927451 83.6087 -9.5281 117.302 14.0014C150.995 37.5308 159.389 84.4315 135.998 118.546C112.607 152.661 66.1677 161.262 32.4745 137.732ZM116.28 15.4769C83.4157 -7.48739 38.0718 0.93445 15.2587 34.2203C-7.55432 67.5062 0.625533 113.291 33.4958 136.232C66.3892 159.203 111.71 150.776 134.516 117.494C157.322 84.213 149.174 38.448 116.28 15.4769Z" fill="#071EB5"/>
<path d="M48.5726 114.784C27.4746 100.042 22.2259 70.6736 36.8583 49.3061C51.4906 27.9386 80.5967 22.5513 101.7 37.2703C122.804 51.9894 128.047 81.3812 113.415 102.749C98.7536 124.109 69.6748 129.509 48.5726 114.784ZM100.676 38.7574C80.3794 24.5923 52.407 29.7671 38.3254 50.3177C24.2437 70.8682 29.3029 99.1206 49.5767 113.28C69.8504 127.44 97.8457 122.271 111.927 101.72C126.009 81.1695 120.967 52.9457 100.676 38.7574Z" fill="#071EB5"/>
<path d="M129.075 46.0981L125.212 48.256L124.47 46.9169L128.334 44.759L127.169 42.6547L128.243 42.0545L131.317 47.6058L130.243 48.206L129.075 46.0981Z" fill="#071EB5"/>
<path d="M129.082 56.8905L131.279 56.0362L129.878 52.4003L127.68 53.2547L127.129 51.8257L132.399 49.7772L132.95 51.2061L131.032 51.9516L132.434 55.5874L134.351 54.8419L134.902 56.2709L129.632 58.3194L129.082 56.8905Z" fill="#071EB5"/>
<path d="M130.132 60.0702L135.635 58.7815L136.934 64.3763L135.76 64.6511L134.817 60.5888L133.908 60.8017L134.803 64.6549L133.629 64.9297L132.735 61.0765L131.661 61.3278L132.618 65.4465L131.444 65.7213L130.132 60.0702Z" fill="#071EB5"/>
<path d="M132.315 77.2946L136.282 77.1964L132.263 75.189L132.227 73.7191L136.143 71.5152L132.176 71.6134L132.138 70.0816L137.787 69.9417L137.838 72.0227L133.619 74.42L137.95 76.6056L138.001 78.6783L132.353 78.8182L132.315 77.2946Z" fill="#071EB5"/>
<path d="M132.652 84.9599L133.045 81.821L132.051 81.1583L132.263 79.4618L137.5 83.1169L137.288 84.8134L131.312 87.0508L131.525 85.3543L132.652 84.9599ZM134.07 82.5043L133.813 84.5613L136.006 83.7979L134.07 82.5043Z" fill="#071EB5"/>
<path d="M130.759 89.0366L131.14 87.5529L136.612 88.9704L135.656 92.6896C135.554 93.0895 135.426 93.4174 135.272 93.6733C135.118 93.932 134.943 94.1283 134.747 94.2624C134.551 94.3992 134.335 94.4784 134.1 94.5C133.867 94.5249 133.619 94.5034 133.356 94.4353C133.125 94.3755 132.932 94.2899 132.777 94.1785C132.621 94.0698 132.495 93.9433 132.399 93.799C132.304 93.6581 132.234 93.5033 132.187 93.3346C132.139 93.166 132.109 92.9931 132.095 92.8161L129.47 94.0555L129.916 92.3199L132.358 91.1782L132.774 89.5586L130.759 89.0366ZM133.749 92.9377C133.856 92.9652 133.95 92.9739 134.032 92.9638C134.113 92.9564 134.185 92.9239 134.248 92.8663C134.313 92.8093 134.372 92.725 134.423 92.6132C134.474 92.504 134.521 92.3628 134.566 92.1895L135.088 90.158L133.917 89.8547L133.395 91.8862C133.351 92.0595 133.324 92.2062 133.316 92.3264C133.307 92.4492 133.316 92.5511 133.344 92.6321C133.374 92.7138 133.423 92.7776 133.49 92.8235C133.557 92.8721 133.643 92.9102 133.749 92.9377Z" fill="#071EB5"/>
<path d="M131.921 97.3453L132.722 101.072L131.943 102.97L130.887 98.4006L126.622 101.044L127.47 98.9785L130.86 96.9063L128.689 96.0077L129.273 94.5834L134.497 96.7456L133.913 98.1699L131.921 97.3453Z" fill="#071EB5"/>
<path d="M122.676 112.858C122.274 112.585 121.968 112.27 121.759 111.912C121.552 111.555 121.438 111.169 121.417 110.753C121.396 110.336 121.465 109.895 121.623 109.428C121.783 108.964 122.027 108.487 122.357 107.997C122.687 107.506 123.038 107.098 123.409 106.771C123.781 106.449 124.164 106.219 124.558 106.081C124.952 105.942 125.353 105.902 125.761 105.959C126.171 106.018 126.578 106.184 126.98 106.457C127.382 106.73 127.686 107.045 127.891 107.404C128.099 107.764 128.213 108.154 128.232 108.572C128.252 108.991 128.181 109.433 128.02 109.898C127.86 110.368 127.615 110.848 127.285 111.339C126.955 111.829 126.605 112.235 126.234 112.555C125.865 112.878 125.483 113.108 125.091 113.244C124.699 113.38 124.298 113.418 123.889 113.356C123.483 113.297 123.078 113.13 122.676 112.858ZM123.539 111.574C123.714 111.693 123.907 111.782 124.118 111.842C124.33 111.906 124.554 111.913 124.789 111.863C125.023 111.816 125.265 111.698 125.517 111.51C125.77 111.322 126.024 111.038 126.28 110.657C126.452 110.401 126.582 110.163 126.672 109.941C126.764 109.721 126.822 109.516 126.847 109.327C126.871 109.138 126.868 108.963 126.837 108.802C126.808 108.643 126.759 108.498 126.688 108.367C126.62 108.238 126.535 108.12 126.433 108.015C126.333 107.914 126.226 107.824 126.112 107.747C125.996 107.669 125.872 107.601 125.738 107.544C125.603 107.489 125.462 107.453 125.314 107.436C125.169 107.42 125.018 107.429 124.86 107.462C124.703 107.494 124.541 107.557 124.376 107.651C124.212 107.746 124.045 107.877 123.874 108.043C123.705 108.211 123.534 108.423 123.362 108.678C123.106 109.059 122.938 109.403 122.859 109.707C122.78 110.012 122.762 110.283 122.805 110.518C122.847 110.756 122.936 110.961 123.072 111.133C123.209 111.308 123.364 111.455 123.539 111.574Z" fill="#071EB5"/>
<path d="M121.688 116.483L120.958 115.823L118.501 118.563L117.605 117.754L120.063 115.013L118.385 113.496L119.406 112.357L123.605 116.154L119.991 120.184L119.096 119.374L121.688 116.483Z" fill="#071EB5"/>
<path d="M108.212 126.356C108.027 126.11 107.885 125.86 107.788 125.606C107.689 125.357 107.63 125.105 107.611 124.85C107.217 124.966 106.874 125.085 106.581 125.207L106.407 123.941C106.636 123.875 106.87 123.809 107.11 123.745C107.35 123.68 107.595 123.619 107.843 123.562C107.99 123.227 108.201 122.899 108.476 122.58C108.752 122.261 109.086 121.952 109.48 121.654C109.951 121.297 110.414 121.025 110.871 120.838C111.327 120.654 111.764 120.561 112.181 120.559C112.599 120.557 112.991 120.649 113.358 120.836C113.727 121.026 114.058 121.315 114.35 121.704C114.643 122.093 114.828 122.491 114.907 122.897C114.987 123.305 114.968 123.71 114.852 124.113C114.735 124.515 114.525 124.91 114.223 125.298C113.919 125.69 113.533 126.064 113.062 126.421C112.592 126.778 112.129 127.047 111.675 127.229C111.221 127.415 110.786 127.508 110.371 127.508C109.956 127.509 109.565 127.414 109.198 127.223C108.833 127.034 108.504 126.745 108.212 126.356ZM109.443 125.423C109.57 125.592 109.724 125.74 109.904 125.865C110.083 125.995 110.293 126.074 110.531 126.104C110.768 126.135 111.035 126.103 111.334 126.007C111.634 125.912 111.966 125.725 112.331 125.448C112.576 125.263 112.777 125.08 112.933 124.899C113.091 124.721 113.213 124.546 113.297 124.375C113.382 124.204 113.435 124.038 113.458 123.876C113.482 123.716 113.482 123.563 113.457 123.416C113.434 123.271 113.392 123.132 113.33 123C113.268 122.871 113.195 122.752 113.113 122.642C113.029 122.53 112.933 122.425 112.825 122.327C112.715 122.231 112.593 122.151 112.459 122.087C112.327 122.025 112.181 121.984 112.021 121.964C111.861 121.943 111.688 121.95 111.501 121.985C111.316 122.022 111.116 122.091 110.9 122.192C110.686 122.296 110.456 122.441 110.211 122.626C110.08 122.726 109.961 122.824 109.856 122.921C109.75 123.019 109.655 123.118 109.57 123.221C109.759 123.188 109.943 123.159 110.123 123.133C110.302 123.111 110.474 123.093 110.638 123.079L110.754 124.248C110.518 124.258 110.256 124.284 109.968 124.326C109.681 124.368 109.384 124.421 109.077 124.484C109.083 124.666 109.12 124.833 109.186 124.986C109.255 125.141 109.34 125.287 109.443 125.423Z" fill="#071EB5"/>
<path d="M100.148 129.819C100.015 129.569 99.9505 129.301 99.9558 129.013C99.9612 128.726 100.043 128.434 100.201 128.136C100.36 127.838 100.598 127.541 100.916 127.245C101.233 126.953 101.637 126.674 102.13 126.409C102.623 126.143 103.081 125.958 103.504 125.852C103.925 125.75 104.303 125.715 104.638 125.747C104.972 125.78 105.26 125.873 105.501 126.028C105.742 126.182 105.93 126.384 106.063 126.634L107.833 129.95L106.492 130.672L104.98 127.84C104.891 127.673 104.786 127.525 104.664 127.397C104.542 127.272 104.393 127.185 104.217 127.136C104.039 127.088 103.828 127.088 103.582 127.136C103.335 127.185 103.042 127.3 102.704 127.482C102.368 127.663 102.112 127.843 101.937 128.022C101.762 128.2 101.646 128.377 101.589 128.551C101.531 128.726 101.52 128.899 101.558 129.069C101.597 129.242 101.662 129.412 101.751 129.579L103.263 132.411L101.918 133.135L100.148 129.819Z" fill="#071EB5"/>
<path d="M93.4686 131.554L96.4233 130.457L96.5502 129.266L98.1471 128.673L97.3329 135.025L95.736 135.618L91.0033 131.325L92.6003 130.732L93.4686 131.554ZM96.2924 131.686L94.3561 132.405L96.0419 134.007L96.2924 131.686Z" fill="#071EB5"/>
<path d="M90.5141 131.392L91.7766 136.924L90.2895 137.266L89.3035 132.946L85.283 133.872L85.0065 132.66L90.5141 131.392Z" fill="#071EB5"/>
<path d="M83.3725 132.871L84.0738 138.502L82.5599 138.692L81.8586 133.061L83.3725 132.871Z" fill="#071EB5"/>
<path d="M76.0504 137.908L75.9414 133.469L77.4667 133.431L77.5757 137.87L79.9725 137.811L80.0028 139.045L73.6798 139.202L73.6495 137.967L76.0504 137.908Z" fill="#071EB5"/>
<path d="M68.0774 135.394L68.3155 133.089L69.829 133.247L69.5909 135.551L71.9701 139.175L70.2685 138.998L68.7197 136.54L66.7097 138.627L65.0081 138.45L68.0774 135.394Z" fill="#071EB5"/>
<path d="M54.8247 135.833L54.68 131.637L51.9691 134.889L50.4652 134.392L54.3878 129.714L55.9973 130.246L56.2118 134.335L58.7981 131.172L60.4075 131.704L60.8014 137.808L59.2935 137.31L59.0411 133.165L56.438 136.366L54.8247 135.833Z" fill="#071EB5"/>
<path d="M43.0762 127.282C43.3062 126.853 43.588 126.516 43.9216 126.271C44.2539 126.029 44.6253 125.876 45.0356 125.813C45.446 125.75 45.8905 125.775 46.3692 125.887C46.8442 126 47.3413 126.196 47.8603 126.477C48.3794 126.758 48.819 127.067 49.1793 127.406C49.5359 127.745 49.8024 128.105 49.9787 128.485C50.155 128.865 50.2351 129.261 50.219 129.675C50.2016 130.091 50.078 130.513 49.848 130.942C49.618 131.371 49.3357 131.707 49.0009 131.948C48.6649 132.191 48.2905 132.344 47.8777 132.405C47.4649 132.467 47.0198 132.44 46.5424 132.326C46.0613 132.213 45.5612 132.016 45.0421 131.736C44.5231 131.455 44.0865 131.146 43.7323 130.807C43.3744 130.47 43.1085 130.112 42.9346 129.734C42.7607 129.355 42.6837 128.959 42.7035 128.544C42.722 128.132 42.8462 127.711 43.0762 127.282ZM44.4342 128.016C44.3341 128.203 44.2649 128.405 44.2265 128.622C44.1844 128.84 44.1998 129.064 44.2726 129.294C44.343 129.523 44.4839 129.753 44.6953 129.986C44.9066 130.22 45.2139 130.445 45.6171 130.663C45.8875 130.809 46.1369 130.916 46.3655 130.983C46.5928 131.053 46.8015 131.09 46.9914 131.096C47.1814 131.102 47.3543 131.081 47.5103 131.034C47.665 130.99 47.8037 130.926 47.9264 130.842C48.0478 130.76 48.1556 130.664 48.2497 130.552C48.3401 130.442 48.4178 130.326 48.4828 130.204C48.549 130.081 48.6039 129.949 48.6473 129.81C48.6883 129.67 48.7098 129.525 48.7118 129.376C48.7125 129.23 48.6888 129.079 48.6407 128.925C48.5926 128.771 48.5138 128.616 48.4044 128.46C48.2937 128.306 48.1475 128.152 47.9656 127.997C47.7825 127.845 47.5558 127.696 47.2854 127.55C46.8822 127.332 46.5256 127.199 46.2155 127.15C45.9053 127.101 45.6358 127.11 45.4069 127.177C45.1755 127.243 44.9815 127.352 44.8248 127.505C44.6644 127.659 44.5342 127.829 44.4342 128.016Z" fill="#071EB5"/>
<path d="M41.9834 123.038L43.2117 123.947L39.8597 128.516L36.7807 126.237C36.4497 125.992 36.1946 125.75 36.0155 125.512C35.8341 125.272 35.7181 125.035 35.6673 124.803C35.6144 124.569 35.6217 124.338 35.6895 124.111C35.7534 123.885 35.8658 123.662 36.0268 123.443C36.1683 123.25 36.3195 123.102 36.4804 122.998C36.6391 122.894 36.803 122.823 36.9722 122.788C37.1375 122.753 37.3068 122.745 37.4803 122.764C37.6537 122.783 37.8248 122.819 37.9936 122.872L37.8285 119.964L39.2653 121.027L39.4081 123.729L40.749 124.721L41.9834 123.038ZM37.2635 124.368C37.1984 124.457 37.1552 124.541 37.134 124.621C37.1105 124.699 37.1137 124.779 37.1434 124.859C37.1715 124.941 37.2276 125.027 37.3117 125.117C37.3936 125.205 37.5063 125.302 37.6497 125.408L39.3316 126.653L40.0488 125.675L38.367 124.43C38.2235 124.324 38.0978 124.245 37.9899 124.192C37.8798 124.138 37.7822 124.109 37.6972 124.104C37.6105 124.102 37.5334 124.123 37.4658 124.169C37.396 124.213 37.3285 124.279 37.2635 124.368Z" fill="#071EB5"/>
<path d="M33.8925 121.034L30.1517 120.384L28.6914 118.948L33.3054 119.677L32.4625 114.715L34.0521 116.278L34.6952 120.211L36.3381 118.526L37.4341 119.604L33.4808 123.658L32.3848 122.58L33.8925 121.034Z" fill="#071EB5"/>
<path d="M27.5451 113.371C27.4122 113.468 27.2686 113.535 27.114 113.57C26.9573 113.606 26.8031 113.614 26.6515 113.592C26.4982 113.568 26.3533 113.516 26.2167 113.435C26.0762 113.354 25.9566 113.246 25.858 113.11C25.7593 112.975 25.6937 112.828 25.6611 112.672C25.6246 112.514 25.6184 112.359 25.6422 112.205C25.666 112.051 25.7191 111.904 25.8015 111.766C25.88 111.626 25.9857 111.508 26.1185 111.41C26.2535 111.311 26.4002 111.244 26.5586 111.21C26.7131 111.175 26.867 111.17 27.0202 111.193C27.1712 111.219 27.3159 111.273 27.4542 111.356C27.5908 111.436 27.7084 111.544 27.8071 111.68C27.9058 111.816 27.9733 111.962 28.0097 112.12C28.0446 112.275 28.0511 112.428 28.0295 112.581C28.004 112.732 27.9512 112.877 27.8711 113.014C27.7888 113.153 27.6801 113.272 27.5451 113.371Z" fill="#071EB5"/>
<path d="M20.0273 104.251L23.9474 102.198L24.6527 103.557L20.7326 105.61L21.841 107.745L20.7506 108.316L17.8267 102.683L18.917 102.112L20.0273 104.251Z" fill="#071EB5"/>
<path d="M20.2616 93.3069L18.0391 94.0936L19.3295 97.7706L21.552 96.984L22.0591 98.4292L16.7299 100.315L16.2228 98.8703L18.1621 98.1839L16.8717 94.5068L14.9324 95.1932L14.4252 93.748L19.7545 91.8618L20.2616 93.3069Z" fill="#071EB5"/>
<path d="M19.3175 90.1621L13.7786 91.2843L12.6474 85.6528L13.8286 85.4135L14.6499 89.5025L15.565 89.3171L14.786 85.4386L15.9671 85.1993L16.7462 89.0778L17.8266 88.8589L16.9938 84.7133L18.175 84.474L19.3175 90.1621Z" fill="#071EB5"/>
<path d="M17.6315 72.8948L13.6631 72.876L17.6216 75.0011L17.6147 76.4714L13.6364 78.5589L17.6048 78.5777L17.5976 80.11L11.9472 80.0832L11.957 78.0016L16.2446 75.7298L11.9785 73.4173L11.9883 71.3441L17.6387 71.3709L17.6315 72.8948Z" fill="#071EB5"/>
<path d="M17.485 65.3699L17.0007 68.4959L17.9757 69.1874L17.714 70.8769L12.5852 67.0703L12.8469 65.3808L18.8848 63.319L18.6231 65.0085L17.485 65.3699ZM15.9958 67.7829L16.3131 65.7343L14.0989 66.4333L15.9958 67.7829Z" fill="#071EB5"/>
<path d="M19.4951 61.2543L19.0712 62.7263L13.6432 61.1496L14.7058 57.4599C14.8201 57.0631 14.9576 56.7391 15.1185 56.4877C15.2801 56.2337 15.4607 56.0426 15.6604 55.9142C15.8608 55.7833 16.0787 55.7104 16.3141 55.6957C16.5476 55.6775 16.7948 55.7063 17.0555 55.7821C17.2846 55.8486 17.4753 55.9398 17.6274 56.0557C17.7803 56.1689 17.9027 56.299 17.9945 56.446C18.0844 56.5897 18.1505 56.7465 18.1929 56.9164C18.2353 57.0864 18.2609 57.26 18.2698 57.4375L20.9291 56.2752L20.4332 57.9971L17.9589 59.0669L17.4962 60.6737L19.4951 61.2543ZM16.6191 57.2676C16.5138 57.237 16.4201 57.2255 16.3379 57.2332C16.2566 57.2382 16.1836 57.2686 16.119 57.3244C16.0518 57.3794 15.9909 57.462 15.9363 57.5723C15.8825 57.6799 15.8308 57.8196 15.7813 57.9916L15.2009 60.007L16.3624 60.3444L16.9428 58.3289C16.9923 58.157 17.0229 58.0111 17.0346 57.8913C17.047 57.7688 17.0408 57.6666 17.0158 57.5848C16.9882 57.5023 16.9413 57.4371 16.8752 57.3892C16.8098 57.3387 16.7245 57.2982 16.6191 57.2676Z" fill="#071EB5"/>
<path d="M18.5532 52.9249L17.8607 49.1763L18.6945 47.3022L19.6171 51.9005L23.9575 49.3833L23.0499 51.4233L19.6008 53.395L21.7447 54.357L21.119 55.7635L15.96 53.4486L16.5858 52.0421L18.5532 52.9249Z" fill="#071EB5"/>
<path d="M28.2484 37.6465C28.6423 37.9312 28.9385 38.2555 29.137 38.6195C29.3334 38.9819 29.4359 39.3715 29.4446 39.7883C29.4533 40.205 29.3714 40.6445 29.199 41.1067C29.0259 41.5651 28.7672 42.0345 28.4229 42.515C28.0785 42.9955 27.7159 43.3932 27.3349 43.708C26.9532 44.0191 26.5634 44.2377 26.1656 44.364C25.7677 44.4903 25.3657 44.5186 24.9596 44.449C24.5513 44.3778 24.1502 44.1998 23.7563 43.9151C23.3624 43.6305 23.0681 43.3058 22.8734 42.9412C22.6765 42.575 22.5744 42.1823 22.5673 41.7633C22.5602 41.3443 22.644 40.9045 22.8187 40.4439C22.9927 39.9795 23.2519 39.507 23.5963 39.0265C23.9406 38.5461 24.3028 38.1514 24.6828 37.8426C25.0622 37.53 25.4501 37.3116 25.8463 37.1876C26.2426 37.0635 26.6441 37.0382 27.0509 37.1117C27.4554 37.1836 27.8545 37.3619 28.2484 37.6465ZM27.3476 38.9036C27.1762 38.7798 26.986 38.6847 26.7768 38.6183C26.5671 38.5481 26.3438 38.5343 26.1072 38.577C25.8722 38.6175 25.6259 38.7278 25.3684 38.908C25.1109 39.0883 24.8484 39.365 24.5809 39.7382C24.4016 39.9885 24.2639 40.2231 24.1678 40.442C24.0695 40.6593 24.0052 40.8622 23.9749 41.0506C23.9446 41.239 23.9425 41.4139 23.9687 41.5753C23.9927 41.7351 24.0381 41.8816 24.1048 42.0147C24.1694 42.1461 24.2507 42.2659 24.3488 42.3742C24.4463 42.4785 24.5506 42.5709 24.6619 42.6513C24.7754 42.7334 24.898 42.805 25.0297 42.8663C25.1631 42.9254 25.3032 42.9656 25.45 42.9869C25.5946 43.0066 25.7462 43.0025 25.9047 42.9746C26.0632 42.9467 26.2266 42.8884 26.3948 42.7997C26.5609 42.7094 26.732 42.5837 26.9082 42.4227C27.0822 42.2601 27.2588 42.0536 27.4382 41.8033C27.7056 41.4301 27.8835 41.0923 27.9719 40.7898C28.0603 40.4873 28.0863 40.2178 28.0499 39.9811C28.015 39.7422 27.9323 39.5348 27.8016 39.3589C27.6703 39.1792 27.5189 39.0274 27.3476 38.9036Z" fill="#071EB5"/>
<path d="M29.278 34.0966L29.9881 34.7791L32.5273 32.1146L33.3978 32.9513L30.8586 35.6158L32.4896 37.1836L31.4347 38.2905L27.3526 34.3668L31.0861 30.4492L31.9566 31.2859L29.278 34.0966Z" fill="#071EB5"/>
<path d="M43.1982 24.48C43.3755 24.7318 43.5091 24.9859 43.5991 25.2424C43.6897 25.495 43.7408 25.7488 43.7523 26.0036C44.1496 25.9002 44.4966 25.792 44.7932 25.6791L44.9273 26.9497C44.6969 27.0088 44.4608 27.0669 44.219 27.124C43.9771 27.1811 43.731 27.2345 43.4806 27.2842C43.3238 27.6148 43.1029 27.9353 42.8178 28.2457C42.5327 28.5561 42.1887 28.8544 41.7858 29.1406C41.3046 29.4824 40.8328 29.7399 40.3705 29.9132C39.9089 30.0826 39.4695 30.162 39.0523 30.1514C38.6352 30.1408 38.2459 30.0362 37.8844 29.8377C37.5214 29.6369 37.1998 29.3375 36.9195 28.9397C36.6393 28.5418 36.4662 28.1386 36.4002 27.7302C36.3327 27.3196 36.3634 26.915 36.4924 26.5164C36.6214 26.1179 36.8432 25.7294 37.1576 25.351C37.4726 24.9687 37.8708 24.6066 38.352 24.2648C38.8333 23.9229 39.3036 23.6681 39.763 23.5003C40.2231 23.3287 40.6606 23.2489 41.0755 23.2611C41.4904 23.2733 41.8782 23.3806 42.239 23.583C42.5982 23.7831 42.918 24.0821 43.1982 24.48ZM41.9391 25.3743C41.8172 25.2012 41.6681 25.0491 41.4918 24.918C41.3162 24.7831 41.1096 24.6972 40.872 24.6602C40.6367 24.6216 40.368 24.6455 40.0661 24.7318C39.7642 24.8181 39.4264 24.994 39.0526 25.2595C38.8019 25.4376 38.5956 25.6144 38.4339 25.79C38.2705 25.9634 38.144 26.1342 38.0543 26.3024C37.9646 26.4707 37.906 26.6354 37.8785 26.7966C37.8494 26.9555 37.8448 27.1088 37.8649 27.2565C37.8833 27.4019 37.9214 27.5418 37.9791 27.6762C38.0374 27.8067 38.1062 27.9282 38.1853 28.0406C38.2661 28.1552 38.3588 28.263 38.4635 28.364C38.5705 28.4634 38.6899 28.5472 38.8218 28.6154C38.9522 28.6813 39.0969 28.7269 39.2558 28.7523C39.4147 28.7777 39.5881 28.776 39.7759 28.7471C39.9622 28.7159 40.1647 28.653 40.3835 28.5584C40.6007 28.4614 40.8346 28.3239 41.0853 28.1459C41.2196 28.0505 41.341 27.9558 41.4495 27.8619C41.5579 27.768 41.6561 27.6713 41.7439 27.5719C41.5544 27.5985 41.3695 27.622 41.189 27.6422C41.0091 27.6587 40.8368 27.6715 40.672 27.6806L40.5919 26.5083C40.8284 26.5056 41.0911 26.4876 41.38 26.4544C41.6689 26.4211 41.9674 26.3777 42.2755 26.3241C42.2751 26.1423 42.2439 25.974 42.1818 25.8191C42.1181 25.662 42.0372 25.5137 41.9391 25.3743Z" fill="#071EB5"/>
<path d="M50.9909 21.4305C51.1176 21.6839 51.1744 21.9541 51.1613 22.2411C51.1483 22.528 51.0586 22.8181 50.8923 23.1114C50.726 23.4047 50.48 23.6951 50.1543 23.9825C49.8298 24.2662 49.4176 24.5341 48.9178 24.786C48.4179 25.038 47.9553 25.2111 47.53 25.3053C47.1059 25.3959 46.7271 25.4205 46.3935 25.3791C46.06 25.3378 45.7748 25.2366 45.5379 25.0757C45.301 24.9147 45.1192 24.7075 44.9925 24.4541L43.3119 21.0914L44.6719 20.4059L46.1071 23.2776C46.192 23.4474 46.2933 23.5981 46.4112 23.7297C46.5304 23.8576 46.677 23.9485 46.8512 24.0024C47.0279 24.055 47.2394 24.0609 47.4858 24.0199C47.7346 23.9776 48.0305 23.87 48.3736 23.6971C48.7142 23.5254 48.9744 23.3526 49.1544 23.1787C49.3344 23.0048 49.4549 22.8317 49.5159 22.6592C49.5794 22.4855 49.5945 22.313 49.5611 22.1419C49.5265 21.9684 49.4668 21.7967 49.3819 21.6269L47.9467 18.7551L49.3103 18.0678L50.9909 21.4305Z" fill="#071EB5"/>
<path d="M57.916 19.7827L54.9294 20.7887L54.7665 21.9762L53.1523 22.5199L54.1588 16.1955L55.7729 15.6518L60.3732 20.0876L58.759 20.6313L57.916 19.7827ZM55.0975 19.5646L57.0548 18.9053L55.4183 17.2523L55.0975 19.5646Z" fill="#071EB5"/>
<path d="M60.9461 19.9958L59.8495 14.429L61.3462 14.1317L62.2026 18.479L66.2489 17.675L66.4892 18.8945L60.9461 19.9958Z" fill="#071EB5"/>
<path d="M67.9993 18.7376L67.4646 13.0884L68.9835 12.9434L69.5181 18.5927L67.9993 18.7376Z" fill="#071EB5"/>
<path d="M75.6938 13.9048L75.6567 18.3444L74.131 18.3316L74.1681 13.8919L71.7707 13.8717L71.781 12.6369L78.1057 12.6902L78.0954 13.925L75.6938 13.9048Z" fill="#071EB5"/>
<path d="M83.364 16.6271L83.0592 18.9237L81.5509 18.7218L81.8558 16.4252L79.5826 12.7334L81.2784 12.9604L82.7552 15.4623L84.8249 13.4352L86.5207 13.6622L83.364 16.6271Z" fill="#071EB5"/>
<path d="M96.7065 16.5667L96.7294 20.7649L99.5334 17.5936L101.022 18.1345L96.9656 22.6953L95.3723 22.1165L95.2765 18.0236L92.5995 21.1092L91.0062 20.5304L90.7897 14.4172L92.2824 14.9595L92.4145 19.1096L95.1094 15.9865L96.7065 16.5667Z" fill="#071EB5"/>
<path d="M108.191 25.4352C107.948 25.8573 107.657 26.1859 107.316 26.4208C106.977 26.6533 106.601 26.7948 106.189 26.8453C105.777 26.8959 105.333 26.8582 104.858 26.7322C104.387 26.6052 103.896 26.3938 103.385 26.098C102.875 25.8022 102.444 25.4797 102.094 25.1306C101.748 24.7804 101.492 24.4129 101.327 24.028C101.162 23.6431 101.093 23.2443 101.122 22.8315C101.151 22.4164 101.287 21.9977 101.53 21.5756C101.772 21.1535 102.064 20.8268 102.406 20.5957C102.749 20.3621 103.128 20.2208 103.542 20.1716C103.957 20.1225 104.401 20.1621 104.875 20.2904C105.352 20.4178 105.846 20.6293 106.357 20.9252C106.867 21.221 107.295 21.5433 107.639 21.8921C107.987 22.2398 108.242 22.6054 108.405 22.989C108.567 23.3725 108.633 23.7711 108.601 24.1849C108.57 24.5963 108.433 25.0131 108.191 25.4352ZM106.855 24.6612C106.961 24.4776 107.036 24.2779 107.08 24.0623C107.129 23.8456 107.12 23.6212 107.054 23.389C106.991 23.1583 106.856 22.9232 106.652 22.684C106.448 22.4448 106.147 22.2103 105.751 21.9805C105.485 21.8264 105.238 21.7123 105.012 21.6383C104.787 21.5619 104.579 21.518 104.39 21.5066C104.2 21.4952 104.026 21.5107 103.869 21.5531C103.713 21.5931 103.573 21.6531 103.448 21.7332C103.324 21.8109 103.213 21.9042 103.116 22.013C103.022 22.1209 102.941 22.2345 102.873 22.3537C102.803 22.4753 102.744 22.605 102.697 22.7428C102.651 22.882 102.626 23.026 102.619 23.1749C102.614 23.3213 102.634 23.4724 102.677 23.6279C102.721 23.7835 102.795 23.9409 102.9 24.1002C103.006 24.257 103.147 24.4154 103.325 24.5753C103.503 24.7328 103.725 24.8886 103.991 25.0427C104.388 25.2725 104.741 25.4164 105.049 25.4743C105.358 25.5323 105.627 25.5312 105.858 25.4711C106.091 25.4123 106.288 25.3088 106.45 25.1605C106.614 25.0113 106.75 24.8449 106.855 24.6612Z" fill="#071EB5"/>
<path d="M109.26 29.7673L108.059 28.8217L111.546 24.3565L114.556 26.7269C114.879 26.9818 115.127 27.2312 115.299 27.475C115.473 27.7206 115.582 27.9604 115.626 28.1943C115.672 28.43 115.657 28.6602 115.583 28.8849C115.512 29.1092 115.393 29.3286 115.226 29.5431C115.079 29.7316 114.923 29.875 114.759 29.9733C114.597 30.0734 114.431 30.1386 114.261 30.1691C114.095 30.1991 113.925 30.202 113.753 30.1779C113.58 30.1538 113.41 30.1126 113.243 30.0545L113.321 32.966L111.916 31.8599L111.854 29.1552L110.544 28.1229L109.26 29.7673ZM114.017 28.5808C114.085 28.4941 114.131 28.4111 114.154 28.3318C114.18 28.2541 114.179 28.1748 114.152 28.0938C114.126 28.0106 114.073 27.923 113.992 27.8309C113.912 27.7405 113.803 27.64 113.662 27.5296L112.018 26.2348L111.272 27.1902L112.916 28.485C113.056 28.5955 113.18 28.6786 113.286 28.7343C113.394 28.7917 113.491 28.8241 113.576 28.8315C113.662 28.8367 113.74 28.8174 113.809 28.7737C113.88 28.7318 113.95 28.6675 114.017 28.5808Z" fill="#071EB5"/>
<path d="M117.315 32.0376L121.035 32.8016L122.451 34.2818L117.861 33.4126L118.553 38.398L117.011 36.7868L116.488 32.8359L114.795 34.4697L113.732 33.3588L117.807 29.4273L118.869 30.5382L117.315 32.0376Z" fill="#071EB5"/>
<path d="M122.423 39.3286C122.558 39.2348 122.704 39.1725 122.859 39.1418C123.017 39.1094 123.171 39.1062 123.322 39.132C123.474 39.1601 123.618 39.2163 123.752 39.3004C123.891 39.3852 124.007 39.4968 124.102 39.635C124.197 39.7733 124.259 39.9212 124.287 40.0788C124.319 40.2372 124.322 40.3929 124.294 40.5461C124.266 40.6993 124.209 40.8442 124.123 40.9808C124.04 41.1181 123.932 41.2336 123.796 41.3274C123.658 41.4228 123.51 41.4855 123.351 41.5156C123.195 41.5464 123.041 41.5477 122.889 41.5196C122.739 41.4899 122.595 41.4319 122.459 41.3455C122.325 41.2613 122.21 41.1502 122.115 41.0119C122.02 40.8737 121.957 40.7254 121.925 40.567C121.894 40.411 121.892 40.2571 121.917 40.1055C121.947 39.9545 122.003 39.8116 122.087 39.6766C122.173 39.54 122.285 39.424 122.423 39.3286Z" fill="#071EB5"/>
</svg>
