<svg width="153" height="153" viewBox="0 0 153 153" fill="none" xmlns="http://www.w3.org/2000/svg">
<g clip-path="url(#clip0_909_372)">
<path d="M48.8649 147.574C9.62124 132.277 -9.87001 87.8924 5.42541 48.6436C20.7208 9.39482 65.0961 -10.0758 104.343 5.22159C143.59 20.519 163.081 64.9 147.783 104.152C132.484 143.404 88.1119 162.871 48.8649 147.574ZM103.672 6.92131C65.3837 -8.01565 22.0632 11.0218 7.15135 49.3149C-7.76052 87.608 11.2513 130.934 49.5361 145.848C87.8474 160.785 131.145 141.747 146.057 103.458C160.969 65.1678 141.98 21.8616 103.672 6.92131Z" fill="black"/>
<path d="M58.4666 123.517C32.5477 113.405 19.6792 84.0928 29.767 58.1739C39.8549 32.2549 69.186 19.3814 95.1016 29.4706C121.017 39.5597 133.889 68.8946 123.801 94.8136C113.687 120.736 84.3822 133.609 58.4666 123.517ZM94.3973 31.2662C69.467 21.554 41.2733 33.9216 31.5657 58.8551C21.8581 83.7886 34.2472 111.986 59.151 121.695C84.0549 131.404 112.275 119.039 121.983 94.1059C131.69 69.1757 119.328 41.0048 94.3973 31.2662Z" fill="black"/>
<path d="M24.2255 114.43L28.8346 111.03L30.0084 112.621L25.3993 116.02L27.2443 118.52L25.9614 119.466L21.0977 112.872L22.3805 111.926L24.2255 114.43Z" fill="black"/>
<path d="M23.2138 101.44L20.4992 102.836L22.8005 107.31L25.5151 105.911L26.421 107.67L19.914 111.02L19.0081 109.264L21.3754 108.044L19.0742 103.573L16.7068 104.794L15.8008 103.034L22.3078 99.6812L23.2138 101.44Z" fill="black"/>
<path d="M18.8592 90.1409C19.2262 90.6567 19.537 91.1891 19.7949 91.7348C20.0528 92.2804 20.2744 92.8558 20.4562 93.451C20.691 94.2149 20.8166 94.9225 20.8331 95.5674C20.8497 96.2155 20.767 96.7876 20.5785 97.2902C20.3901 97.7929 20.1024 98.2228 19.7189 98.5733C19.332 98.9238 18.8526 99.1884 18.2839 99.3636C17.7549 99.5257 17.2292 99.5686 16.7101 99.4893C16.191 99.4132 15.7049 99.228 15.2486 98.9337C14.7923 98.6394 14.3857 98.2426 14.0253 97.74C13.6649 97.2373 13.3805 96.6421 13.1689 95.951C12.9738 95.3161 12.8812 94.7076 12.8912 94.1256C12.9011 93.5436 13.0168 93.0145 13.235 92.5317C13.4566 92.0489 13.7806 91.6289 14.2104 91.2685C14.6402 90.9081 15.1759 90.6303 15.8173 90.4352L16.2868 90.293L18.393 97.1976C18.5947 97.0687 18.7666 96.9067 18.9055 96.7082C19.0444 96.5098 19.1436 96.2717 19.1998 95.9907C19.256 95.7096 19.2659 95.3822 19.2295 95.0085C19.1932 94.6349 19.1006 94.205 18.9518 93.7156C18.846 93.3683 18.7203 93.0343 18.5782 92.7169C18.4327 92.3961 18.2839 92.1018 18.1252 91.8373C17.9665 91.5694 17.8111 91.3313 17.6524 91.1263C17.497 90.9213 17.3548 90.7592 17.2259 90.6402L18.8592 90.1409ZM15.4735 92.6045C15.3048 92.6739 15.1428 92.7797 14.9841 92.9252C14.8254 93.0674 14.6998 93.2559 14.6072 93.4874C14.5146 93.7189 14.4683 94.0032 14.4617 94.3339C14.4584 94.6646 14.5245 95.0581 14.6634 95.5112C14.7923 95.9344 14.9577 96.285 15.1594 96.5627C15.3577 96.8405 15.5693 97.0588 15.7909 97.2208C16.0124 97.3828 16.2273 97.492 16.4455 97.5548C16.6638 97.6176 16.8489 97.6375 17.0142 97.6275L15.4735 92.6045Z" fill="black"/>
<path d="M13.9823 75.2999C14.4518 75.2735 14.8684 75.3032 15.2387 75.3859C15.6091 75.4686 15.9331 75.5975 16.2108 75.7695C16.4886 75.9414 16.7299 76.1531 16.9316 76.4044C17.1333 76.6557 17.2986 76.9368 17.4309 77.2509C17.5631 77.5651 17.6623 77.9024 17.7351 78.2694C17.8078 78.6365 17.8541 79.0201 17.8739 79.4202L18.1219 84.0597L10.8115 84.4532L10.5635 79.8237C10.5436 79.4235 10.547 79.0366 10.58 78.6663C10.6131 78.2959 10.6759 77.9454 10.7718 77.618C10.8677 77.2906 11.0032 76.9897 11.1752 76.7185C11.3471 76.4474 11.562 76.2093 11.8265 76.0076C12.0877 75.8059 12.3952 75.6471 12.7523 75.5215C13.1061 75.3991 13.5194 75.3264 13.9823 75.2999ZM14.0881 77.2906C13.7376 77.3105 13.4334 77.37 13.1788 77.4758C12.9243 77.5816 12.7193 77.737 12.5606 77.9454C12.4018 78.1537 12.2894 78.4249 12.2233 78.7489C12.1572 79.073 12.1373 79.4731 12.1605 79.9361L12.2927 82.3898L16.4224 82.1682L16.2902 79.7145C16.2637 79.2516 16.2009 78.8581 16.1017 78.5406C16.0025 78.2231 15.8603 77.9685 15.6752 77.7767C15.4933 77.5849 15.2685 77.4527 15.004 77.3766C14.7395 77.3005 14.4419 77.2741 14.0881 77.2906Z" fill="black"/>
<path d="M15.2916 63.7556C15.9165 63.8349 16.4522 64.0201 16.8985 64.3111C17.3482 64.6021 17.7053 64.9791 17.9698 65.4454C18.2343 65.9116 18.4129 66.4606 18.4988 67.0889C18.5848 67.7172 18.5815 68.4116 18.4856 69.1689C18.3897 69.9261 18.2211 70.6007 17.9764 71.1893C17.7351 71.7813 17.4276 72.2707 17.0506 72.6576C16.677 73.0478 16.2339 73.3289 15.7281 73.4975C15.2222 73.6695 14.6568 73.7158 14.0319 73.6364C13.407 73.557 12.8713 73.3718 12.425 73.0775C11.9786 72.7832 11.6215 72.4029 11.3537 71.9301C11.0892 71.4605 10.9139 70.9083 10.8247 70.2767C10.7387 69.645 10.7453 68.9506 10.8412 68.1933C10.9371 67.4361 11.1057 66.7648 11.3471 66.1762C11.5884 65.5876 11.8959 65.1015 12.2729 64.7179C12.6498 64.3343 13.0896 64.0565 13.5954 63.8878C14.1013 63.7225 14.6667 63.6762 15.2916 63.7556ZM15.0403 65.7397C14.7692 65.7066 14.4915 65.7132 14.2137 65.7661C13.9327 65.819 13.6715 65.9414 13.4268 66.1332C13.1854 66.325 12.9705 66.6061 12.7887 66.9665C12.6068 67.3303 12.4779 67.8064 12.4018 68.3951C12.3522 68.7886 12.339 69.1391 12.3621 69.4466C12.3853 69.7542 12.4382 70.0253 12.5209 70.2568C12.6035 70.4883 12.706 70.69 12.835 70.8553C12.9606 71.0207 13.1028 71.1596 13.2615 71.2687C13.4202 71.3778 13.5855 71.4638 13.7608 71.5233C13.936 71.5828 14.1145 71.6258 14.2898 71.649C14.4683 71.6721 14.6535 71.6754 14.8419 71.6622C15.0304 71.649 15.2123 71.6093 15.3908 71.5432C15.5694 71.477 15.7413 71.3778 15.9033 71.2489C16.0686 71.1199 16.2174 70.9512 16.353 70.7462C16.4885 70.5412 16.6076 70.2932 16.7068 70.0022C16.806 69.7112 16.882 69.3673 16.9316 68.9738C17.0076 68.3851 17.001 67.8924 16.9151 67.4956C16.8291 67.0988 16.6935 66.7747 16.5084 66.5267C16.3232 66.2787 16.0984 66.0968 15.8405 65.9745C15.5826 65.8521 15.3115 65.7727 15.0403 65.7397Z" fill="black"/>
<path d="M18.6972 52.6348C19.2957 52.8266 19.7883 53.1077 20.1752 53.4748C20.562 53.8418 20.8464 54.2783 21.0216 54.7876C21.1969 55.2968 21.2729 55.8656 21.2432 56.5005C21.2134 57.1354 21.0812 57.8133 20.8497 58.5408C20.6149 59.2684 20.3273 59.9 19.9834 60.4357C19.6396 60.9714 19.2461 61.3979 18.8063 61.7121C18.3666 62.0262 17.8806 62.2214 17.3515 62.2974C16.8225 62.3735 16.2571 62.3172 15.6587 62.1255C15.0602 61.9337 14.5675 61.6526 14.1807 61.2822C13.7938 60.9118 13.5128 60.472 13.3376 59.9595C13.1623 59.4469 13.0896 58.8748 13.1193 58.2366C13.1491 57.5984 13.2813 56.9172 13.5161 56.1897C13.7509 55.4622 14.0385 54.8339 14.3824 54.2982C14.7262 53.7658 15.1197 53.3425 15.5562 53.0317C15.9959 52.7208 16.4786 52.529 17.0077 52.4563C17.5367 52.3835 18.0988 52.443 18.6972 52.6348ZM18.0889 54.5363C17.8277 54.4536 17.5565 54.4106 17.2689 54.4106C16.9845 54.4106 16.7035 54.4834 16.429 54.6289C16.1546 54.7744 15.8934 55.0092 15.6487 55.3332C15.4041 55.6573 15.1891 56.1004 15.0073 56.6659C14.885 57.0462 14.8089 57.3868 14.7758 57.6943C14.7428 58.0018 14.7461 58.2763 14.7825 58.5177C14.8188 58.7591 14.885 58.9774 14.9808 59.1625C15.0767 59.351 15.1891 59.5098 15.3247 59.6486C15.457 59.7842 15.6057 59.9 15.7678 59.9892C15.9298 60.0818 16.0984 60.1546 16.267 60.2075C16.439 60.2637 16.6208 60.3001 16.806 60.3232C16.9944 60.3431 17.1796 60.3398 17.3681 60.3067C17.5565 60.2736 17.7417 60.2075 17.9268 60.1116C18.112 60.0157 18.2872 59.8768 18.4592 59.7015C18.6311 59.5263 18.7898 59.3014 18.9419 59.0336C19.094 58.7657 19.2296 58.4416 19.3519 58.0614C19.5338 57.4959 19.6164 57.0098 19.6065 56.603C19.5966 56.1963 19.5205 55.8557 19.3817 55.5779C19.2428 55.3002 19.0576 55.0786 18.8262 54.9133C18.5947 54.7446 18.3468 54.6223 18.0889 54.5363Z" fill="black"/>
<path d="M20.7208 44.0138C20.648 44.0898 20.5687 44.1824 20.4794 44.2882C20.3901 44.3941 20.3009 44.5164 20.2116 44.652C20.119 44.7876 20.0363 44.9298 19.957 45.0819C19.7983 45.3993 19.6859 45.7135 19.6264 46.0276C19.5668 46.3418 19.5404 46.6493 19.547 46.9502C19.5569 47.2545 19.59 47.5488 19.6495 47.8332C19.709 48.1209 19.7818 48.392 19.8677 48.65L23.8023 50.6341L22.9129 52.3999L16.3762 49.1063L17.2656 47.3405L18.3269 47.8762C18.274 47.5852 18.2311 47.2875 18.198 46.9899C18.1649 46.6923 18.1517 46.3914 18.1583 46.0938C18.1649 45.7929 18.2046 45.4919 18.2707 45.1877C18.3402 44.8835 18.4493 44.5826 18.6014 44.2816C18.6576 44.1659 18.7237 44.0535 18.7931 43.941C18.8659 43.8286 18.9353 43.7195 19.0081 43.6137C19.0808 43.5078 19.1502 43.4119 19.2197 43.3226C19.2891 43.2334 19.3519 43.1573 19.4081 43.0945L20.8861 43.8418C20.8497 43.8782 20.7935 43.9377 20.7208 44.0138Z" fill="black"/>
<path d="M32.5676 37.4103L32.0121 36.9539C31.9592 37.2383 31.8832 37.5227 31.7807 37.817C31.6815 38.108 31.5592 38.399 31.4203 38.6867C31.2781 38.9744 31.1194 39.2621 30.9376 39.5399C30.7557 39.8176 30.5573 40.0921 30.3457 40.3533C30.0977 40.6576 29.8266 40.9287 29.5356 41.1668C29.2447 41.4049 28.9438 41.5802 28.6363 41.6926C28.3255 41.8084 28.0147 41.8447 27.694 41.8084C27.3766 41.772 27.0658 41.6265 26.7649 41.3818C26.3813 41.0676 26.1499 40.7039 26.0672 40.2872C25.9846 39.8705 26.0375 39.3811 26.2259 38.819C26.4144 38.2568 26.7351 37.612 27.1815 36.8845C27.6312 36.157 28.1966 35.3237 28.881 34.3878L28.7619 34.2886C28.6694 34.2126 28.557 34.1596 28.4214 34.1365C28.2891 34.11 28.1337 34.1332 27.9585 34.2059C27.7833 34.2787 27.5783 34.411 27.3501 34.6028C27.1187 34.7946 26.8608 35.0657 26.5731 35.4162C26.345 35.694 26.1367 35.9784 25.9416 36.2727C25.7498 36.567 25.5746 36.8613 25.4192 37.1523C25.2638 37.4433 25.1249 37.731 25.0059 38.0088C24.8868 38.2866 24.7877 38.5478 24.7083 38.7925L23.3494 37.6781C23.4585 37.4466 23.5874 37.1887 23.7362 36.9142C23.885 36.6398 24.047 36.3554 24.2256 36.0677C24.4008 35.78 24.5893 35.4989 24.7843 35.2178C24.9794 34.9368 25.1778 34.6755 25.3762 34.4341C25.7663 33.9579 26.1631 33.5512 26.5698 33.2139C26.9765 32.8766 27.3832 32.6319 27.7833 32.4765C28.1866 32.321 28.5801 32.2648 28.9669 32.3111C29.3538 32.3541 29.7208 32.5195 30.0713 32.8038L33.8274 35.8792L32.5676 37.4103ZM29.9853 35.2939C29.5257 35.899 29.1488 36.4248 28.8545 36.8713C28.5603 37.3144 28.3288 37.698 28.1602 38.0154C27.9916 38.3329 27.8758 38.5941 27.813 38.8024C27.7502 39.0108 27.7171 39.1794 27.7204 39.3084C27.7237 39.4407 27.7502 39.5399 27.8031 39.6126C27.856 39.6854 27.9089 39.7416 27.9618 39.7879C28.0279 39.8408 28.1073 39.8772 28.1966 39.8904C28.2858 39.9069 28.3916 39.8871 28.514 39.8375C28.633 39.7879 28.7686 39.6986 28.9173 39.5729C29.0661 39.4473 29.2348 39.272 29.4166 39.0471C29.6216 38.7958 29.8035 38.5379 29.9589 38.2667C30.1143 37.9956 30.2498 37.7277 30.3556 37.4566C30.4647 37.1887 30.5507 36.9209 30.6102 36.6563C30.673 36.3918 30.7127 36.1437 30.7293 35.909L29.9853 35.2939Z" fill="black"/>
<path d="M40.4666 29.9434L37.8049 26.8217C37.6264 26.6134 37.4478 26.4414 37.2693 26.3026C37.0907 26.1637 36.9023 26.0744 36.7039 26.038C36.5055 26.0016 36.2906 26.0215 36.0625 26.1008C35.8343 26.1802 35.5863 26.3356 35.3152 26.5671C35.1102 26.7424 34.9184 26.954 34.7399 27.202C34.5614 27.45 34.3993 27.7146 34.2572 27.9957C34.115 28.2767 33.9926 28.5644 33.8968 28.8554C33.7976 29.1497 33.7281 29.4275 33.6852 29.6954L36.6675 33.1907L35.1631 34.4737L30.4085 28.9017L31.9129 27.6187L32.5643 28.3792C32.6602 28.1114 32.7693 27.8303 32.8916 27.5426C33.014 27.2549 33.1594 26.9639 33.3248 26.6729C33.4901 26.3819 33.6885 26.0942 33.91 25.8098C34.1315 25.5255 34.396 25.2543 34.6969 24.9997C35.0738 24.6789 35.4475 24.4375 35.8211 24.2755C36.1947 24.1134 36.5551 24.0275 36.9023 24.0175C37.2495 24.0076 37.5801 24.0771 37.8909 24.2193C38.2017 24.3614 38.4827 24.5797 38.7307 24.8707L41.9677 28.6636L40.4666 29.9434Z" fill="black"/>
<path d="M49.5261 19.9104C49.7576 20.3171 49.9163 20.7073 50.0089 21.0744C50.0981 21.4415 50.1279 21.7887 50.0981 22.1161C50.0684 22.4434 49.989 22.751 49.8535 23.0453C49.7179 23.3363 49.5393 23.6107 49.3178 23.8687C49.0963 24.1266 48.8351 24.368 48.5408 24.5929C48.2432 24.821 47.9225 25.0327 47.572 25.2311L43.5283 27.5227L39.921 21.1538L43.9548 18.8687C44.3053 18.6703 44.6525 18.505 44.9997 18.3661C45.3468 18.2305 45.6874 18.1313 46.0246 18.0718C46.3619 18.0123 46.6892 17.9991 47.0099 18.0321C47.3307 18.0652 47.6382 18.1545 47.9357 18.2967C48.2333 18.4422 48.5144 18.6472 48.7822 18.9084C49.0467 19.173 49.2947 19.507 49.5261 19.9104ZM47.7903 20.8925C47.615 20.585 47.4266 20.3436 47.2216 20.1617C47.0166 19.9798 46.7818 19.8674 46.5239 19.8178C46.266 19.7715 45.975 19.788 45.6543 19.8773C45.3336 19.9666 44.9699 20.122 44.5632 20.3502L42.4273 21.5605L44.464 25.1583L46.6 23.948C47.0033 23.7199 47.3274 23.4884 47.5687 23.2569C47.8101 23.0254 47.9754 22.784 48.0647 22.536C48.154 22.288 48.1738 22.0268 48.1242 21.7589C48.0746 21.4878 47.9655 21.2001 47.7903 20.8925Z" fill="black"/>
<path d="M63.0989 18.9646L62.2525 16.0315L57.4185 17.4237L58.265 20.3568L56.3671 20.9058L54.3403 13.8721L56.2381 13.3232L56.9755 15.8827L61.8094 14.4905L61.0721 11.931L62.97 11.3821L64.9968 18.4157L63.0989 18.9646Z" fill="black"/>
<path d="M73.1272 17.4502L73.0545 16.7359C72.8164 16.898 72.5618 17.0501 72.2841 17.1856C72.0063 17.3212 71.7154 17.4403 71.4145 17.5461C71.1103 17.6519 70.7962 17.7412 70.4689 17.8106C70.1415 17.8801 69.8109 17.933 69.4769 17.9694C69.0835 18.009 68.7032 18.009 68.3296 17.9727C67.956 17.9363 67.6187 17.847 67.3212 17.7114C67.0203 17.5725 66.7723 17.3807 66.5739 17.1294C66.3755 16.8781 66.2565 16.5573 66.2168 16.1704C66.1672 15.6777 66.2598 15.2578 66.4946 14.9006C66.7293 14.5468 67.1129 14.236 67.6419 13.9714C68.1709 13.7069 68.852 13.4754 69.6853 13.277C70.5152 13.0786 71.5038 12.8868 72.6511 12.7082L72.6346 12.5561C72.6213 12.437 72.5783 12.3213 72.5023 12.2089C72.4263 12.0964 72.3006 12.0038 72.1221 11.9311C71.9435 11.8583 71.7088 11.8087 71.4112 11.7823C71.1136 11.7558 70.74 11.7657 70.287 11.812C69.9299 11.8484 69.5794 11.9013 69.2356 11.9741C68.8917 12.0468 68.5611 12.1328 68.2437 12.2287C67.9262 12.3246 67.6287 12.4304 67.3476 12.5462C67.0666 12.6619 66.812 12.7743 66.5838 12.8901L66.4053 11.1408C66.6467 11.0515 66.9178 10.9622 67.2187 10.8696C67.5196 10.777 67.8337 10.6943 68.161 10.615C68.4883 10.5356 68.8223 10.4662 69.1562 10.4066C69.4935 10.3438 69.8175 10.2975 70.1283 10.2678C70.74 10.2049 71.3087 10.1983 71.8344 10.2479C72.3601 10.2975 72.8197 10.4066 73.2165 10.5819C73.6099 10.7572 73.9307 10.9953 74.172 11.2995C74.4167 11.6037 74.5589 11.9807 74.6052 12.4271L75.0978 17.2551L73.1272 17.4502ZM72.79 14.1235C72.0361 14.2293 71.398 14.3352 70.8756 14.441C70.3531 14.5468 69.92 14.6559 69.5761 14.7617C69.2323 14.8676 68.9678 14.9734 68.776 15.0726C68.5842 15.1751 68.4454 15.271 68.3528 15.3669C68.2635 15.4628 68.2106 15.5521 68.1974 15.6414C68.1841 15.7273 68.1808 15.8067 68.1875 15.8794C68.1974 15.9654 68.2271 16.0448 68.28 16.1175C68.3329 16.1936 68.4222 16.2531 68.5412 16.3027C68.6636 16.3523 68.819 16.3821 69.0141 16.3986C69.2091 16.4152 69.4505 16.4085 69.7415 16.3788C70.0622 16.3457 70.3763 16.2895 70.6772 16.2068C70.9814 16.1275 71.2657 16.0283 71.5302 15.9125C71.798 15.7968 72.046 15.6678 72.2742 15.5256C72.5056 15.3834 72.7073 15.2346 72.8858 15.0792L72.79 14.1235Z" fill="black"/>
<path d="M83.8598 11.8847C83.7606 11.8483 83.6449 11.8153 83.5093 11.7756C83.3771 11.7392 83.2283 11.7061 83.0696 11.6764C82.9075 11.6466 82.7455 11.6268 82.5736 11.6202C82.2198 11.6036 81.8859 11.6301 81.5751 11.7028C81.2643 11.7756 80.97 11.8748 80.6989 12.0071C80.4244 12.136 80.1698 12.2881 79.9318 12.4601C79.6937 12.6321 79.4755 12.8073 79.2738 12.9892L79.0556 17.3906L77.0817 17.2914L77.4454 9.97998L79.4193 10.0792L79.3598 11.2663C79.6078 11.101 79.859 10.9423 80.1169 10.7902C80.3748 10.638 80.6427 10.5058 80.9204 10.39C81.1981 10.2743 81.4891 10.1883 81.7933 10.1255C82.0975 10.0627 82.4182 10.0428 82.7555 10.0593C82.8844 10.066 83.0134 10.0792 83.1456 10.0957C83.2779 10.1156 83.4068 10.1354 83.5325 10.1619C83.6581 10.1883 83.7738 10.2115 83.8829 10.2379C83.992 10.2644 84.0879 10.2908 84.1673 10.3173L84.0846 11.974C84.035 11.9475 83.959 11.9211 83.8598 11.8847Z" fill="black"/>
<path d="M94.3114 15.9357C94.2155 16.3953 94.0832 16.7921 93.908 17.1294C93.7328 17.4667 93.5277 17.7478 93.293 17.9727C93.0549 18.2008 92.7904 18.3794 92.4962 18.5117C92.2019 18.644 91.8878 18.7332 91.5505 18.7795C91.2133 18.8258 90.8595 18.8391 90.4892 18.8126C90.1155 18.7895 89.7353 18.7365 89.3418 18.6572L84.7922 17.7213L86.2636 10.5488L90.8033 11.4847C91.1967 11.564 91.5704 11.6665 91.9208 11.7922C92.2713 11.9179 92.5953 12.0667 92.8863 12.2419C93.1773 12.4172 93.4352 12.6222 93.6534 12.8603C93.8749 13.0951 94.0469 13.3662 94.1758 13.6705C94.3048 13.9747 94.3808 14.312 94.4106 14.689C94.437 15.066 94.4039 15.4793 94.3114 15.9357ZM92.3606 15.5355C92.43 15.1916 92.4499 14.8841 92.4135 14.6096C92.3771 14.3385 92.2779 14.0971 92.1159 13.892C91.9539 13.687 91.7225 13.5117 91.4216 13.3629C91.1207 13.2174 90.7438 13.0951 90.2875 13.0025L87.8804 12.5098L87.0505 16.5606L89.4576 17.0534C89.9138 17.146 90.3073 17.1856 90.6413 17.1691C90.9752 17.1526 91.2563 17.0798 91.4877 16.9509C91.7191 16.8219 91.9043 16.64 92.0465 16.4052C92.182 16.1704 92.2878 15.8794 92.3606 15.5355Z" fill="black"/>
<path d="M104.432 15.9289L104.138 21.3389L108.01 17.4699L109.894 18.28L104.297 23.8421L102.28 22.9724L102.472 17.6947L98.7717 21.4612L96.7548 20.5915L96.9465 12.7014L98.8345 13.5149L98.6857 18.8687L102.412 15.0559L104.432 15.9289Z" fill="black"/>
<path d="M112.741 29.2686L113.155 28.68C112.867 28.6502 112.576 28.594 112.278 28.5147C111.981 28.4353 111.68 28.3394 111.382 28.2203C111.081 28.1013 110.787 27.9624 110.493 27.8037C110.199 27.645 109.914 27.4664 109.637 27.2746C109.312 27.0497 109.022 26.8017 108.764 26.5272C108.506 26.2561 108.307 25.9717 108.168 25.6708C108.03 25.3699 107.97 25.0623 107.983 24.7416C107.997 24.4208 108.116 24.1 108.337 23.7826C108.621 23.3791 108.965 23.1179 109.375 23.0022C109.785 22.8864 110.278 22.903 110.85 23.0485C111.425 23.194 112.09 23.4618 112.85 23.8553C113.611 24.2488 114.484 24.7482 115.469 25.3599L115.558 25.2343C115.628 25.1351 115.671 25.0193 115.684 24.8838C115.7 24.7482 115.664 24.5961 115.578 24.4274C115.492 24.2555 115.343 24.0637 115.138 23.8487C114.93 23.6338 114.639 23.3957 114.269 23.1377C113.975 22.9327 113.674 22.7442 113.366 22.5756C113.059 22.4069 112.751 22.2548 112.45 22.1192C112.146 21.987 111.852 21.8712 111.564 21.772C111.276 21.6761 111.009 21.5968 110.761 21.5372L111.766 20.0955C112.007 20.1847 112.272 20.2939 112.559 20.4228C112.847 20.5518 113.141 20.6907 113.439 20.8461C113.736 21.0015 114.034 21.1636 114.332 21.3388C114.626 21.5108 114.9 21.6894 115.158 21.8679C115.661 22.2184 116.097 22.5855 116.464 22.9658C116.831 23.3461 117.109 23.7297 117.294 24.1199C117.479 24.5101 117.565 24.897 117.552 25.2872C117.539 25.6774 117.403 26.0544 117.145 26.4247L114.368 30.4062L112.741 29.2686ZM114.656 26.5272C114.014 26.1139 113.462 25.7799 112.996 25.5187C112.53 25.2574 112.133 25.0557 111.802 24.9135C111.472 24.7713 111.204 24.6754 110.992 24.6258C110.781 24.5762 110.609 24.5597 110.48 24.5729C110.351 24.5861 110.251 24.6225 110.182 24.6787C110.113 24.7349 110.06 24.7945 110.02 24.8507C109.97 24.9201 109.944 25.0028 109.934 25.0921C109.927 25.1847 109.951 25.2872 110.013 25.4029C110.073 25.5187 110.172 25.6443 110.308 25.7832C110.447 25.9221 110.632 26.0742 110.873 26.2429C111.138 26.428 111.412 26.5901 111.693 26.7257C111.974 26.8612 112.255 26.9737 112.533 27.0596C112.811 27.1456 113.082 27.2118 113.35 27.2547C113.617 27.2977 113.869 27.3176 114.103 27.3176L114.656 26.5272Z" fill="black"/>
<path d="M124.505 32.0662C124.453 31.9736 124.39 31.8711 124.31 31.7554C124.234 31.6397 124.145 31.5206 124.043 31.3916C123.94 31.266 123.828 31.1436 123.705 31.0246C123.447 30.7799 123.18 30.5815 122.895 30.4327C122.614 30.2839 122.327 30.1681 122.032 30.0888C121.741 30.0094 121.447 29.9565 121.156 29.93C120.865 29.9036 120.584 29.8936 120.313 29.9003L117.274 33.0914L115.843 31.7289L120.892 26.4314L122.323 27.7938L121.503 28.6536C121.797 28.69 122.092 28.733 122.389 28.7859C122.684 28.8388 122.975 28.9148 123.259 29.0074C123.543 29.1033 123.821 29.2257 124.092 29.3778C124.363 29.5299 124.621 29.725 124.866 29.9565C124.958 30.0458 125.048 30.1384 125.137 30.2409C125.226 30.3434 125.309 30.4426 125.388 30.5418C125.468 30.641 125.54 30.7369 125.603 30.8295C125.669 30.9221 125.722 31.0014 125.768 31.0742L124.624 32.2746C124.598 32.2283 124.558 32.1588 124.505 32.0662Z" fill="black"/>
<path d="M126.655 43.3361C126.129 42.9822 125.649 42.5953 125.216 42.1754C124.783 41.7554 124.373 41.2957 123.993 40.803C123.504 40.1714 123.14 39.553 122.895 38.9545C122.651 38.356 122.528 37.7872 122.525 37.2515C122.525 36.7158 122.641 36.2131 122.879 35.7469C123.117 35.2806 123.471 34.8673 123.943 34.5002C124.383 34.1629 124.859 33.938 125.372 33.8256C125.884 33.7132 126.407 33.7165 126.936 33.8289C127.465 33.9447 127.987 34.1728 128.503 34.5167C129.019 34.8606 129.495 35.317 129.935 35.8891C130.341 36.4149 130.639 36.9506 130.834 37.4995C131.029 38.0451 131.108 38.5841 131.072 39.1132C131.036 39.6423 130.88 40.1483 130.606 40.6377C130.331 41.1238 129.928 41.5735 129.396 41.9836L129.009 42.2812L124.605 36.567C124.459 36.7588 124.357 36.9704 124.297 37.2052C124.238 37.44 124.228 37.6979 124.274 37.979C124.32 38.2601 124.426 38.5709 124.591 38.9082C124.757 39.2455 124.995 39.6159 125.309 40.0193C125.53 40.307 125.765 40.5749 126.013 40.8229C126.261 41.0709 126.506 41.2924 126.747 41.4875C126.989 41.6826 127.22 41.848 127.438 41.9869C127.656 42.1258 127.848 42.225 128.007 42.2911L126.655 43.3361ZM128.956 39.8374C129.088 39.7118 129.204 39.5563 129.3 39.3646C129.399 39.1761 129.449 38.9545 129.455 38.7032C129.458 38.4519 129.406 38.1708 129.293 37.8599C129.181 37.5491 128.979 37.2052 128.691 36.8315C128.42 36.481 128.142 36.2098 127.858 36.0213C127.574 35.8329 127.299 35.7006 127.038 35.6278C126.777 35.5551 126.532 35.5286 126.311 35.5485C126.086 35.5683 125.901 35.6113 125.755 35.6807L128.956 39.8374Z" fill="black"/>
<path d="M129.419 48.918L135.942 45.5979L136.838 47.3604L130.315 50.6805L129.419 48.918Z" fill="black"/>
<path d="M133.691 59.0599L137.552 57.6776C137.81 57.5851 138.035 57.4792 138.227 57.3635C138.419 57.2444 138.571 57.0989 138.677 56.927C138.782 56.755 138.839 56.5467 138.845 56.3053C138.852 56.0639 138.796 55.7762 138.673 55.4422C138.581 55.1876 138.452 54.933 138.283 54.6783C138.115 54.4237 137.923 54.179 137.711 53.9475C137.5 53.7128 137.275 53.4978 137.033 53.3027C136.792 53.1076 136.557 52.9423 136.323 52.8067L131.998 54.3543L131.33 52.4925L138.22 50.0256L138.888 51.8874L137.946 52.2247C138.164 52.4099 138.386 52.6116 138.614 52.8298C138.842 53.0481 139.06 53.2862 139.275 53.5441C139.49 53.802 139.688 54.0897 139.874 54.3973C140.059 54.7048 140.221 55.0487 140.353 55.4191C140.518 55.8853 140.611 56.3185 140.631 56.7253C140.651 57.132 140.601 57.4991 140.489 57.8264C140.373 58.1538 140.194 58.4382 139.95 58.6796C139.705 58.921 139.404 59.1062 139.04 59.2352L134.345 60.915L133.691 59.0599Z" fill="black"/>
<path d="M141.13 68.5539C141.173 68.4051 141.216 68.2133 141.259 67.9719C141.302 67.7338 141.338 67.4659 141.361 67.1683C141.385 66.8707 141.395 66.5533 141.388 66.2126C141.378 65.872 141.345 65.5248 141.282 65.1776C141.233 64.8965 141.183 64.6617 141.13 64.4666C141.077 64.2715 141.024 64.1095 140.975 63.9805C140.922 63.8516 140.872 63.7491 140.823 63.6763C140.773 63.6036 140.723 63.5507 140.677 63.5143C140.631 63.4779 140.588 63.4581 140.548 63.4548C140.508 63.4481 140.472 63.4481 140.439 63.4548C140.333 63.4746 140.251 63.5407 140.191 63.6598C140.131 63.7788 140.085 63.9342 140.059 64.126C140.029 64.3178 140.009 64.5394 139.999 64.7907C139.989 65.042 139.979 65.3066 139.969 65.591C139.96 65.8754 139.946 66.163 139.93 66.464C139.913 66.7649 139.884 67.0592 139.841 67.3469C139.798 67.6346 139.738 67.9091 139.659 68.1736C139.583 68.4348 139.477 68.6729 139.348 68.8846C139.219 69.0962 139.06 69.2715 138.868 69.4137C138.677 69.5559 138.445 69.6518 138.177 69.6981C137.83 69.7609 137.523 69.751 137.255 69.6716C136.984 69.5922 136.746 69.4666 136.537 69.2913C136.329 69.116 136.151 68.9044 135.998 68.6531C135.846 68.4018 135.717 68.1339 135.608 67.8462C135.499 67.5618 135.41 67.2675 135.341 66.9699C135.268 66.669 135.208 66.3846 135.162 66.1101C135.036 65.3959 134.977 64.7279 134.987 64.0996C134.997 63.4713 135.046 62.9091 135.139 62.4131L136.858 62.1089C136.676 62.6347 136.567 63.22 136.524 63.8582C136.481 64.4964 136.524 65.1677 136.65 65.8687C136.723 66.2821 136.805 66.6128 136.895 66.8674C136.984 67.122 137.076 67.3138 137.172 67.4494C137.265 67.585 137.357 67.671 137.447 67.7073C137.536 67.7437 137.619 67.7569 137.691 67.7437C137.807 67.7239 137.896 67.6511 137.966 67.5321C138.035 67.413 138.082 67.2543 138.115 67.0625C138.148 66.8707 138.167 66.6458 138.181 66.3945C138.194 66.1432 138.201 65.8787 138.207 65.5976C138.214 65.3165 138.224 65.0288 138.234 64.7279C138.247 64.4303 138.27 64.1393 138.306 63.8516C138.346 63.5639 138.399 63.2927 138.468 63.0282C138.538 62.7669 138.637 62.5321 138.759 62.3205C138.882 62.1089 139.037 61.9369 139.222 61.7947C139.407 61.6525 139.636 61.5599 139.903 61.5103C140.221 61.4541 140.505 61.4607 140.756 61.5335C141.008 61.6029 141.233 61.722 141.428 61.884C141.623 62.046 141.795 62.2411 141.94 62.4759C142.086 62.7074 142.211 62.9587 142.317 63.2233C142.423 63.4911 142.512 63.7623 142.582 64.0434C142.654 64.3244 142.71 64.589 142.757 64.8469C142.806 65.128 142.843 65.4157 142.869 65.7166C142.892 66.0175 142.906 66.3152 142.906 66.6128C142.906 66.9104 142.896 67.1948 142.879 67.4759C142.859 67.7536 142.833 68.0149 142.8 68.2563L141.13 68.5539Z" fill="black"/>
<path d="M142.013 75.6139L136.289 75.7825L136.23 73.8083L141.953 73.6397L141.861 70.5346L143.454 70.4883L143.696 78.6793L142.102 78.7256L142.013 75.6139Z" fill="black"/>
<path d="M136.194 80.0054L143.494 80.5543L143.345 82.5252L136.045 81.9762L136.194 80.0054Z" fill="black"/>
<path d="M140.793 89.1291L135.159 88.1073L135.512 86.1629L141.147 87.1847L141.702 84.1292L143.269 84.4135L141.808 92.4789L140.241 92.1945L140.793 89.1291Z" fill="black"/>
<path d="M140.624 96.4405L136.736 95.0681C136.478 94.9755 136.237 94.916 136.012 94.8862C135.787 94.8565 135.579 94.873 135.39 94.9358C135.202 94.9987 135.026 95.1243 134.871 95.3062C134.716 95.4881 134.577 95.7493 134.458 96.0866C134.368 96.3413 134.309 96.6223 134.279 96.9266C134.249 97.2308 134.246 97.5416 134.266 97.8591C134.286 98.1765 134.329 98.4841 134.392 98.7883C134.458 99.0925 134.537 99.3703 134.63 99.6282L138.961 101.159L138.303 103.018L131.399 100.577L132.057 98.7189L133.003 99.0529C132.953 98.7718 132.904 98.4742 132.864 98.16C132.821 97.8459 132.798 97.5218 132.795 97.1878C132.791 96.8505 132.814 96.5033 132.864 96.1428C132.914 95.7824 133.003 95.4187 133.135 95.045C133.3 94.5787 133.502 94.1819 133.747 93.8545C133.988 93.5238 134.259 93.2692 134.554 93.0873C134.848 92.9055 135.169 92.7996 135.509 92.7666C135.85 92.7335 136.2 92.7831 136.564 92.9088L141.285 94.5787L140.624 96.4405Z" fill="black"/>
<path d="M133.538 108.709L128.513 105.961L129.462 104.225L134.487 106.973L135.979 104.248L137.377 105.012L133.443 112.201L132.044 111.437L133.538 108.709Z" fill="black"/>
<path d="M121.751 116.245C121.96 115.65 122.214 115.088 122.512 114.559C122.809 114.033 123.147 113.52 123.53 113.027C124.019 112.396 124.522 111.883 125.038 111.496C125.554 111.109 126.073 110.845 126.592 110.709C127.111 110.57 127.627 110.557 128.136 110.67C128.645 110.782 129.138 111.02 129.611 111.384C130.05 111.725 130.388 112.125 130.626 112.594C130.864 113.064 130.996 113.566 131.019 114.109C131.042 114.651 130.953 115.213 130.751 115.799C130.55 116.384 130.229 116.959 129.786 117.531C129.379 118.057 128.936 118.484 128.457 118.811C127.977 119.138 127.478 119.35 126.955 119.449C126.436 119.549 125.904 119.525 125.365 119.383C124.823 119.241 124.287 118.967 123.755 118.553L123.368 118.252L127.775 112.541C127.554 112.452 127.323 112.406 127.081 112.406C126.84 112.406 126.588 112.462 126.327 112.581C126.066 112.7 125.795 112.879 125.511 113.123C125.226 113.368 124.929 113.695 124.615 114.099C124.393 114.387 124.195 114.681 124.016 114.982C123.838 115.286 123.685 115.577 123.56 115.861C123.434 116.146 123.328 116.41 123.252 116.658C123.173 116.906 123.123 117.115 123.104 117.287L121.751 116.245ZM125.719 117.584C125.871 117.68 126.053 117.753 126.261 117.799C126.469 117.846 126.694 117.839 126.939 117.779C127.184 117.72 127.442 117.597 127.713 117.409C127.987 117.221 128.268 116.939 128.556 116.566C128.827 116.215 129.019 115.878 129.128 115.554C129.237 115.23 129.296 114.932 129.3 114.661C129.303 114.39 129.27 114.145 129.194 113.937C129.118 113.725 129.029 113.56 128.926 113.431L125.719 117.584Z" fill="black"/>
<path d="M56.4696 138.973L58.0236 134.849L54.2907 138.15L52.7697 137.577L52.1448 132.63L50.5908 136.754L49.007 136.156L51.2223 130.286L53.3748 131.099L54.0691 136.437L58.1162 132.888L60.262 133.699L58.0467 139.568L56.4696 138.973Z" fill="black"/>
<path d="M60.5761 140.15L61.8392 134.003L68.0618 135.282L67.794 136.592L63.2774 135.663L63.0691 136.678L67.3542 137.561L67.0831 138.87L62.798 137.987L62.55 139.184L67.1294 140.127L66.8616 141.436L60.5761 140.15Z" fill="black"/>
<path d="M77.085 142.187L77.2768 137.782L74.7573 142.085L73.1339 142.015L70.9979 137.511L70.8062 141.916L69.1133 141.843L69.3877 135.573L71.6857 135.673L74.0101 140.527L76.7478 135.891L79.0391 135.99L78.7647 142.26L77.085 142.187Z" fill="black"/>
<path d="M88.297 139.439C88.3267 139.681 88.3201 139.896 88.2804 140.081C88.2375 140.266 88.168 140.431 88.0721 140.573C87.9763 140.716 87.8506 140.838 87.7018 140.937C87.553 141.036 87.3844 141.122 87.1993 141.192C87.0141 141.261 86.8124 141.321 86.5975 141.367C86.3826 141.413 86.1577 141.45 85.9263 141.476L81.4064 142.035L80.636 135.808L85.0732 135.259C85.2518 135.236 85.4303 135.223 85.6122 135.216C85.794 135.21 85.9693 135.216 86.1379 135.236C86.3065 135.256 86.4652 135.296 86.614 135.349C86.7628 135.405 86.8984 135.484 87.0174 135.59C87.1364 135.696 87.2356 135.828 87.315 135.987C87.3943 136.146 87.4472 136.337 87.477 136.566C87.5266 136.969 87.4671 137.303 87.2984 137.564C87.1298 137.825 86.8322 138.024 86.4156 138.153C86.7198 138.136 86.9843 138.15 87.2092 138.196C87.434 138.239 87.6225 138.315 87.7746 138.421C87.9267 138.526 88.0424 138.662 88.1284 138.834C88.211 138.999 88.2672 139.201 88.297 139.439ZM85.8701 137.032C85.8602 136.952 85.8403 136.88 85.8073 136.814C85.7742 136.744 85.7213 136.688 85.6519 136.642C85.5824 136.595 85.4898 136.562 85.3774 136.542C85.265 136.523 85.1228 136.523 84.9542 136.542L82.4744 136.85L82.6199 138.021L85.0997 137.713C85.2683 137.693 85.4072 137.66 85.5097 137.617C85.6155 137.574 85.6948 137.521 85.7544 137.462C85.8106 137.402 85.8469 137.336 85.8635 137.263C85.8767 137.187 85.88 137.111 85.8701 137.032ZM86.5644 139.456C86.5479 139.314 86.5082 139.204 86.4487 139.122C86.3892 139.042 86.3065 138.983 86.1974 138.95C86.0883 138.917 85.9527 138.9 85.7874 138.907C85.6221 138.91 85.427 138.93 85.1989 138.956L82.7687 139.257L82.9307 140.577L85.3609 140.276C85.589 140.249 85.7808 140.216 85.9428 140.18C86.1048 140.144 86.2338 140.097 86.3297 140.034C86.4256 139.975 86.495 139.896 86.5314 139.806C86.571 139.714 86.5843 139.598 86.5644 139.456Z" fill="black"/>
<path d="M90.5619 140.706L88.9484 134.641L95.085 133.007L95.4289 134.3L90.9719 135.487L91.2397 136.489L95.4686 135.365L95.8124 136.658L91.5836 137.782L91.8977 138.966L96.4175 137.763L96.7614 139.056L90.5619 140.706Z" fill="black"/>
<path d="M100.402 137.693L98.8378 138.348L96.4175 132.558L100.336 130.921C100.756 130.745 101.132 130.64 101.463 130.603C101.794 130.567 102.085 130.59 102.336 130.676C102.587 130.759 102.802 130.898 102.977 131.089C103.156 131.281 103.301 131.516 103.417 131.794C103.52 132.038 103.576 132.267 103.583 132.478C103.589 132.69 103.563 132.885 103.5 133.064C103.437 133.242 103.348 133.411 103.232 133.563C103.116 133.718 102.984 133.86 102.835 133.989L105.689 135.484L103.86 136.248L101.215 134.849L99.509 135.563L100.402 137.693ZM101.837 132.442C101.79 132.329 101.734 132.24 101.671 132.174C101.609 132.108 101.533 132.065 101.437 132.045C101.344 132.025 101.232 132.032 101.099 132.058C100.967 132.088 100.812 132.141 100.63 132.217L98.4907 133.113L99.0098 134.353L101.149 133.457C101.331 133.381 101.48 133.305 101.592 133.232C101.704 133.159 101.787 133.083 101.84 133.001C101.893 132.921 101.916 132.835 101.913 132.746C101.909 132.653 101.883 132.554 101.837 132.442Z" fill="black"/>
<path d="M38.615 128.011C39.4093 128.011 40.0533 127.367 40.0533 126.572C40.0533 125.778 39.4093 125.134 38.615 125.134C37.8206 125.134 37.1767 125.778 37.1767 126.572C37.1767 127.367 37.8206 128.011 38.615 128.011Z" fill="black"/>
<path d="M114.642 128.011C115.437 128.011 116.081 127.367 116.081 126.572C116.081 125.778 115.437 125.134 114.642 125.134C113.848 125.134 113.204 125.778 113.204 126.572C113.204 127.367 113.848 128.011 114.642 128.011Z" fill="black"/>
<path d="M53.8013 60.3762H37.6396V66.269H41.5345V86.6192H37.6396V92.6112H53.8013C62.0243 92.6112 68.6867 85.948 68.6867 77.7272V75.2636C68.69 67.0428 62.0243 60.3762 53.8013 60.3762ZM61.7763 77.8297C61.7763 82.618 57.8946 86.5035 53.1036 86.5035H48.23V66.4906H53.1036C57.8946 66.4906 61.7763 70.3761 61.7763 75.1644V77.8297Z" fill="#5C6384"/>
<path d="M66.7888 60.3762V66.2029H70.5317V86.5002H66.7888V92.6145H81.218V86.5002H77.3329V79.407H90.0031V86.5002H86.3892V92.6145H100.749V86.5002H96.7349V66.4872H100.749V60.3762H86.2536V66.2029H90.0031V73.4878H77.3362V66.2029H81.0791V60.3762H66.7888Z" fill="#5C6384"/>
<path d="M101.704 92.6145V86.5002H105.447V65.9978C105.447 65.9978 109.531 68.3126 112.116 71.1697V86.7581H115.929V92.6112H101.704V92.6145Z" fill="#5C6384"/>
<path d="M101.704 60.3762V62.5951C101.704 62.5951 108.648 65.9317 112.05 69.5394V66.0011H115.929V60.3795L101.704 60.3762Z" fill="#D07D39"/>
</g>
<defs>
<clipPath id="clip0_909_372">
<rect width="152.792" height="152.792" fill="white" transform="translate(0.207825)"/>
</clipPath>
</defs>
</svg>
