<svg width="152" height="152" viewBox="0 0 152 152" fill="none" xmlns="http://www.w3.org/2000/svg">
<g clip-path="url(#clip0_909_252)">
<path d="M43.2838 90.9126H38.4931V79.6306L43.2477 74.8723L43.2838 90.9126Z" fill="#7198B0"/>
<path d="M43.7625 74.8723V90.9126H47.0416V83.7982L48.4975 82.3411V79.5912L43.7625 74.8723Z" fill="#203562"/>
<path d="M51.6848 90.9126H47.0416V83.7982L51.7045 79.1318L51.6848 90.9126Z" fill="#7198B0"/>
<path d="M49.7698 66.8325V81.0679L48.4975 82.3412V79.5912L44.9692 76.0603V71.5547L49.7698 66.8325Z" fill="#7198B0"/>
<path d="M50.2125 66.8325V80.6249L52.1799 78.8168V90.9126H56.8821V83.9065L54.7442 81.7669V71.5153L50.2125 66.8325Z" fill="#203562"/>
<path d="M59.5349 59.2095V90.9126H64.6863V62.4254L59.5349 59.2095Z" fill="#203562"/>
<path d="M76.0319 71.3579L80.803 70.7967V66.406C80.803 64.122 78.9536 62.2712 76.6714 62.2712H74.7826H73.4579C70.7526 62.2712 68.5622 64.4666 68.5622 67.1706V85.6491C68.5622 88.5566 70.9166 90.9127 73.8218 90.9127H75.8188C78.5798 90.9127 80.8194 88.6714 80.8194 85.9083V80.3395L76.0287 79.8801V84.9829C76.0287 85.7738 75.3892 86.4137 74.599 86.4137C73.8087 86.4137 73.1693 85.7738 73.1693 84.9829V67.4364C73.1693 66.6456 73.8087 66.0057 74.599 66.0057C75.3892 66.0057 76.0287 66.6456 76.0287 67.4364V71.3579H76.0319Z" fill="#203562"/>
<path d="M96.9984 72.7854V66.6095C96.9984 64.2139 95.0571 62.2712 92.6634 62.2712H84.7576V90.9127H92.4863C94.9784 90.9127 96.9984 88.8913 96.9984 86.3973V78.9088C96.9984 78.0621 96.6541 77.2975 96.0999 76.7462C95.5457 76.1916 94.7817 75.8471 93.9357 75.8471C95.6277 75.8503 96.9984 74.4786 96.9984 72.7854ZM92.4306 85.8033C92.4306 86.5089 91.86 87.0766 91.1583 87.0766H89.3188V77.9473H91.2206C91.8896 77.9473 92.4306 78.4887 92.4306 79.1582V85.8033ZM92.4306 72.8411C92.4306 73.5467 91.86 74.1144 91.1583 74.1144H89.3188V66.6127H91.2206C91.8896 66.6127 92.4306 67.1542 92.4306 67.8236V72.8411Z" fill="#203562"/>
<path d="M109.924 62.2712H103.245L99.8774 90.9127H104.622L104.98 85.8525H108.144L108.56 90.9127H113.397L109.924 62.2712ZM105.285 81.7178L106.091 70.1306H107.068L107.885 81.7178H105.285Z" fill="#203562"/>
<path d="M48.2552 146.709C9.33584 131.529 -9.99432 87.4837 5.17469 48.5348C20.3437 9.58598 64.3522 -9.73586 103.275 5.44464C142.197 20.6251 161.528 64.667 146.355 103.619C131.183 142.571 87.1779 161.89 48.2552 146.709ZM102.609 7.13137C64.6375 -7.69145 21.675 11.2005 6.88637 49.201C-7.90227 87.2015 10.9524 130.197 48.9209 144.996C86.9155 159.819 129.855 140.927 144.644 102.93C159.432 64.9328 140.601 21.9575 102.609 7.13137Z" fill="black"/>
<path d="M57.7773 122.947C32.0759 112.909 19.3105 83.8244 29.3149 58.1035C39.3194 32.3827 68.4081 19.6075 94.1095 29.6196C119.811 39.6316 132.576 68.7424 122.572 94.4632C112.541 120.187 83.4787 132.959 57.7773 122.947ZM93.4111 31.4015C68.6868 21.7635 40.7261 34.0366 31.0988 58.7795C21.4714 83.5225 33.7581 111.504 58.4561 121.139C83.1541 130.774 111.141 118.504 120.768 93.761C130.396 69.018 118.135 41.0624 93.4111 31.4015Z" fill="black"/>
<path d="M34.9615 123.15L37.2044 120.538L38.1062 121.313L35.8633 123.925L37.2798 125.142L36.6568 125.868L32.9219 122.655L33.545 121.93L34.9615 123.15Z" fill="black"/>
<path d="M32.3776 115.813L31.0496 117.083L33.1384 119.272L34.4664 118.005L35.2862 118.865L32.1022 121.907L31.2824 121.047L32.4399 119.941L30.3512 117.752L29.1936 118.858L28.3739 117.999L31.5579 114.957L32.3776 115.813Z" fill="black"/>
<path d="M27.5869 110.225C27.9017 110.438 28.1902 110.671 28.4493 110.927C28.7083 111.183 28.9543 111.458 29.1838 111.754C29.4756 112.134 29.6953 112.505 29.8396 112.866C29.9839 113.227 30.0593 113.569 30.0593 113.893C30.0593 114.215 29.9872 114.517 29.8429 114.796C29.6986 115.075 29.4855 115.324 29.2002 115.544C28.9346 115.747 28.6493 115.882 28.3411 115.948C28.0329 116.013 27.7181 116.013 27.4 115.941C27.0819 115.872 26.7671 115.734 26.4589 115.524C26.1507 115.318 25.8654 115.042 25.5998 114.697C25.3571 114.382 25.1768 114.057 25.062 113.729C24.944 113.401 24.8981 113.076 24.921 112.758C24.944 112.44 25.0391 112.134 25.203 111.842C25.3702 111.55 25.6129 111.281 25.931 111.035L26.1638 110.855L28.8034 114.297C28.8887 114.182 28.951 114.054 28.9903 113.913C29.0297 113.772 29.033 113.618 29.0035 113.447C28.9772 113.276 28.9116 113.093 28.8133 112.889C28.7149 112.686 28.5706 112.463 28.3837 112.22C28.2525 112.046 28.1115 111.885 27.9607 111.734C27.8099 111.583 27.6656 111.452 27.5213 111.334C27.377 111.216 27.2393 111.117 27.1082 111.032C26.977 110.95 26.8622 110.887 26.7671 110.848L27.5869 110.225ZM26.1966 112.325C26.1179 112.4 26.0457 112.495 25.9867 112.607C25.9277 112.722 25.8949 112.853 25.8916 113.004C25.8883 113.155 25.9211 113.322 25.9867 113.513C26.0523 113.703 26.1736 113.907 26.3474 114.133C26.5114 114.346 26.6753 114.507 26.8458 114.622C27.0163 114.737 27.1803 114.816 27.3377 114.858C27.4951 114.904 27.6426 114.921 27.7771 114.907C27.9115 114.898 28.023 114.871 28.1115 114.829L26.1966 112.325Z" fill="black"/>
<path d="M25.7244 106.907L21.9469 109.165L21.337 108.144L25.1145 105.886L25.7244 106.907Z" fill="black"/>
<path d="M22.5601 101.03L20.35 102.126C20.2024 102.198 20.0745 102.277 19.9696 102.362C19.8614 102.447 19.7827 102.542 19.7335 102.654C19.6843 102.765 19.6646 102.89 19.6777 103.038C19.6909 103.182 19.7466 103.35 19.8384 103.543C19.9106 103.688 20.0057 103.832 20.1237 103.973C20.2417 104.114 20.3729 104.245 20.5172 104.37C20.6615 104.495 20.809 104.606 20.9664 104.708C21.1238 104.807 21.2747 104.889 21.4255 104.954L23.8979 103.727L24.4259 104.793L20.4844 106.749L19.9565 105.683L20.4942 105.414C20.3532 105.319 20.2057 105.214 20.0548 105.099C19.904 104.984 19.7564 104.859 19.6122 104.718C19.4646 104.577 19.3269 104.423 19.1924 104.249C19.058 104.075 18.94 103.884 18.835 103.671C18.7039 103.405 18.6186 103.153 18.576 102.91C18.5366 102.667 18.5399 102.447 18.5858 102.24C18.6317 102.037 18.717 101.853 18.8481 101.692C18.976 101.532 19.1433 101.4 19.3498 101.299L22.0354 99.9663L22.5601 101.03Z" fill="black"/>
<path d="M17.6382 94.5125C17.9038 94.4173 18.1497 94.3583 18.376 94.3418C18.6022 94.3254 18.8121 94.3418 19.0023 94.3911C19.1925 94.4403 19.3695 94.519 19.5269 94.6273C19.6876 94.7356 19.8319 94.8702 19.963 95.0277C20.0942 95.1852 20.209 95.3624 20.3139 95.5593C20.4188 95.7562 20.5139 95.9695 20.5959 96.1959L21.5501 98.8212L17.4152 100.327L16.461 97.7087C16.379 97.4823 16.3134 97.2592 16.2675 97.0393C16.2216 96.8194 16.1954 96.6094 16.1954 96.4027C16.1954 96.1959 16.2183 96.0023 16.2708 95.8153C16.3233 95.6282 16.4052 95.4543 16.52 95.2935C16.6348 95.1327 16.7856 94.985 16.9692 94.8538C17.1529 94.7225 17.3758 94.6109 17.6382 94.5125ZM18.0481 95.6413C17.848 95.7135 17.6874 95.8021 17.5595 95.9071C17.4316 96.0122 17.3398 96.1369 17.2873 96.2845C17.2316 96.4322 17.2152 96.6061 17.2348 96.8063C17.2545 97.0065 17.3103 97.2362 17.4086 97.502L17.9136 98.8901L20.2483 98.0402L19.7433 96.6521C19.6482 96.3895 19.5433 96.173 19.4285 96.0089C19.3138 95.8448 19.1892 95.7201 19.0514 95.6446C18.9137 95.5659 18.7596 95.5298 18.5957 95.5298C18.4284 95.5298 18.2481 95.5691 18.0481 95.6413Z" fill="black"/>
<path d="M18.0579 88.1101C18.2612 88.4317 18.4284 88.7599 18.5661 89.0979C18.7039 89.4359 18.8154 89.787 18.9072 90.1512C19.0219 90.6172 19.0744 91.0471 19.0646 91.4343C19.0547 91.8248 18.9826 92.1661 18.8547 92.4615C18.7268 92.7568 18.5399 93.0062 18.294 93.2031C18.0513 93.4033 17.7562 93.5444 17.4054 93.6297C17.0807 93.7084 16.7659 93.7183 16.4577 93.6527C16.1495 93.5903 15.8609 93.4623 15.5986 93.272C15.3363 93.0817 15.1034 92.829 14.9034 92.514C14.7034 92.1989 14.5526 91.8314 14.4476 91.4114C14.3525 91.0241 14.3165 90.6566 14.3427 90.3055C14.3689 89.9576 14.4542 89.6426 14.6017 89.3604C14.7493 89.0782 14.9592 88.8353 15.228 88.6351C15.4969 88.435 15.8281 88.284 16.2183 88.1889L16.5036 88.12L17.5431 92.3335C17.6677 92.2646 17.7759 92.1694 17.8677 92.0578C17.9595 91.943 18.0251 91.8051 18.0677 91.6378C18.1104 91.4704 18.1268 91.2768 18.1169 91.0504C18.1071 90.824 18.0644 90.5614 17.9923 90.2628C17.9398 90.0528 17.8775 89.8461 17.7988 89.6492C17.7234 89.4523 17.6414 89.2718 17.5562 89.1044C17.4709 88.9403 17.3824 88.7894 17.2971 88.6614C17.2119 88.5334 17.1299 88.4284 17.0578 88.3562L18.0579 88.1101ZM15.9429 89.4752C15.8412 89.5113 15.7396 89.5704 15.6379 89.6524C15.5396 89.7345 15.4576 89.8428 15.392 89.9773C15.3264 90.1119 15.2903 90.2825 15.2772 90.4827C15.2641 90.6828 15.2903 90.9191 15.3592 91.1948C15.4248 91.454 15.51 91.6706 15.6215 91.8445C15.733 92.0184 15.8511 92.1563 15.979 92.2613C16.1068 92.3663 16.2314 92.4385 16.3593 92.4811C16.4872 92.5238 16.5987 92.5468 16.6971 92.5435L15.9429 89.4752Z" fill="black"/>
<path d="M14.4706 82.2558C14.687 82.2262 14.8936 82.2295 15.0838 82.2656C15.2739 82.305 15.4477 82.3838 15.5986 82.5052C15.7494 82.6266 15.8773 82.794 15.9855 83.0105C16.0904 83.2238 16.1659 83.4929 16.2118 83.8145L16.4839 85.7703L17.8611 85.5767L18.0251 86.7548L13.6672 87.3652L13.2278 84.2313C13.1819 83.9097 13.1819 83.6307 13.2212 83.3978C13.2606 83.1648 13.3393 82.9679 13.4508 82.8071C13.5623 82.6496 13.7065 82.5249 13.8803 82.4363C14.0574 82.3444 14.2509 82.2853 14.4706 82.2558ZM14.6542 83.4404C14.5525 83.4535 14.4673 83.4798 14.3984 83.5192C14.3296 83.5586 14.2771 83.6143 14.2378 83.6865C14.2017 83.7587 14.1787 83.8506 14.1689 83.9589C14.1623 84.0672 14.1689 84.1985 14.1886 84.3527L14.4279 86.0525L15.5494 85.895L15.3133 84.1952C15.2903 84.0409 15.2641 83.913 15.2313 83.808C15.1985 83.7029 15.1559 83.6242 15.1034 83.5651C15.051 83.5061 14.9887 83.4667 14.9132 83.447C14.8444 83.4306 14.7559 83.4273 14.6542 83.4404Z" fill="black"/>
<path d="M16.8709 76.0863C17.0053 76.444 17.1037 76.7984 17.1693 77.1561C17.2348 77.5138 17.2742 77.8813 17.2906 78.2554C17.307 78.7345 17.2709 79.1644 17.1824 79.5451C17.0938 79.9224 16.9561 80.244 16.7692 80.5066C16.5823 80.7691 16.3495 80.9758 16.0708 81.1202C15.792 81.2646 15.474 81.3434 15.1133 81.3565C14.7788 81.3696 14.4706 81.3138 14.1787 81.1859C13.8902 81.0612 13.6344 80.8774 13.4147 80.6378C13.195 80.3983 13.0212 80.1029 12.8901 79.7551C12.7589 79.4072 12.6835 79.0167 12.6704 78.5836C12.654 78.1832 12.6966 77.8157 12.7917 77.481C12.8868 77.1462 13.0376 76.8542 13.2376 76.6081C13.4377 76.3619 13.6934 76.1683 13.9984 76.0239C14.3033 75.8796 14.6575 75.8008 15.0608 75.7877L15.3559 75.7778L15.5166 80.1128C15.6543 80.0701 15.7789 80.0012 15.8904 79.9093C16.0019 79.8174 16.097 79.6927 16.1724 79.5385C16.2478 79.3843 16.3036 79.1939 16.3397 78.9741C16.3757 78.7509 16.3888 78.4851 16.379 78.1799C16.3692 77.9634 16.3495 77.7501 16.3167 77.54C16.2839 77.33 16.2413 77.1364 16.1888 76.9592C16.1396 76.7787 16.0839 76.6179 16.0249 76.4735C15.9658 76.3291 15.9068 76.2143 15.8511 76.1257L16.8709 76.0863ZM14.5263 76.9953C14.4181 77.0084 14.3066 77.0478 14.1919 77.1069C14.0771 77.1659 13.9754 77.2545 13.8869 77.376C13.7984 77.4974 13.7262 77.6549 13.6705 77.8452C13.618 78.0355 13.5951 78.2751 13.6049 78.5606C13.6147 78.8264 13.6574 79.0561 13.7295 79.2497C13.8016 79.4401 13.8902 79.6009 13.9951 79.7288C14.0968 79.8568 14.2083 79.9553 14.323 80.0242C14.4378 80.0931 14.546 80.1357 14.6411 80.1522L14.5263 76.9953Z" fill="black"/>
<path d="M17.3988 70.5702L14.9395 70.393C14.7755 70.3799 14.6247 70.3831 14.4902 70.4028C14.3558 70.4225 14.2378 70.4652 14.1361 70.5341C14.0345 70.603 13.9558 70.7047 13.8934 70.836C13.8311 70.9673 13.7918 71.1412 13.7787 71.3545C13.7656 71.5153 13.7754 71.6892 13.8082 71.8697C13.8377 72.0502 13.8836 72.2307 13.9459 72.4111C14.0049 72.5916 14.0771 72.7656 14.1623 72.9296C14.2476 73.0937 14.3361 73.2447 14.4312 73.3759L17.1856 73.5728L17.1004 74.7542L12.713 74.4392L12.7982 73.2545L13.3983 73.2972C13.3229 73.1429 13.2508 72.9756 13.1786 72.8017C13.1065 72.6277 13.0442 72.444 12.9884 72.2471C12.9327 72.0535 12.8933 71.8467 12.8638 71.6301C12.8376 71.4136 12.831 71.1871 12.8474 70.9509C12.8671 70.6555 12.9228 70.393 13.0114 70.1633C13.0999 69.9368 13.2147 69.7432 13.3557 69.5923C13.4967 69.4413 13.6672 69.3265 13.8574 69.2543C14.0508 69.1821 14.2607 69.1526 14.4902 69.169L17.4808 69.3823L17.3988 70.5702Z" fill="black"/>
<path d="M16.4544 62.4449C16.7299 62.4942 16.9725 62.5696 17.1758 62.6714C17.3791 62.7731 17.5529 62.8912 17.6906 63.0323C17.8316 63.1734 17.9398 63.3277 18.0251 63.5049C18.1071 63.6788 18.1661 63.8691 18.1989 64.0693C18.2317 64.2695 18.2415 64.4828 18.235 64.7059C18.2251 64.9291 18.1989 65.1621 18.1563 65.3983L17.6513 68.1483L13.3229 67.3541L13.8246 64.6108C13.8672 64.3745 13.9263 64.1481 13.9951 63.9348C14.064 63.7215 14.1525 63.5278 14.2542 63.3474C14.3558 63.1702 14.4771 63.0126 14.6149 62.8781C14.7526 62.7436 14.9133 62.6353 15.0936 62.5532C15.274 62.4712 15.4773 62.422 15.7035 62.399C15.9265 62.3793 16.179 62.3957 16.4544 62.4449ZM16.238 63.623C16.0314 63.5836 15.8445 63.5804 15.6806 63.6033C15.5166 63.6296 15.3756 63.6919 15.2543 63.7937C15.133 63.8954 15.0313 64.0365 14.946 64.217C14.8608 64.4007 14.7952 64.6272 14.7427 64.9028L14.4771 66.3566L16.9201 66.8061L17.1857 65.3524C17.2348 65.0767 17.2545 64.8405 17.2414 64.6403C17.2283 64.4401 17.1791 64.2695 17.1004 64.1349C17.0217 63.9971 16.9069 63.8888 16.7659 63.8068C16.6217 63.7215 16.4446 63.6624 16.238 63.623Z" fill="black"/>
<path d="M20.0483 57.142C20.0614 57.5227 20.0417 57.8935 19.9893 58.2512C19.9368 58.6122 19.8581 58.9699 19.7499 59.3308C19.6122 59.7903 19.4417 60.1873 19.2351 60.5188C19.0285 60.8502 18.7957 61.1094 18.5366 61.2998C18.2743 61.4901 17.989 61.6082 17.6775 61.6575C17.366 61.7067 17.0414 61.6804 16.6971 61.5754C16.379 61.4803 16.1003 61.3293 15.8675 61.116C15.6346 60.9027 15.451 60.65 15.3199 60.3514C15.1887 60.0528 15.1166 59.7181 15.1034 59.3472C15.0903 58.9764 15.1461 58.5826 15.2674 58.1659C15.3822 57.7819 15.5363 57.4472 15.733 57.1584C15.9298 56.8697 16.1659 56.6432 16.4347 56.4759C16.7069 56.3085 17.0086 56.2035 17.3398 56.1674C17.6742 56.128 18.0349 56.1674 18.4219 56.2823L18.7039 56.3643L17.4709 60.5253C17.6152 60.5286 17.7562 60.5024 17.8907 60.4498C18.0251 60.3973 18.1563 60.3087 18.2743 60.1873C18.3956 60.0659 18.5071 59.9051 18.6153 59.7049C18.7203 59.5048 18.8186 59.2586 18.9039 58.9633C18.9662 58.7533 19.0121 58.5465 19.0482 58.3365C19.081 58.1298 19.1039 57.9296 19.1138 57.7426C19.1236 57.5555 19.1236 57.3849 19.1138 57.2306C19.1039 57.0764 19.0875 56.9484 19.0613 56.8467L20.0483 57.142ZM17.5332 57.2503C17.425 57.2306 17.307 57.2306 17.1824 57.247C17.0545 57.2667 16.9299 57.3192 16.8053 57.4046C16.6807 57.4899 16.5626 57.6146 16.4511 57.7819C16.3397 57.946 16.2413 58.1659 16.1626 58.4382C16.0872 58.6942 16.0544 58.9239 16.0609 59.1307C16.0675 59.3374 16.1003 59.5146 16.1593 59.6688C16.215 59.8231 16.2872 59.951 16.3757 60.0528C16.4643 60.1545 16.5495 60.23 16.638 60.2759L17.5332 57.2503Z" fill="black"/>
<path d="M22.3076 52.085L20.0352 51.1301C19.8843 51.0678 19.7401 51.0218 19.6089 50.9956C19.4744 50.9693 19.3498 50.9726 19.2318 51.0054C19.1137 51.0382 19.0055 51.1071 18.9072 51.2122C18.8055 51.3172 18.7137 51.4681 18.6317 51.665C18.5694 51.816 18.5235 51.98 18.494 52.1605C18.4645 52.341 18.4514 52.5281 18.4514 52.7184C18.4514 52.9087 18.4645 53.0958 18.4907 53.2795C18.517 53.4633 18.5563 53.6339 18.6055 53.7882L21.1501 54.858L20.691 55.954L16.6348 54.2509L17.0938 53.1548L17.648 53.3878C17.6283 53.2172 17.6119 53.0367 17.5988 52.8497C17.5857 52.6626 17.5857 52.4657 17.5955 52.2655C17.6054 52.0654 17.6316 51.8553 17.6775 51.642C17.7201 51.4287 17.789 51.2122 17.8808 50.9923C17.9956 50.7199 18.13 50.4869 18.2874 50.2999C18.4448 50.1128 18.6153 49.9684 18.799 49.87C18.9826 49.7715 19.1761 49.719 19.3826 49.7092C19.5892 49.7026 19.7991 49.742 20.0089 49.8339L22.7732 50.9956L22.3076 52.085Z" fill="black"/>
<path d="M21.4944 46.07L24.5209 47.7141L23.9537 48.7576L20.9271 47.1136L20.0352 48.7544L19.1924 48.2982L21.5435 43.9666L22.3863 44.4227L21.4944 46.07Z" fill="black"/>
<path d="M29.574 39.8316C29.5248 39.9891 29.4625 40.1434 29.3969 40.3009C29.3281 40.4584 29.2494 40.6159 29.1543 40.7767C29.0592 40.9375 28.951 41.1016 28.8264 41.2722C28.5608 41.6332 28.2788 41.9384 27.9804 42.1845C27.6787 42.4306 27.3705 42.6078 27.0557 42.7128C26.7409 42.8178 26.4195 42.8474 26.0949 42.7981C25.7736 42.7489 25.4555 42.6111 25.144 42.3814C24.8325 42.1517 24.6029 41.8924 24.4619 41.5971C24.3176 41.305 24.2488 40.99 24.2553 40.6553C24.2619 40.3206 24.334 39.9727 24.4816 39.6117C24.6259 39.2508 24.8325 38.8898 25.0981 38.5288C25.2227 38.3582 25.3473 38.204 25.4719 38.0661C25.5965 37.9283 25.7244 37.8036 25.8522 37.692C25.9801 37.5805 26.1113 37.4754 26.2457 37.3803C26.3802 37.2851 26.5179 37.1932 26.6589 37.1079L27.5213 37.7413C27.3967 37.8003 27.2688 37.866 27.1344 37.9349C27.0032 38.0038 26.8688 38.0891 26.731 38.1908C26.5933 38.2926 26.4523 38.4107 26.3113 38.5485C26.1703 38.6863 26.026 38.8537 25.8818 39.0506C25.6621 39.3525 25.5079 39.6249 25.426 39.871C25.3407 40.1171 25.3079 40.3337 25.3243 40.5306C25.3407 40.7242 25.3965 40.8948 25.4948 41.0425C25.5932 41.1902 25.7145 41.3149 25.8555 41.4199C25.9506 41.4888 26.0523 41.5479 26.1572 41.5938C26.2654 41.6397 26.3769 41.6693 26.495 41.6824C26.613 41.6955 26.7343 41.6857 26.8589 41.6594C26.9835 41.6332 27.1147 41.5807 27.2491 41.5019C27.3836 41.4232 27.5213 41.3182 27.6623 41.1836C27.8033 41.0491 27.9476 40.8817 28.0951 40.6815C28.2394 40.4846 28.3542 40.2976 28.446 40.1237C28.5345 39.9497 28.6067 39.7791 28.6624 39.6183C28.7182 39.4575 28.7575 39.3033 28.7837 39.1556C28.81 39.0079 28.8329 38.8668 28.8493 38.7257L29.7117 39.3591C29.6691 39.5166 29.6232 39.6741 29.574 39.8316Z" fill="black"/>
<path d="M32.781 33.0652C33.0597 33.3212 33.2597 33.5969 33.381 33.8922C33.5024 34.1908 33.545 34.4993 33.5155 34.8209C33.486 35.1425 33.3843 35.4739 33.2072 35.8119C33.0334 36.1499 32.7908 36.4912 32.4826 36.8292C32.1743 37.1705 31.8563 37.4428 31.5349 37.6496C31.2136 37.8563 30.8922 37.9909 30.5709 38.0532C30.2495 38.1156 29.938 38.0992 29.6298 38.0106C29.3215 37.922 29.0264 37.748 28.7477 37.4921C28.469 37.2361 28.2689 36.9605 28.1509 36.6618C28.0329 36.3632 27.9869 36.0515 28.0197 35.7266C28.0525 35.4017 28.1542 35.0703 28.3313 34.729C28.5083 34.3877 28.751 34.0464 29.0592 33.7084C29.3674 33.3704 29.6822 33.0948 30.0036 32.8913C30.3249 32.6846 30.643 32.5533 30.9611 32.491C31.2791 32.4319 31.5907 32.4483 31.8989 32.5402C32.2104 32.6386 32.5022 32.8126 32.781 33.0652ZM31.9743 33.9545C31.853 33.843 31.7153 33.7544 31.5579 33.6822C31.4005 33.61 31.23 33.5804 31.043 33.5903C30.8561 33.6001 30.6561 33.6658 30.4397 33.7806C30.2233 33.8955 29.997 34.0858 29.7576 34.3516C29.597 34.5288 29.4691 34.6962 29.374 34.857C29.2789 35.0178 29.2133 35.1687 29.1707 35.3098C29.1313 35.4509 29.1117 35.5855 29.1182 35.7135C29.1248 35.8382 29.1445 35.9563 29.1838 36.0646C29.2232 36.1729 29.2756 36.2713 29.3412 36.3632C29.4068 36.4551 29.4789 36.5339 29.5576 36.606C29.6396 36.6782 29.7281 36.7439 29.8232 36.8029C29.9216 36.862 30.0233 36.9047 30.1347 36.9342C30.2462 36.9637 30.3643 36.9736 30.4889 36.967C30.6135 36.9605 30.7447 36.9276 30.8824 36.8751C31.0201 36.8193 31.1644 36.7406 31.3119 36.629C31.4628 36.5207 31.6169 36.3763 31.7776 36.1991C32.0169 35.9333 32.1842 35.6905 32.2793 35.4641C32.3744 35.2376 32.4203 35.0342 32.4137 34.8471C32.4071 34.6601 32.3612 34.4927 32.276 34.3451C32.1973 34.1941 32.0956 34.0661 31.9743 33.9545Z" fill="black"/>
<path d="M38.257 31.1258L36.6437 29.2619C36.5355 29.1372 36.4273 29.0355 36.3191 28.9501C36.2108 28.8681 36.0961 28.8156 35.978 28.7926C35.86 28.7697 35.7321 28.7828 35.5944 28.832C35.4567 28.8812 35.3091 28.9764 35.1484 29.1175C35.0271 29.2225 34.9123 29.3505 34.8041 29.5014C34.6992 29.6524 34.6041 29.8099 34.5188 29.9806C34.4336 30.1512 34.3614 30.3251 34.3057 30.499C34.25 30.673 34.2073 30.8436 34.1811 31.0044L35.9879 33.0915L35.0894 33.8692L32.2071 30.5417L33.1056 29.764L33.499 30.2201C33.5548 30.0593 33.6204 29.8887 33.6925 29.7147C33.7647 29.5408 33.8499 29.3636 33.9483 29.1897C34.0467 29.0125 34.1647 28.8386 34.2959 28.6679C34.4303 28.4973 34.5844 28.3332 34.7648 28.1757C34.9877 27.9821 35.214 27.8344 35.437 27.736C35.66 27.6375 35.8764 27.585 36.0862 27.5752C36.2961 27.5686 36.4928 27.608 36.6798 27.69C36.8667 27.7721 37.0372 27.9033 37.188 28.0772L39.1522 30.3448L38.257 31.1258Z" fill="black"/>
<path d="M40.1457 25.3468L42.1525 28.146L41.1885 28.8384L39.1817 26.0392L37.6668 27.1287L37.1093 26.351L41.1098 23.4763L41.6672 24.254L40.1457 25.3468Z" fill="black"/>
<path d="M45.8481 21.7273C45.7858 21.7437 45.7169 21.7634 45.6382 21.7897C45.5595 21.8159 45.4743 21.8487 45.3857 21.8881C45.2972 21.9275 45.2087 21.9734 45.1201 22.026C44.9365 22.1342 44.7791 22.2589 44.6479 22.4001C44.5168 22.5412 44.4053 22.6888 44.3102 22.8463C44.2184 23.0039 44.1397 23.1647 44.0774 23.3287C44.0151 23.4928 43.9659 23.6569 43.9265 23.8144L45.2874 26.0885L44.2676 26.6956L42.005 22.9185L43.0248 22.3082L43.3921 22.9218C43.4609 22.7577 43.5331 22.5937 43.6118 22.4296C43.6904 22.2655 43.779 22.1113 43.8806 21.9603C43.9823 21.8094 44.0971 21.6683 44.2282 21.537C44.3594 21.4057 44.5135 21.2843 44.6873 21.1826C44.7529 21.1432 44.8217 21.1071 44.8939 21.071C44.966 21.0349 45.0381 21.0054 45.107 20.9759C45.1759 20.9463 45.2447 20.9201 45.307 20.8971C45.3693 20.8741 45.4284 20.8544 45.4743 20.8413L45.9858 21.6945C45.9596 21.7011 45.9104 21.7109 45.8481 21.7273Z" fill="black"/>
<path d="M51.6815 22.6857L51.4946 22.2951C51.393 22.4363 51.2782 22.5741 51.1503 22.7053C51.0192 22.8399 50.8814 22.9646 50.7306 23.086C50.5798 23.2074 50.4191 23.3223 50.2486 23.4273C50.0781 23.5323 49.901 23.6307 49.7174 23.7193C49.5042 23.8211 49.2878 23.8998 49.0681 23.9556C48.8484 24.0114 48.6418 24.0311 48.4451 24.0114C48.2483 23.995 48.068 23.9359 47.904 23.8342C47.7401 23.7325 47.6089 23.575 47.5073 23.3649C47.3794 23.0958 47.3466 22.8399 47.4056 22.5905C47.4679 22.3411 47.6188 22.0884 47.8647 21.8324C48.1106 21.5765 48.4484 21.3041 48.8779 21.0219C49.3075 20.7397 49.8289 20.4312 50.4388 20.0965L50.3994 20.0145C50.3666 19.9488 50.3207 19.893 50.2551 19.8438C50.1896 19.7946 50.101 19.7683 49.983 19.7651C49.8682 19.7585 49.7239 19.7782 49.5501 19.8241C49.3763 19.8701 49.1665 19.9521 48.9206 20.0702C48.7271 20.1621 48.5402 20.2639 48.3598 20.3754C48.1795 20.487 48.009 20.6019 47.8516 20.72C47.6909 20.8381 47.5433 20.9595 47.4089 21.081C47.2712 21.2024 47.1531 21.3205 47.0482 21.4321L46.5924 20.4772C46.7105 20.3787 46.8449 20.2704 46.999 20.1588C47.1499 20.0473 47.3105 19.9324 47.481 19.8241C47.6516 19.7158 47.8253 19.6075 48.0024 19.5025C48.1795 19.4008 48.3533 19.3056 48.5238 19.2269C48.855 19.0661 49.1763 18.948 49.4846 18.8692C49.7928 18.7904 50.0748 18.7576 50.3338 18.7773C50.5929 18.797 50.8224 18.8659 51.0192 18.9873C51.2192 19.1087 51.3766 19.2925 51.4946 19.5386L52.7538 22.1704L51.6815 22.6857ZM50.8126 20.8742C50.4093 21.0875 50.0682 21.2779 49.7961 21.4452C49.5239 21.6126 49.2976 21.7603 49.1271 21.8915C48.9533 22.0228 48.8255 22.1343 48.7369 22.2295C48.6484 22.3247 48.5894 22.41 48.5566 22.4822C48.5238 22.5544 48.5139 22.6167 48.5238 22.6692C48.5336 22.7217 48.5467 22.7677 48.5664 22.8071C48.5894 22.853 48.6222 22.8924 48.6681 22.9219C48.714 22.9547 48.7763 22.9711 48.855 22.9744C48.9337 22.9777 49.0288 22.9646 49.1435 22.9318C49.2583 22.9022 49.3927 22.8497 49.5501 22.771C49.7239 22.6856 49.8912 22.5905 50.0453 22.4855C50.1994 22.3772 50.3404 22.2656 50.4683 22.1442C50.5962 22.0228 50.7109 21.9014 50.8126 21.7734C50.9142 21.6454 50.9995 21.5207 51.0684 21.396L50.8126 20.8742Z" fill="black"/>
<path d="M57.9839 20.1063C57.8561 20.2081 57.7183 20.3032 57.5741 20.3951C57.4298 20.487 57.2757 20.5723 57.1084 20.6511C56.9412 20.7331 56.7576 20.8086 56.5575 20.8775C56.1345 21.0285 55.7312 21.1236 55.3443 21.1597C54.9574 21.1958 54.6032 21.1696 54.2819 21.0777C53.9605 20.9858 53.6785 20.8316 53.4391 20.6084C53.1998 20.3886 53.0129 20.0932 52.8817 19.729C52.7505 19.3647 52.7079 19.0202 52.7538 18.6986C52.7997 18.3737 52.9178 18.0751 53.108 17.8027C53.2981 17.5303 53.5572 17.2842 53.8785 17.0643C54.1999 16.8478 54.5737 16.6607 54.9967 16.5098C55.1967 16.4376 55.3836 16.3818 55.5673 16.3358C55.7476 16.2932 55.9214 16.2604 56.0919 16.2374C56.2624 16.2177 56.4297 16.2046 56.5936 16.198C56.7576 16.1947 56.9215 16.1947 57.0888 16.2046L57.4495 17.212C57.3117 17.1923 57.1707 17.1726 57.0199 17.1562C56.8691 17.1398 56.7117 17.1365 56.5411 17.1398C56.3706 17.1464 56.187 17.1661 55.9935 17.1989C55.8001 17.2317 55.5869 17.2908 55.3574 17.3728C55.0065 17.4975 54.7278 17.6386 54.5212 17.7961C54.3147 17.9504 54.1638 18.1144 54.0687 18.2851C53.9736 18.4557 53.9244 18.6296 53.9244 18.8036C53.9244 18.9808 53.954 19.1514 54.013 19.3188C54.0523 19.4303 54.1048 19.5354 54.1671 19.6338C54.2294 19.7322 54.3048 19.8209 54.3966 19.8963C54.4884 19.9718 54.5901 20.0342 54.7114 20.0801C54.8295 20.1293 54.9672 20.1556 55.1246 20.1687C55.282 20.1818 55.4525 20.1687 55.646 20.1359C55.8361 20.1031 56.0526 20.0473 56.2854 19.962C56.5149 19.8799 56.7149 19.7913 56.8887 19.6962C57.0625 19.601 57.2166 19.5025 57.3511 19.4008C57.4855 19.2991 57.6068 19.1941 57.7118 19.0858C57.8167 18.9808 57.9151 18.8725 58.0069 18.7675L58.3676 19.7749C58.2397 19.8963 58.1151 20.0046 57.9839 20.1063Z" fill="black"/>
<path d="M60.9777 15.8534L61.8303 19.1908L60.6793 19.4861L59.8268 16.1487L58.02 16.6114L57.7806 15.6828L62.5517 14.4587L62.7878 15.3874L60.9777 15.8534Z" fill="black"/>
<path d="M69.605 15.5481C69.6607 15.9222 69.6443 16.2635 69.5492 16.5687C69.4541 16.8771 69.2967 17.1462 69.0705 17.3759C68.8442 17.6057 68.5557 17.7993 68.2081 17.9535C67.8605 18.1077 67.4572 18.2193 67.0047 18.2882C66.5522 18.3571 66.1324 18.3703 65.7521 18.3276C65.3717 18.2849 65.0372 18.1865 64.7519 18.0355C64.4634 17.8813 64.2306 17.6746 64.0469 17.4088C63.8633 17.143 63.7453 16.8246 63.6862 16.4505C63.6305 16.0764 63.6469 15.7352 63.7453 15.4267C63.8404 15.1182 64.0043 14.8491 64.2306 14.6194C64.4601 14.3897 64.7487 14.1961 65.0995 14.0419C65.4504 13.8876 65.8537 13.7761 66.3062 13.7072C66.7587 13.6382 67.1752 13.6251 67.5556 13.6678C67.9359 13.7104 68.2671 13.8089 68.5524 13.9631C68.8377 14.1174 69.0705 14.3241 69.2508 14.5899C69.4312 14.8557 69.5492 15.174 69.605 15.5481ZM68.4179 15.7286C68.3917 15.5645 68.3425 15.407 68.2671 15.2528C68.1917 15.0985 68.0769 14.9673 67.9261 14.859C67.7752 14.7507 67.5785 14.6719 67.3391 14.6293C67.0998 14.5833 66.8014 14.5866 66.4505 14.6424C66.2144 14.6785 66.0078 14.7277 65.834 14.7934C65.6602 14.859 65.5127 14.9312 65.3914 15.0165C65.27 15.1018 65.1717 15.1937 65.0962 15.2954C65.0208 15.3972 64.9651 15.5022 64.9257 15.6105C64.8897 15.7188 64.8667 15.8303 64.8602 15.9419C64.8536 16.0535 64.8602 16.1618 64.8765 16.2701C64.8929 16.3783 64.9192 16.4834 64.9585 16.5916C64.9979 16.6967 65.0503 16.7984 65.1192 16.8903C65.1881 16.9822 65.2733 17.0642 65.375 17.1397C65.4766 17.2119 65.5979 17.2709 65.7389 17.3169C65.8799 17.3628 66.0439 17.3891 66.2275 17.3989C66.4112 17.4088 66.6243 17.3956 66.8604 17.3595C67.2112 17.307 67.4965 17.2217 67.7129 17.1069C67.9294 16.992 68.0933 16.8607 68.2048 16.7098C68.3163 16.5621 68.3884 16.4013 68.4147 16.2307C68.4409 16.0568 68.4442 15.8927 68.4179 15.7286Z" fill="black"/>
<path d="M74.622 14.0222C74.5597 14.0058 74.4875 13.9927 74.4056 13.9796C74.3236 13.9664 74.235 13.9566 74.1367 13.9467C74.0383 13.9402 73.9399 13.9369 73.835 13.9435C73.6219 13.9566 73.4251 13.9927 73.2448 14.055C73.0644 14.1174 72.8939 14.1961 72.7398 14.2913C72.5857 14.3865 72.4414 14.4915 72.3102 14.6096C72.1791 14.7278 72.0577 14.8459 71.9495 14.9673L72.0938 17.6122L70.9068 17.6779L70.6641 13.2806L71.8511 13.215L71.8905 13.9271C72.0282 13.8122 72.1692 13.7006 72.3135 13.5956C72.4578 13.4873 72.6119 13.3922 72.7693 13.3068C72.9267 13.2215 73.0972 13.1493 73.2743 13.0935C73.4546 13.0377 73.6448 13.0049 73.8448 12.9918C73.9202 12.9885 73.9989 12.9885 74.0809 12.9885C74.1629 12.9918 74.2383 12.9951 74.317 13.0017C74.3957 13.0082 74.4646 13.0148 74.5302 13.0246C74.5957 13.0345 74.6548 13.0443 74.7039 13.0542L74.7597 14.0485C74.7302 14.0485 74.6843 14.0386 74.622 14.0222Z" fill="black"/>
<path d="M79.7603 14.4292C79.6783 14.3865 79.5701 14.3373 79.4357 14.2815C79.3012 14.2257 79.1471 14.1732 78.9766 14.1207C78.8061 14.0682 78.6192 14.0256 78.4159 13.9895C78.2126 13.9534 78.006 13.9304 77.7928 13.9238C77.6223 13.9173 77.4748 13.9205 77.3567 13.9271C77.2354 13.9337 77.1337 13.9435 77.0518 13.9599C76.9698 13.9731 76.9042 13.9927 76.855 14.0124C76.8058 14.0321 76.7698 14.0551 76.7435 14.0781C76.7173 14.101 76.7009 14.124 76.6911 14.147C76.6812 14.1699 76.678 14.1929 76.678 14.2093C76.6747 14.2717 76.7075 14.3307 76.7698 14.38C76.8321 14.4292 76.9173 14.4751 77.0288 14.5178C77.1403 14.5572 77.2682 14.5965 77.4125 14.6359C77.56 14.6753 77.7141 14.7114 77.8781 14.7541C78.0421 14.7934 78.2126 14.8394 78.3864 14.8853C78.5601 14.9313 78.7307 14.9871 78.8946 15.0461C79.0586 15.1085 79.2127 15.1774 79.357 15.2529C79.5012 15.3316 79.6291 15.4202 79.7373 15.5219C79.8455 15.6237 79.9275 15.7385 79.9898 15.8698C80.0488 16.0011 80.0784 16.1454 80.0718 16.3128C80.0652 16.5228 80.0226 16.7033 79.9439 16.8543C79.8652 17.0019 79.7603 17.1299 79.6324 17.2284C79.5045 17.3301 79.357 17.4088 79.1897 17.4679C79.0225 17.527 78.8487 17.5696 78.6684 17.5992C78.488 17.6287 78.3044 17.6451 78.1175 17.6484C77.9338 17.6517 77.7568 17.655 77.5895 17.6484C77.1534 17.6353 76.7534 17.5861 76.3861 17.504C76.0189 17.422 75.6942 17.3202 75.4122 17.2054L75.445 16.1553C75.7336 16.3259 76.0615 16.4638 76.432 16.5688C76.8026 16.6738 77.2026 16.7296 77.6289 16.7427C77.8814 16.7493 78.088 16.7427 78.2454 16.723C78.406 16.7 78.5306 16.6705 78.6225 16.6311C78.7143 16.5917 78.7766 16.5491 78.8094 16.4999C78.8421 16.4506 78.8618 16.4047 78.8618 16.3587C78.8651 16.2898 78.8356 16.2275 78.7733 16.1717C78.711 16.1159 78.6257 16.07 78.5142 16.0273C78.406 15.9847 78.2749 15.9453 78.1306 15.9059C77.983 15.8665 77.8289 15.8304 77.665 15.791C77.501 15.7517 77.3305 15.7123 77.1567 15.6696C76.9829 15.627 76.8157 15.5745 76.6517 15.5187C76.4878 15.4629 76.3337 15.394 76.1894 15.3218C76.0451 15.2496 75.9172 15.161 75.809 15.0625C75.7008 14.9641 75.6188 14.8525 75.5565 14.7245C75.4975 14.5965 75.468 14.4522 75.4745 14.2881C75.4811 14.0945 75.5204 13.9271 75.5926 13.7893C75.6647 13.6515 75.7598 13.5333 75.8811 13.4382C75.9992 13.343 76.1369 13.2675 76.291 13.2084C76.4451 13.1494 76.6091 13.1067 76.7763 13.0805C76.9468 13.0509 77.1174 13.0345 77.2911 13.0247C77.4649 13.0181 77.6289 13.0148 77.783 13.0214C77.9535 13.028 78.1273 13.0411 78.3077 13.0641C78.488 13.087 78.6651 13.1166 78.8389 13.1527C79.0127 13.1888 79.1799 13.2314 79.3438 13.2774C79.5045 13.3233 79.6554 13.3692 79.7931 13.4185L79.7603 14.4292Z" fill="black"/>
<path d="M87.1251 18.5704L87.1972 18.1438C87.0333 18.1996 86.8595 18.2456 86.6791 18.2784C86.4955 18.3112 86.3086 18.3342 86.1151 18.3473C85.9217 18.3604 85.7249 18.3604 85.5249 18.3473C85.3249 18.3342 85.1248 18.3112 84.9248 18.2784C84.692 18.239 84.469 18.1767 84.2592 18.0946C84.0493 18.0126 83.869 17.9076 83.7181 17.7796C83.5673 17.6516 83.4558 17.4974 83.3804 17.3202C83.305 17.143 83.2886 16.9395 83.3279 16.7065C83.3771 16.4145 83.4984 16.1847 83.6919 16.0174C83.8854 15.85 84.1575 15.7319 84.5051 15.663C84.856 15.5941 85.2855 15.5711 85.8003 15.5908C86.3152 15.6105 86.9152 15.6597 87.6104 15.7385L87.6268 15.6466C87.6399 15.5744 87.6333 15.5022 87.6071 15.4234C87.5809 15.348 87.5219 15.2725 87.4333 15.2003C87.3415 15.1281 87.2136 15.0625 87.0464 15.0001C86.8791 14.9378 86.6595 14.882 86.3906 14.836C86.1774 14.7999 85.9676 14.7737 85.7544 14.7606C85.5446 14.7474 85.338 14.7441 85.138 14.7474C84.9379 14.7507 84.7477 14.7638 84.5674 14.7868C84.3871 14.8098 84.2198 14.8327 84.069 14.8623L84.2493 13.8187C84.4034 13.8056 84.574 13.7991 84.7641 13.7925C84.9543 13.7892 85.1478 13.7892 85.3511 13.7991C85.5544 13.8056 85.7577 13.8187 85.961 13.8384C86.1643 13.8581 86.3611 13.8811 86.5447 13.9139C86.9087 13.9763 87.2399 14.0649 87.535 14.1764C87.8334 14.288 88.0793 14.4291 88.2793 14.5932C88.4793 14.7573 88.6269 14.9476 88.7187 15.1642C88.8105 15.3808 88.8335 15.6203 88.7876 15.8894L88.2924 18.7673L87.1251 18.5704ZM87.4628 16.5884C87.0103 16.5293 86.6234 16.4867 86.302 16.4637C85.9807 16.4407 85.7151 16.4341 85.4987 16.4407C85.2822 16.4473 85.1117 16.4637 84.9838 16.4932C84.856 16.5195 84.7609 16.5556 84.692 16.5949C84.6231 16.6343 84.5805 16.6803 84.5576 16.7295C84.5346 16.7787 84.5215 16.8214 84.5149 16.864C84.5051 16.9133 84.5117 16.9658 84.5313 17.0183C84.551 17.0708 84.5904 17.12 84.6527 17.1692C84.715 17.2184 84.8002 17.2611 84.9117 17.3005C85.0232 17.3399 85.1642 17.376 85.3347 17.4055C85.5249 17.4383 85.7151 17.4547 85.9053 17.458C86.0922 17.4613 86.2725 17.4482 86.4463 17.4252C86.6201 17.4022 86.7841 17.3661 86.9415 17.3202C87.0989 17.2742 87.2399 17.2217 87.3677 17.1627L87.4628 16.5884Z" fill="black"/>
<path d="M93.5455 20.1914L94.2243 17.8189C94.2702 17.6614 94.2964 17.5137 94.3063 17.3791C94.3161 17.2413 94.2964 17.1199 94.2505 17.0083C94.2046 16.8968 94.1226 16.795 94.0046 16.7097C93.8898 16.6211 93.7292 16.5489 93.5226 16.4898C93.3685 16.4439 93.1979 16.4176 93.0143 16.4111C92.8307 16.4045 92.6438 16.4111 92.4569 16.4341C92.27 16.457 92.0863 16.4898 91.906 16.5391C91.7256 16.5883 91.5617 16.6441 91.4141 16.713L90.6534 19.3678L89.5123 19.0396L90.7222 14.8064L91.8634 15.1346L91.6961 15.7154C91.8634 15.676 92.0404 15.6366 92.2241 15.6005C92.411 15.5644 92.6044 15.5415 92.8045 15.5283C93.0045 15.5152 93.2143 15.5185 93.4308 15.5349C93.6472 15.5513 93.8702 15.594 94.0997 15.6596C94.385 15.7416 94.6309 15.8499 94.8342 15.9812C95.0408 16.1157 95.2015 16.2667 95.3228 16.4373C95.4441 16.608 95.5195 16.795 95.5491 16.9985C95.5818 17.2019 95.5654 17.4152 95.4999 17.6351L94.6768 20.5196L93.5455 20.1914Z" fill="black"/>
<path d="M101.674 20.9398C101.566 21.2023 101.445 21.4222 101.304 21.5994C101.163 21.7799 101.012 21.921 100.845 22.0293C100.681 22.1376 100.504 22.2131 100.314 22.259C100.123 22.305 99.9299 22.3214 99.7266 22.3115C99.5233 22.3017 99.3134 22.2689 99.0937 22.2131C98.8773 22.1573 98.6576 22.0851 98.4346 21.9932L95.8507 20.9333L97.5198 16.8608L100.097 17.9175C100.32 18.0094 100.53 18.1111 100.723 18.226C100.917 18.3375 101.091 18.4622 101.242 18.6001C101.396 18.7379 101.524 18.8856 101.625 19.0496C101.73 19.2137 101.802 19.3909 101.842 19.5845C101.884 19.7781 101.891 19.9882 101.868 20.2146C101.845 20.4377 101.779 20.6806 101.674 20.9398ZM100.566 20.4837C100.645 20.2868 100.691 20.1063 100.7 19.9422C100.71 19.7781 100.678 19.6239 100.605 19.4861C100.533 19.345 100.415 19.217 100.255 19.0956C100.094 18.9742 99.884 18.8626 99.6249 18.7576L98.2575 18.1964L97.3132 20.4968L98.6806 21.058C98.9396 21.163 99.1691 21.2319 99.3659 21.2581C99.5659 21.2844 99.7397 21.2745 99.8905 21.2253C100.041 21.1761 100.173 21.0875 100.281 20.9661C100.392 20.8381 100.487 20.6806 100.566 20.4837Z" fill="black"/>
<path d="M108.783 26.0426C108.695 26.1903 108.6 26.3051 108.498 26.3905C108.396 26.4758 108.285 26.5381 108.17 26.5742C108.055 26.6103 107.934 26.6267 107.81 26.6169C107.685 26.607 107.554 26.5841 107.423 26.5414C107.288 26.502 107.154 26.4462 107.013 26.3773C106.875 26.3084 106.734 26.2329 106.593 26.1509L103.848 24.52L106.098 20.7363L108.793 22.3377C108.901 22.4034 109.006 22.4723 109.111 22.5445C109.216 22.6199 109.308 22.6987 109.393 22.7807C109.479 22.8661 109.551 22.9547 109.61 23.0498C109.669 23.145 109.708 23.2467 109.731 23.355C109.751 23.4633 109.751 23.5814 109.724 23.7029C109.702 23.8243 109.646 23.9555 109.564 24.0934C109.416 24.3395 109.242 24.497 109.036 24.5692C108.829 24.6414 108.58 24.625 108.292 24.5167C108.469 24.6381 108.61 24.7595 108.715 24.8809C108.819 25.0024 108.892 25.1238 108.931 25.2485C108.97 25.3732 108.977 25.4979 108.951 25.6291C108.924 25.7637 108.869 25.8982 108.783 26.0426ZM107.816 25.3075C107.869 25.2222 107.895 25.1435 107.895 25.0746C107.898 25.0056 107.875 24.9367 107.829 24.8711C107.783 24.8055 107.714 24.7398 107.619 24.6709C107.524 24.602 107.409 24.5265 107.272 24.4445L105.796 23.5683L105.321 24.369L106.796 25.2452C106.934 25.3272 107.055 25.3929 107.16 25.4421C107.265 25.4913 107.357 25.5208 107.436 25.5274C107.514 25.534 107.587 25.5208 107.646 25.488C107.711 25.4552 107.767 25.3929 107.816 25.3075ZM108.472 23.6668C108.501 23.6175 108.521 23.5683 108.531 23.5158C108.541 23.4633 108.537 23.4108 108.518 23.355C108.498 23.2992 108.462 23.2402 108.41 23.1811C108.354 23.122 108.278 23.063 108.173 23.0006L106.668 22.1047L106.245 22.8168L107.75 23.7127C107.852 23.7751 107.944 23.8144 108.019 23.8374C108.095 23.8571 108.164 23.8637 108.219 23.8571C108.275 23.8472 108.324 23.8276 108.367 23.7915C108.41 23.7554 108.442 23.7127 108.472 23.6668Z" fill="black"/>
<path d="M112.551 24.8119L111.062 26.794C110.964 26.9252 110.885 27.0532 110.826 27.1779C110.767 27.3026 110.741 27.424 110.744 27.5455C110.748 27.6669 110.787 27.7883 110.862 27.9097C110.938 28.0311 111.062 28.1591 111.236 28.2871C111.364 28.3855 111.515 28.4676 111.685 28.5398C111.856 28.612 112.033 28.671 112.217 28.7137C112.4 28.7596 112.587 28.7892 112.771 28.8089C112.958 28.8253 113.131 28.8318 113.295 28.822L114.955 26.6135L115.902 27.3256L113.259 30.8467L112.312 30.1346L112.672 29.6522C112.502 29.6293 112.322 29.603 112.138 29.5702C111.951 29.5374 111.761 29.4914 111.567 29.4324C111.374 29.3733 111.177 29.2978 110.98 29.2059C110.784 29.1141 110.59 28.9959 110.4 28.8515C110.164 28.6743 109.97 28.484 109.826 28.2871C109.682 28.0902 109.583 27.8867 109.531 27.6866C109.482 27.4831 109.475 27.2829 109.518 27.0795C109.561 26.8793 109.652 26.6857 109.79 26.5019L111.597 24.0933L112.551 24.8119Z" fill="black"/>
<path d="M119.332 32.12C119.299 32.0347 119.25 31.9264 119.185 31.7951C119.119 31.6639 119.037 31.5228 118.942 31.3718C118.847 31.2209 118.735 31.0633 118.608 30.9025C118.48 30.7417 118.339 30.5875 118.181 30.4431C118.057 30.3283 117.945 30.2331 117.85 30.1576C117.755 30.0822 117.67 30.0264 117.598 29.9804C117.525 29.9378 117.463 29.9082 117.414 29.8918C117.365 29.8754 117.319 29.8689 117.286 29.8656C117.25 29.8656 117.224 29.8721 117.201 29.8853C117.181 29.8984 117.161 29.9115 117.148 29.9246C117.106 29.9706 117.089 30.0329 117.106 30.115C117.119 30.1937 117.155 30.2856 117.211 30.3873C117.266 30.4891 117.339 30.6039 117.424 30.7286C117.509 30.8533 117.601 30.9846 117.699 31.1224C117.798 31.2602 117.896 31.4046 117.998 31.5556C118.099 31.7065 118.191 31.8575 118.273 32.0117C118.355 32.1659 118.427 32.3202 118.486 32.4744C118.545 32.6286 118.581 32.7796 118.594 32.9273C118.608 33.0749 118.598 33.216 118.555 33.3539C118.516 33.4917 118.44 33.6197 118.329 33.7411C118.184 33.8953 118.034 34.0036 117.876 34.066C117.719 34.125 117.558 34.1513 117.394 34.1447C117.23 34.1382 117.07 34.0988 116.906 34.0332C116.742 33.9675 116.584 33.8855 116.427 33.787C116.273 33.6886 116.122 33.5803 115.981 33.4654C115.837 33.3473 115.706 33.2325 115.584 33.1176C115.266 32.8223 114.994 32.5204 114.771 32.2184C114.548 31.9133 114.368 31.6245 114.233 31.3554L114.945 30.5842C115.05 30.9025 115.207 31.2209 115.42 31.5457C115.633 31.8673 115.896 32.1725 116.21 32.4646C116.394 32.6352 116.555 32.7665 116.689 32.8551C116.824 32.9437 116.938 33.0027 117.034 33.0323C117.129 33.0618 117.204 33.0717 117.26 33.0552C117.316 33.0421 117.361 33.0192 117.391 32.9831C117.44 32.9305 117.457 32.8649 117.447 32.7829C117.434 32.7008 117.401 32.609 117.348 32.5039C117.293 32.3989 117.224 32.2841 117.138 32.1594C117.053 32.0347 116.961 31.9034 116.863 31.7689C116.765 31.6311 116.663 31.4899 116.561 31.3423C116.46 31.1946 116.365 31.0469 116.279 30.896C116.194 30.745 116.119 30.5941 116.06 30.4431C115.997 30.2922 115.961 30.1445 115.942 30.0001C115.925 29.8557 115.935 29.7146 115.974 29.5801C116.014 29.4455 116.086 29.3175 116.197 29.1961C116.329 29.055 116.47 28.9533 116.614 28.8975C116.758 28.8417 116.909 28.8155 117.063 28.822C117.217 28.8286 117.368 28.8614 117.522 28.9172C117.676 28.9763 117.827 29.0485 117.975 29.1403C118.122 29.2289 118.263 29.3274 118.398 29.4357C118.532 29.544 118.657 29.6523 118.771 29.7573C118.896 29.8721 119.021 30.0001 119.142 30.1347C119.263 30.2692 119.378 30.407 119.483 30.5514C119.591 30.6925 119.69 30.8336 119.781 30.9747C119.873 31.1158 119.955 31.2504 120.027 31.3784L119.332 32.12Z" fill="black"/>
<path d="M118.155 35.4671L121.352 32.4448L122.169 33.3079L118.968 36.3302L118.155 35.4671Z" fill="black"/>
<path d="M122.519 40.5142L124.434 38.962C124.562 38.857 124.671 38.7553 124.756 38.647C124.841 38.542 124.897 38.4304 124.923 38.309C124.949 38.1908 124.939 38.0628 124.894 37.925C124.848 37.7872 124.759 37.633 124.625 37.4689C124.523 37.3409 124.398 37.2228 124.254 37.1112C124.107 36.9996 123.952 36.8979 123.785 36.8093C123.618 36.7174 123.447 36.6419 123.274 36.5796C123.1 36.5172 122.933 36.4713 122.772 36.4385L120.627 38.1777L119.88 37.2523L123.3 34.4827L124.047 35.4081L123.579 35.7887C123.739 35.8511 123.907 35.92 124.077 35.9987C124.248 36.0775 124.421 36.1694 124.592 36.2744C124.766 36.3794 124.933 36.5008 125.103 36.6387C125.271 36.7765 125.428 36.9406 125.579 37.1243C125.766 37.354 125.903 37.5837 125.995 37.8102C126.087 38.0366 126.133 38.2565 126.133 38.4632C126.133 38.6732 126.087 38.8701 125.999 39.0539C125.907 39.2376 125.772 39.405 125.592 39.5494L123.264 41.4363L122.519 40.5142Z" fill="black"/>
<path d="M126.818 46.4573C126.523 46.2177 126.258 45.9618 126.018 45.6861C125.779 45.4105 125.559 45.1151 125.356 44.8001C125.097 44.3965 124.907 44.0092 124.792 43.6351C124.677 43.2643 124.631 42.9165 124.657 42.5949C124.684 42.2733 124.779 41.9779 124.946 41.7121C125.113 41.4463 125.346 41.2133 125.648 41.0197C125.926 40.8392 126.225 40.7277 126.536 40.6883C126.848 40.6489 127.163 40.6752 127.474 40.7703C127.786 40.8655 128.087 41.0296 128.376 41.2626C128.668 41.4956 128.93 41.7942 129.163 42.1584C129.379 42.4931 129.53 42.8311 129.619 43.1691C129.707 43.5071 129.727 43.832 129.678 44.1471C129.629 44.4621 129.51 44.7574 129.32 45.0364C129.13 45.3153 128.868 45.5614 128.527 45.7813L128.278 45.9421L125.933 42.293C125.838 42.4013 125.766 42.5227 125.717 42.6605C125.667 42.7983 125.651 42.9526 125.664 43.1232C125.677 43.2938 125.726 43.4842 125.808 43.6975C125.89 43.9075 126.015 44.1438 126.179 44.3997C126.297 44.5835 126.425 44.7541 126.559 44.9182C126.694 45.079 126.831 45.2267 126.966 45.3547C127.1 45.4826 127.232 45.5942 127.353 45.6894C127.477 45.7846 127.586 45.8535 127.677 45.8994L126.818 46.4573ZM128.376 44.4785C128.461 44.4096 128.54 44.321 128.609 44.2127C128.678 44.1044 128.72 43.9731 128.733 43.8255C128.75 43.6745 128.73 43.5039 128.678 43.3103C128.625 43.1166 128.523 42.9001 128.369 42.6638C128.225 42.4374 128.071 42.2634 127.91 42.1355C127.75 42.0075 127.592 41.9156 127.438 41.8565C127.284 41.7975 127.14 41.7712 127.005 41.7712C126.871 41.7712 126.756 41.7876 126.664 41.8237L128.376 44.4785Z" fill="black"/>
<path d="M131.943 49.9192C131.94 49.8273 131.934 49.7092 131.917 49.5615C131.901 49.4171 131.875 49.2563 131.835 49.0824C131.799 48.9085 131.747 48.7214 131.681 48.5278C131.616 48.3342 131.537 48.1406 131.439 47.9502C131.36 47.7993 131.291 47.6713 131.225 47.5696C131.16 47.4679 131.104 47.3825 131.052 47.3169C130.999 47.2513 130.953 47.202 130.911 47.1692C130.868 47.1364 130.832 47.1134 130.799 47.1036C130.766 47.0905 130.737 47.0872 130.714 47.0905C130.691 47.0938 130.668 47.1003 130.652 47.1102C130.596 47.1397 130.56 47.1922 130.547 47.271C130.533 47.3497 130.533 47.4482 130.55 47.563C130.566 47.6779 130.596 47.8091 130.632 47.9568C130.668 48.1045 130.711 48.2587 130.753 48.4228C130.796 48.5869 130.842 48.7575 130.884 48.9314C130.927 49.1086 130.963 49.2826 130.986 49.4532C131.009 49.6238 131.025 49.7945 131.025 49.9586C131.025 50.1226 131.009 50.2769 130.973 50.4213C130.937 50.5656 130.875 50.6936 130.789 50.8085C130.704 50.9233 130.589 51.0185 130.442 51.094C130.255 51.1891 130.074 51.2384 129.907 51.2417C129.737 51.2449 129.579 51.2121 129.428 51.1498C129.278 51.0874 129.14 50.9955 129.009 50.8774C128.878 50.7593 128.756 50.628 128.645 50.4836C128.533 50.3392 128.428 50.185 128.337 50.0242C128.241 49.8634 128.159 49.7092 128.084 49.5615C127.887 49.1743 127.736 48.7969 127.632 48.4359C127.527 48.0749 127.458 47.7402 127.425 47.4383L128.359 46.9592C128.346 47.2939 128.386 47.6483 128.474 48.0257C128.563 48.4031 128.704 48.7805 128.897 49.1611C129.012 49.3843 129.117 49.5615 129.212 49.6928C129.307 49.824 129.396 49.9192 129.474 49.9782C129.553 50.0406 129.622 50.0734 129.678 50.08C129.737 50.0865 129.786 50.08 129.825 50.0603C129.888 50.0275 129.927 49.9717 129.947 49.8896C129.966 49.8076 129.966 49.7092 129.95 49.5943C129.933 49.4762 129.907 49.3449 129.871 49.2005C129.835 49.0528 129.792 48.8986 129.747 48.7378C129.701 48.5737 129.655 48.4064 129.609 48.2325C129.563 48.0585 129.527 47.8879 129.497 47.714C129.468 47.5433 129.451 47.376 129.448 47.2119C129.442 47.0478 129.458 46.8969 129.491 46.7525C129.524 46.6114 129.583 46.4834 129.665 46.3685C129.747 46.2537 129.861 46.1618 130.009 46.0863C130.183 45.9977 130.347 45.9518 130.504 45.9485C130.661 45.9452 130.809 45.9747 130.95 46.0305C131.091 46.0896 131.225 46.1716 131.35 46.2799C131.475 46.3882 131.589 46.5096 131.698 46.6442C131.806 46.7787 131.904 46.9198 131.993 47.0675C132.084 47.2152 132.163 47.3596 132.235 47.4974C132.314 47.6483 132.386 47.8091 132.452 47.9798C132.517 48.1471 132.576 48.3178 132.629 48.4884C132.681 48.6591 132.727 48.8264 132.763 48.9905C132.803 49.1546 132.832 49.3088 132.855 49.4532L131.943 49.9192Z" fill="black"/>
<path d="M134.14 55.2221C134.147 55.1302 134.15 55.0088 134.147 54.8644C134.144 54.7168 134.131 54.556 134.111 54.3788C134.091 54.2016 134.055 54.0112 134.009 53.811C133.963 53.6109 133.901 53.4107 133.822 53.2138C133.76 53.0563 133.701 52.9217 133.645 52.8135C133.59 52.7052 133.54 52.6166 133.495 52.5444C133.449 52.4755 133.406 52.4197 133.367 52.3836C133.327 52.3475 133.291 52.3212 133.262 52.3048C133.229 52.2884 133.203 52.2818 133.176 52.2851C133.15 52.2884 133.131 52.2917 133.111 52.2983C133.052 52.3212 133.012 52.3737 132.99 52.4492C132.97 52.528 132.96 52.6231 132.967 52.7413C132.973 52.8594 132.986 52.9907 133.012 53.1416C133.035 53.2926 133.062 53.4501 133.091 53.6174C133.121 53.7848 133.147 53.9587 133.173 54.1359C133.199 54.3164 133.216 54.4903 133.226 54.6675C133.235 54.8415 133.232 55.0121 133.219 55.1762C133.206 55.3403 133.173 55.4912 133.124 55.6323C133.075 55.7701 132.999 55.8948 132.904 56.0031C132.809 56.1114 132.685 56.1935 132.53 56.2558C132.334 56.3346 132.153 56.3674 131.983 56.3543C131.812 56.3411 131.658 56.2952 131.514 56.2164C131.37 56.1377 131.239 56.0359 131.12 55.9047C131.002 55.7734 130.891 55.6323 130.793 55.4781C130.694 55.3238 130.606 55.1631 130.527 54.9924C130.448 54.8251 130.379 54.6643 130.317 54.5067C130.156 54.1031 130.042 53.7126 129.969 53.3418C129.897 52.971 129.861 52.633 129.855 52.3311L130.832 51.9438C130.789 52.2753 130.793 52.633 130.848 53.0169C130.901 53.3976 131.006 53.7881 131.163 54.1852C131.255 54.4181 131.343 54.6052 131.429 54.743C131.511 54.8808 131.589 54.9826 131.662 55.0515C131.734 55.1204 131.799 55.1598 131.855 55.1696C131.914 55.1795 131.963 55.1795 132.003 55.1631C132.068 55.1368 132.114 55.0843 132.137 55.0055C132.16 54.9268 132.173 54.8283 132.166 54.7102C132.163 54.5921 132.15 54.4575 132.124 54.3098C132.101 54.1589 132.075 54.0014 132.042 53.8373C132.012 53.6699 131.983 53.4993 131.953 53.3221C131.924 53.1449 131.904 52.971 131.891 52.797C131.878 52.6231 131.878 52.4558 131.888 52.2917C131.898 52.1276 131.927 51.9799 131.973 51.8388C132.019 51.701 132.091 51.5796 132.183 51.4713C132.275 51.3663 132.399 51.281 132.55 51.2219C132.73 51.1497 132.898 51.1202 133.055 51.13C133.209 51.1431 133.357 51.1825 133.491 51.2547C133.626 51.3269 133.75 51.4221 133.865 51.5402C133.98 51.6583 134.081 51.7896 134.177 51.934C134.272 52.0784 134.354 52.2293 134.432 52.3836C134.508 52.5411 134.573 52.6888 134.632 52.8364C134.695 52.9939 134.754 53.1613 134.803 53.3352C134.852 53.5091 134.898 53.6831 134.934 53.857C134.97 54.0309 135 54.2016 135.023 54.3689C135.046 54.5363 135.062 54.6938 135.072 54.8382L134.14 55.2221Z" fill="black"/>
<path d="M133.229 62.3499C133.016 62.0349 132.832 61.7133 132.685 61.3818C132.534 61.0504 132.409 60.7025 132.307 60.3416C132.176 59.8789 132.107 59.4523 132.104 59.065C132.101 58.6745 132.16 58.33 132.278 58.0313C132.396 57.7294 132.573 57.4768 132.809 57.27C133.045 57.0633 133.337 56.9091 133.681 56.8106C134.003 56.7187 134.318 56.699 134.629 56.7515C134.941 56.804 135.232 56.9189 135.501 57.1027C135.77 57.2832 136.013 57.5293 136.223 57.8345C136.433 58.1396 136.597 58.5039 136.718 58.9207C136.829 59.3046 136.875 59.6721 136.865 60.02C136.852 60.3678 136.777 60.6861 136.639 60.9749C136.501 61.2604 136.301 61.5098 136.039 61.7231C135.777 61.9331 135.452 62.0972 135.065 62.2055L134.783 62.2875L133.593 58.1167C133.468 58.1921 133.367 58.2873 133.278 58.4054C133.193 58.5236 133.131 58.6647 133.094 58.832C133.058 58.9994 133.049 59.1963 133.065 59.4227C133.081 59.6459 133.134 59.9084 133.219 60.2037C133.278 60.4138 133.35 60.6139 133.432 60.8075C133.514 61.0012 133.603 61.1816 133.695 61.3424C133.786 61.5065 133.878 61.6509 133.97 61.7756C134.062 61.9003 134.147 62.002 134.222 62.071L133.229 62.3499ZM135.291 60.9093C135.393 60.8699 135.491 60.8076 135.59 60.7222C135.685 60.6369 135.764 60.5253 135.823 60.3875C135.882 60.2497 135.911 60.079 135.918 59.8789C135.924 59.6787 135.888 59.4424 135.81 59.17C135.737 58.9141 135.642 58.7008 135.524 58.5334C135.406 58.3661 135.285 58.2315 135.154 58.1298C135.023 58.0313 134.895 57.9624 134.764 57.9231C134.636 57.8837 134.521 57.8673 134.423 57.8738L135.291 60.9093Z" fill="black"/>
<path d="M137.138 67.1473C137.164 67.0587 137.187 66.9406 137.213 66.7995C137.239 66.6551 137.259 66.4943 137.272 66.3171C137.285 66.1399 137.292 65.9463 137.285 65.7428C137.279 65.5394 137.259 65.3294 137.22 65.1193C137.19 64.952 137.157 64.8076 137.124 64.6927C137.092 64.5746 137.062 64.4794 137.029 64.4007C137 64.3219 136.967 64.2628 136.938 64.2202C136.908 64.1775 136.878 64.1447 136.849 64.125C136.823 64.1053 136.797 64.0922 136.77 64.0889C136.744 64.0856 136.724 64.0856 136.705 64.0889C136.642 64.0988 136.593 64.1414 136.557 64.2136C136.521 64.2858 136.495 64.3777 136.478 64.4958C136.462 64.6107 136.449 64.7452 136.442 64.8962C136.436 65.0471 136.429 65.2079 136.426 65.3753C136.419 65.5459 136.413 65.7199 136.403 65.9003C136.393 66.0808 136.377 66.258 136.351 66.432C136.324 66.6059 136.288 66.77 136.242 66.9275C136.196 67.085 136.134 67.2294 136.059 67.3541C135.983 67.4788 135.885 67.5871 135.77 67.6724C135.655 67.7577 135.518 67.8168 135.357 67.8463C135.15 67.8824 134.964 67.8791 134.8 67.8332C134.636 67.7872 134.495 67.7118 134.367 67.6068C134.242 67.5017 134.134 67.3738 134.042 67.2228C133.95 67.0719 133.872 66.9111 133.806 66.7404C133.74 66.5698 133.685 66.3926 133.642 66.2121C133.599 66.0316 133.563 65.861 133.534 65.6969C133.455 65.267 133.419 64.8634 133.426 64.486C133.429 64.1086 133.458 63.7706 133.514 63.472L134.547 63.2849C134.439 63.6 134.373 63.9544 134.35 64.3383C134.327 64.7223 134.354 65.1259 134.429 65.5459C134.475 65.7953 134.524 65.9955 134.58 66.1465C134.636 66.2974 134.691 66.4156 134.747 66.4943C134.803 66.5763 134.859 66.6256 134.914 66.6485C134.967 66.6715 135.016 66.6781 135.062 66.6715C135.131 66.6584 135.186 66.6157 135.226 66.5435C135.265 66.4713 135.295 66.3762 135.314 66.2613C135.334 66.1465 135.347 66.0119 135.354 65.861C135.36 65.71 135.364 65.5492 135.367 65.3819C135.37 65.2112 135.377 65.0373 135.38 64.8601C135.387 64.6796 135.4 64.5057 135.423 64.3318C135.446 64.1611 135.475 63.9938 135.518 63.8362C135.56 63.6787 135.616 63.5376 135.691 63.4096C135.764 63.2849 135.859 63.1767 135.97 63.0913C136.082 63.006 136.219 62.9502 136.38 62.9207C136.57 62.8846 136.741 62.8912 136.892 62.9305C137.042 62.9732 137.177 63.0421 137.295 63.1406C137.413 63.239 137.518 63.3539 137.603 63.495C137.692 63.6328 137.767 63.7837 137.829 63.9445C137.892 64.1053 137.947 64.2694 137.99 64.4368C138.033 64.6041 138.069 64.7649 138.098 64.9192C138.128 65.0865 138.151 65.2604 138.167 65.4442C138.184 65.6247 138.19 65.8052 138.19 65.9824C138.19 66.1596 138.187 66.3335 138.174 66.5009C138.164 66.6682 138.147 66.8257 138.128 66.9701L137.138 67.1473Z" fill="black"/>
<path d="M135.449 74.9936L135.347 72.5422L134.498 72.1649L134.442 70.8391L138.934 72.959L138.99 74.2848L134.688 76.7689L134.632 75.4431L135.449 74.9936ZM136.223 72.9295L136.292 74.5374L137.875 73.6711L136.223 72.9295Z" fill="black"/>
<path d="M137.58 81.6061C137.626 81.524 137.675 81.419 137.734 81.2845C137.793 81.1499 137.849 80.999 137.905 80.8284C137.961 80.6577 138.01 80.4707 138.052 80.2705C138.095 80.0703 138.121 79.8636 138.131 79.6503C138.141 79.4796 138.144 79.3352 138.138 79.2138C138.134 79.0924 138.125 78.9907 138.111 78.9086C138.098 78.8266 138.082 78.761 138.062 78.7117C138.043 78.6625 138.023 78.6231 138 78.5969C137.977 78.5706 137.954 78.551 137.931 78.5444C137.908 78.5345 137.888 78.5313 137.869 78.5313C137.803 78.528 137.747 78.5575 137.695 78.6166C137.643 78.6789 137.597 78.7643 137.554 78.8725C137.511 78.9808 137.469 79.1088 137.426 79.2532C137.383 79.3976 137.341 79.5518 137.298 79.7159C137.256 79.88 137.206 80.0473 137.154 80.2213C137.101 80.3952 137.046 80.5625 136.98 80.7266C136.915 80.8907 136.842 81.0417 136.76 81.186C136.678 81.3304 136.587 81.4551 136.482 81.5601C136.377 81.6652 136.259 81.7472 136.128 81.803C135.996 81.8588 135.849 81.885 135.685 81.8752C135.475 81.862 135.295 81.8161 135.147 81.7341C135 81.652 134.878 81.5437 134.78 81.4125C134.682 81.2812 134.606 81.1335 134.554 80.9662C134.501 80.7988 134.462 80.6249 134.436 80.4411C134.413 80.2574 134.4 80.0736 134.4 79.8898C134.4 79.7061 134.403 79.5289 134.413 79.3615C134.436 78.925 134.495 78.5247 134.586 78.1604C134.678 77.7929 134.783 77.4713 134.908 77.1924L135.957 77.2482C135.78 77.5304 135.636 77.8585 135.521 78.2261C135.409 78.5936 135.341 78.994 135.318 79.4206C135.305 79.6732 135.305 79.88 135.324 80.0375C135.341 80.1983 135.37 80.323 135.406 80.4149C135.442 80.5068 135.485 80.5691 135.531 80.6052C135.577 80.6413 135.623 80.6577 135.669 80.661C135.737 80.6643 135.803 80.6347 135.859 80.5757C135.914 80.5133 135.964 80.428 136.01 80.3197C136.055 80.2114 136.098 80.0834 136.141 79.9391C136.18 79.7947 136.223 79.6404 136.265 79.4764C136.308 79.3123 136.354 79.1449 136.4 78.971C136.449 78.7971 136.501 78.6297 136.564 78.4689C136.626 78.3048 136.695 78.1539 136.77 78.0095C136.846 77.8651 136.938 77.7404 137.036 77.6354C137.138 77.5304 137.252 77.4483 137.38 77.3926C137.508 77.3368 137.656 77.3105 137.82 77.3204C138.013 77.3302 138.18 77.3729 138.315 77.4483C138.449 77.5238 138.567 77.6223 138.659 77.7437C138.751 77.8651 138.826 78.0029 138.879 78.1604C138.931 78.318 138.971 78.4788 138.997 78.6494C139.023 78.82 139.036 78.9907 139.039 79.1646C139.043 79.3385 139.039 79.5026 139.033 79.6601C139.023 79.8308 139.007 80.0047 138.977 80.1852C138.951 80.3657 138.918 80.5396 138.875 80.7135C138.833 80.8874 138.79 81.0548 138.741 81.2156C138.692 81.3764 138.643 81.524 138.59 81.6619L137.58 81.6061Z" fill="black"/>
<path d="M136.826 87.2928C136.879 87.2173 136.941 87.1156 137.01 86.9844C137.079 86.8564 137.151 86.712 137.223 86.5479C137.292 86.3838 137.361 86.2033 137.42 86.0065C137.479 85.8096 137.525 85.6061 137.557 85.3961C137.584 85.2254 137.597 85.0811 137.606 84.9596C137.613 84.8382 137.613 84.7365 137.61 84.6512C137.603 84.5691 137.597 84.5002 137.58 84.4477C137.564 84.3985 137.547 84.3558 137.528 84.3296C137.508 84.3 137.488 84.2804 137.465 84.2705C137.443 84.2607 137.423 84.2541 137.403 84.2508C137.341 84.241 137.279 84.2639 137.223 84.323C137.167 84.3788 137.111 84.4608 137.059 84.5626C137.006 84.6643 136.954 84.789 136.898 84.9301C136.842 85.0712 136.787 85.2222 136.728 85.3797C136.669 85.5372 136.606 85.7013 136.538 85.8686C136.472 86.036 136.397 86.2001 136.318 86.3543C136.239 86.5085 136.151 86.6562 136.059 86.7907C135.964 86.9253 135.862 87.0401 135.747 87.1353C135.632 87.2305 135.511 87.2994 135.373 87.3453C135.239 87.3913 135.088 87.4011 134.924 87.3781C134.714 87.3486 134.541 87.283 134.403 87.1878C134.265 87.0927 134.15 86.9745 134.065 86.8367C133.98 86.6989 133.918 86.5413 133.878 86.3707C133.839 86.2001 133.816 86.0196 133.809 85.8391C133.803 85.6553 133.806 85.4716 133.822 85.2878C133.839 85.104 133.859 84.9268 133.885 84.7627C133.947 84.3329 134.042 83.9391 134.167 83.5814C134.291 83.2237 134.426 82.9152 134.573 82.6494L135.613 82.8036C135.41 83.0695 135.236 83.3812 135.091 83.7389C134.947 84.0966 134.842 84.4871 134.78 84.9104C134.744 85.1598 134.727 85.3633 134.731 85.5273C134.734 85.6881 134.75 85.8161 134.777 85.9113C134.803 86.0065 134.839 86.0721 134.885 86.1115C134.927 86.1508 134.973 86.1738 135.016 86.1804C135.085 86.1902 135.15 86.1672 135.213 86.1115C135.275 86.0557 135.331 85.9769 135.387 85.8719C135.442 85.7669 135.495 85.6455 135.551 85.5044C135.606 85.3633 135.659 85.2123 135.718 85.0548C135.773 84.8973 135.836 84.7332 135.898 84.5658C135.96 84.3985 136.033 84.2377 136.108 84.0802C136.183 83.9227 136.265 83.7783 136.357 83.6437C136.449 83.5092 136.547 83.391 136.659 83.2959C136.77 83.2007 136.892 83.1285 137.023 83.0859C137.157 83.0399 137.302 83.0301 137.465 83.053C137.659 83.0826 137.82 83.1384 137.948 83.227C138.075 83.3156 138.184 83.4239 138.262 83.5551C138.344 83.6864 138.403 83.8308 138.443 83.9916C138.482 84.1524 138.505 84.3165 138.515 84.4904C138.525 84.661 138.521 84.8349 138.508 85.0089C138.495 85.1828 138.479 85.3469 138.456 85.5011C138.43 85.6685 138.397 85.8424 138.354 86.0196C138.311 86.1968 138.262 86.3674 138.207 86.5381C138.151 86.7054 138.089 86.8695 138.026 87.0237C137.964 87.178 137.898 87.3224 137.833 87.4536L136.826 87.2928Z" fill="black"/>
<path d="M134.193 94.2563C133.826 94.1644 133.521 94.0135 133.275 93.8067C133.029 93.6 132.842 93.3506 132.717 93.052C132.593 92.7534 132.527 92.4121 132.521 92.0314C132.514 91.6507 132.57 91.2373 132.681 90.791C132.796 90.3447 132.944 89.9542 133.134 89.6195C133.321 89.2847 133.54 89.0157 133.793 88.8089C134.045 88.6055 134.331 88.4676 134.642 88.4053C134.957 88.3397 135.298 88.3528 135.665 88.4479C136.033 88.5398 136.338 88.6908 136.583 88.9008C136.829 89.1075 137.013 89.3635 137.138 89.6621C137.262 89.9607 137.328 90.3053 137.331 90.6893C137.334 91.0732 137.282 91.4867 137.17 91.933C137.059 92.3793 136.908 92.7665 136.721 93.1012C136.534 93.4326 136.315 93.7017 136.062 93.9052C135.81 94.1086 135.528 94.2399 135.213 94.3055C134.898 94.3646 134.56 94.3482 134.193 94.2563ZM134.488 93.0914C134.649 93.1307 134.813 93.1471 134.983 93.1373C135.154 93.1274 135.318 93.0717 135.478 92.9765C135.636 92.8781 135.783 92.7304 135.921 92.5236C136.056 92.3202 136.167 92.0445 136.256 91.7C136.315 91.467 136.347 91.2602 136.357 91.0732C136.367 90.8861 136.354 90.7221 136.321 90.5777C136.288 90.4333 136.242 90.3053 136.177 90.197C136.115 90.0887 136.039 89.9936 135.954 89.9181C135.869 89.8426 135.777 89.777 135.675 89.731C135.573 89.6851 135.472 89.6457 135.367 89.6195C135.262 89.5932 135.15 89.5768 135.039 89.5702C134.924 89.5637 134.813 89.5735 134.701 89.6031C134.59 89.6293 134.482 89.6753 134.373 89.7409C134.265 89.8065 134.167 89.8951 134.068 90.0067C133.973 90.1183 133.885 90.2594 133.803 90.4267C133.721 90.5941 133.652 90.7943 133.593 91.024C133.504 91.3685 133.472 91.6639 133.495 91.9067C133.517 92.1495 133.573 92.353 133.668 92.5138C133.763 92.6746 133.881 92.8026 134.026 92.8912C134.17 92.9798 134.327 93.0487 134.488 93.0914Z" fill="black"/>
<path d="M130.337 98.785C130.343 98.6209 130.356 98.4536 130.379 98.2862C130.402 98.1156 130.435 97.9417 130.481 97.7612C130.527 97.5807 130.586 97.3936 130.661 97.1935C130.816 96.7734 131.006 96.4026 131.225 96.081C131.445 95.7627 131.694 95.5067 131.97 95.3197C132.245 95.1326 132.544 95.0178 132.868 94.9751C133.193 94.9325 133.534 94.9784 133.898 95.113C134.262 95.2475 134.55 95.4345 134.77 95.6774C134.99 95.9202 135.141 96.2024 135.226 96.5273C135.311 96.8489 135.334 97.2033 135.295 97.5905C135.255 97.9778 135.157 98.3814 135 98.8014C134.927 98.9983 134.849 99.1821 134.767 99.3494C134.685 99.5168 134.596 99.671 134.504 99.8154C134.413 99.9598 134.314 100.094 134.213 100.222C134.111 100.35 134.003 100.475 133.888 100.6L132.885 100.229C132.99 100.137 133.094 100.042 133.203 99.9368C133.311 99.8318 133.416 99.7137 133.524 99.5792C133.632 99.4446 133.731 99.2937 133.829 99.123C133.927 98.9524 134.019 98.7522 134.104 98.5258C134.236 98.1746 134.308 97.8695 134.321 97.6135C134.334 97.3543 134.308 97.1344 134.239 96.9506C134.17 96.7669 134.068 96.6192 133.934 96.5043C133.799 96.3895 133.649 96.3042 133.481 96.2418C133.37 96.2024 133.258 96.1729 133.144 96.1565C133.029 96.1401 132.911 96.1434 132.796 96.163C132.681 96.1827 132.567 96.2254 132.452 96.2845C132.337 96.3435 132.229 96.4321 132.121 96.5437C132.012 96.6553 131.911 96.7964 131.809 96.9637C131.711 97.1311 131.616 97.3313 131.53 97.5676C131.445 97.7973 131.383 98.0073 131.347 98.2009C131.311 98.3945 131.284 98.575 131.278 98.7456C131.268 98.9163 131.271 99.0738 131.288 99.2247C131.304 99.3757 131.321 99.5168 131.343 99.6546L130.34 99.2838C130.33 99.1165 130.33 98.9491 130.337 98.785Z" fill="black"/>
<path d="M129.599 100.098L133.606 101.919L133.114 103.002L129.11 101.181L129.599 100.098Z" fill="black"/>
<path d="M126.799 105.647L127.179 105.854C127.179 105.68 127.192 105.502 127.218 105.319C127.245 105.135 127.284 104.951 127.336 104.764C127.386 104.577 127.451 104.39 127.527 104.206C127.602 104.022 127.691 103.839 127.786 103.661C127.9 103.455 128.028 103.264 128.176 103.09C128.323 102.917 128.481 102.782 128.648 102.68C128.819 102.579 128.999 102.523 129.192 102.51C129.386 102.497 129.583 102.546 129.789 102.661C130.048 102.802 130.229 102.992 130.324 103.232C130.419 103.468 130.442 103.763 130.392 104.118C130.343 104.469 130.225 104.885 130.042 105.365C129.858 105.844 129.615 106.398 129.314 107.028L129.396 107.074C129.458 107.11 129.533 107.127 129.612 107.127C129.694 107.127 129.783 107.097 129.878 107.032C129.973 106.966 130.081 106.868 130.192 106.73C130.307 106.592 130.429 106.402 130.56 106.162C130.665 105.972 130.756 105.781 130.838 105.584C130.92 105.388 130.989 105.197 131.052 105.007C131.111 104.817 131.16 104.633 131.199 104.456C131.238 104.278 131.268 104.111 131.288 103.96L132.216 104.469C132.176 104.62 132.13 104.784 132.071 104.964C132.012 105.145 131.95 105.329 131.875 105.519C131.799 105.709 131.724 105.896 131.639 106.083C131.553 106.27 131.468 106.448 131.376 106.612C131.199 106.936 131.009 107.219 130.806 107.465C130.602 107.711 130.392 107.898 130.17 108.036C129.95 108.17 129.724 108.249 129.487 108.266C129.255 108.282 129.019 108.226 128.782 108.095L126.225 106.694L126.799 105.647ZM128.559 106.612C128.763 106.201 128.93 105.85 129.055 105.555C129.179 105.26 129.274 105.01 129.337 104.803C129.402 104.597 129.442 104.429 129.455 104.301C129.471 104.173 129.468 104.068 129.451 103.993C129.435 103.914 129.409 103.858 129.369 103.822C129.33 103.786 129.294 103.757 129.255 103.737C129.209 103.711 129.16 103.701 129.104 103.701C129.048 103.701 128.989 103.724 128.923 103.77C128.858 103.812 128.789 103.881 128.714 103.97C128.638 104.062 128.559 104.183 128.478 104.337C128.386 104.508 128.307 104.682 128.245 104.859C128.182 105.036 128.133 105.21 128.1 105.381C128.064 105.552 128.045 105.719 128.038 105.883C128.032 106.047 128.035 106.198 128.051 106.336L128.559 106.612Z" fill="black"/>
<path d="M127.012 111.721L124.166 109.785L124.834 108.8L127.681 110.736L128.73 109.191L129.524 109.729L126.753 113.805L125.959 113.266L127.012 111.721Z" fill="black"/>
<path d="M122.641 111.875L126.113 114.579L125.382 115.518L121.91 112.814L122.641 111.875Z" fill="black"/>
<path d="M118.932 119.544C118.653 119.288 118.453 119.012 118.332 118.714C118.211 118.415 118.168 118.107 118.198 117.785C118.227 117.464 118.332 117.132 118.506 116.794C118.68 116.456 118.922 116.115 119.231 115.777C119.539 115.439 119.857 115.163 120.178 114.956C120.5 114.75 120.821 114.615 121.142 114.553C121.46 114.49 121.775 114.507 122.083 114.595C122.392 114.687 122.687 114.858 122.965 115.114C123.244 115.37 123.444 115.646 123.562 115.944C123.68 116.243 123.726 116.555 123.693 116.879C123.661 117.204 123.556 117.536 123.382 117.877C123.205 118.218 122.962 118.556 122.654 118.898C122.346 119.236 122.028 119.508 121.706 119.715C121.385 119.921 121.064 120.053 120.749 120.112C120.431 120.171 120.119 120.154 119.811 120.063C119.503 119.971 119.211 119.797 118.932 119.544ZM119.742 118.655C119.863 118.766 120.001 118.858 120.159 118.927C120.313 118.999 120.486 119.029 120.67 119.019C120.857 119.009 121.057 118.944 121.273 118.829C121.49 118.714 121.716 118.524 121.955 118.261C122.116 118.084 122.244 117.916 122.339 117.756C122.434 117.595 122.503 117.444 122.542 117.303C122.582 117.158 122.601 117.027 122.595 116.899C122.588 116.774 122.569 116.656 122.529 116.548C122.49 116.44 122.437 116.341 122.372 116.249C122.306 116.158 122.234 116.079 122.155 116.007C122.073 115.934 121.985 115.869 121.89 115.81C121.795 115.751 121.69 115.708 121.578 115.678C121.467 115.649 121.349 115.639 121.224 115.646C121.1 115.652 120.968 115.685 120.831 115.737C120.693 115.793 120.549 115.872 120.401 115.984C120.254 116.095 120.096 116.236 119.936 116.413C119.696 116.676 119.526 116.922 119.431 117.145C119.335 117.372 119.29 117.575 119.296 117.762C119.303 117.949 119.349 118.117 119.434 118.264C119.516 118.415 119.621 118.543 119.742 118.655Z" fill="black"/>
<path d="M113.453 121.48L115.066 123.344C115.174 123.469 115.283 123.574 115.391 123.656C115.499 123.738 115.614 123.79 115.732 123.813C115.85 123.836 115.978 123.823 116.115 123.774C116.253 123.725 116.401 123.63 116.561 123.489C116.683 123.384 116.797 123.256 116.906 123.105C117.011 122.954 117.106 122.796 117.191 122.625C117.276 122.455 117.345 122.284 117.404 122.107C117.46 121.93 117.502 121.762 117.529 121.602L115.722 119.515L116.62 118.737L119.503 122.064L118.604 122.842L118.211 122.386C118.155 122.547 118.089 122.717 118.017 122.891C117.945 123.065 117.86 123.239 117.762 123.416C117.663 123.594 117.548 123.767 117.414 123.938C117.279 124.112 117.125 124.273 116.945 124.43C116.722 124.624 116.496 124.772 116.273 124.87C116.05 124.969 115.833 125.021 115.624 125.031C115.414 125.037 115.217 124.998 115.03 124.916C114.843 124.831 114.673 124.703 114.522 124.529L112.558 122.261L113.453 121.48Z" fill="black"/>
<path d="M56.1509 137.445L57.6462 133.455L54.0457 136.657L52.5734 136.106L51.9602 131.325L50.4683 135.315L48.9337 134.741L51.0618 129.057L53.144 129.838L53.8293 135L57.7314 131.558L59.8071 132.336L57.679 138.019L56.1509 137.445Z" fill="black"/>
<path d="M60.112 138.577L61.3318 132.634L67.3457 133.871L67.0866 135.138L62.7189 134.239L62.5189 135.22L66.6603 136.07L66.4013 137.337L62.2598 136.487L62.0205 137.645L66.4472 138.554L66.1882 139.821L60.112 138.577Z" fill="black"/>
<path d="M76.0418 140.563L76.2385 136.303L73.7956 140.458L72.2249 140.385L70.1722 136.024L69.9755 140.28L68.3392 140.205L68.618 134.144L70.8412 134.246L73.0775 138.948L75.7336 134.472L77.9469 134.574L77.6682 140.635L76.0418 140.563Z" fill="black"/>
<path d="M86.8693 137.954C86.8955 138.187 86.889 138.393 86.8496 138.574C86.807 138.754 86.7414 138.912 86.6463 139.05C86.5512 139.188 86.4332 139.302 86.2889 139.401C86.1446 139.496 85.9839 139.578 85.8036 139.644C85.6232 139.713 85.4298 139.765 85.2199 139.808C85.0133 139.851 84.7936 139.887 84.5707 139.913L80.1996 140.431L79.4848 134.406L83.7738 133.898C83.9476 133.878 84.1214 133.865 84.2952 133.858C84.4723 133.852 84.6395 133.858 84.8035 133.881C84.9674 133.901 85.1183 133.94 85.2625 133.993C85.4068 134.049 85.5347 134.124 85.6495 134.226C85.7642 134.328 85.8593 134.456 85.9348 134.61C86.0102 134.764 86.0626 134.951 86.0889 135.171C86.1348 135.561 86.0757 135.886 85.9118 136.136C85.7478 136.388 85.4593 136.579 85.056 136.703C85.3511 136.69 85.6068 136.703 85.8233 136.749C86.0397 136.792 86.2233 136.868 86.3676 136.969C86.5119 137.071 86.6266 137.206 86.7086 137.37C86.7873 137.53 86.8431 137.727 86.8693 137.954ZM84.5346 135.617C84.5247 135.542 84.5051 135.47 84.4723 135.404C84.4395 135.338 84.3903 135.283 84.3247 135.237C84.2559 135.191 84.1673 135.158 84.0591 135.138C83.9509 135.118 83.8132 135.118 83.6492 135.138L81.2522 135.424L81.3867 136.556L83.7837 136.27C83.9476 136.251 84.0788 136.221 84.1804 136.178C84.2821 136.136 84.3608 136.087 84.4165 136.031C84.4723 135.975 84.5084 135.909 84.5215 135.837C84.5346 135.765 84.5444 135.693 84.5346 135.617ZM85.1937 137.96C85.1773 137.822 85.1412 137.714 85.0855 137.639C85.0297 137.56 84.9477 137.504 84.8428 137.471C84.7379 137.439 84.6067 137.422 84.446 137.429C84.2854 137.432 84.0985 137.448 83.8788 137.475L81.5309 137.754L81.6818 139.03L84.0296 138.751C84.2493 138.725 84.4362 138.695 84.5936 138.663C84.751 138.63 84.8756 138.584 84.9674 138.525C85.0592 138.466 85.1248 138.393 85.1642 138.305C85.2035 138.216 85.2101 138.098 85.1937 137.96Z" fill="black"/>
<path d="M89.0433 139.197L87.5251 133.323L93.4701 131.784L93.7947 133.038L89.4794 134.154L89.7319 135.125L93.8242 134.065L94.1488 135.319L90.0566 136.379L90.3517 137.524L94.726 136.392L95.0506 137.645L89.0433 139.197Z" fill="black"/>
<path d="M98.5527 136.362L97.0377 136.979L94.7489 131.358L98.5494 129.809C98.9593 129.642 99.3232 129.543 99.6413 129.51C99.9594 129.478 100.241 129.504 100.484 129.586C100.727 129.668 100.93 129.802 101.101 129.989C101.271 130.176 101.412 130.406 101.52 130.675C101.615 130.912 101.668 131.135 101.674 131.338C101.681 131.542 101.651 131.732 101.589 131.906C101.527 132.08 101.438 132.241 101.323 132.388C101.209 132.536 101.081 132.674 100.937 132.798L103.681 134.269L101.907 134.991L99.3659 133.616L97.7099 134.292L98.5527 136.362ZM99.9823 131.295C99.9397 131.187 99.8872 131.099 99.8249 131.036C99.7659 130.971 99.6905 130.928 99.5987 130.912C99.5069 130.892 99.3987 130.898 99.2708 130.925C99.1429 130.951 98.9921 131 98.815 131.072L96.7393 131.919L97.2279 133.123L99.3036 132.277C99.4806 132.204 99.6249 132.132 99.7331 132.063C99.8413 131.994 99.9233 131.919 99.9758 131.844C100.028 131.768 100.051 131.686 100.048 131.597C100.051 131.502 100.028 131.404 99.9823 131.295Z" fill="black"/>
<path d="M43.9921 129.92C44.7799 129.92 45.4185 129.281 45.4185 128.493C45.4185 127.705 44.7799 127.065 43.9921 127.065C43.2043 127.065 42.5657 127.705 42.5657 128.493C42.5657 129.281 43.2043 129.92 43.9921 129.92Z" fill="black"/>
<path d="M108.57 129.92C109.358 129.92 109.997 129.281 109.997 128.493C109.997 127.705 109.358 127.065 108.57 127.065C107.782 127.065 107.144 127.705 107.144 128.493C107.144 129.281 107.782 129.92 108.57 129.92Z" fill="black"/>
</g>
<defs>
<clipPath id="clip0_909_252">
<rect width="151.529" height="151.529" fill="white" transform="translate(0 0.262695)"/>
</clipPath>
</defs>
</svg>
