<svg width="115" height="35" viewBox="0 0 115 35" fill="none" xmlns="http://www.w3.org/2000/svg">
<path d="M41.3499 14.8723V11.8806H36.4442V14.8723H34.5195V7.71095H36.4442V10.3179H41.3499V7.71095H43.2746V14.8723H41.3499Z" fill="white"/>
<path d="M50.9812 13.5139H46.9988L46.3259 14.8723H44.1743L47.9064 7.71095H50.058L53.79 14.8723H51.6384L50.9812 13.5139ZM47.6951 12.1161H50.3005L49.0017 9.47773L47.6951 12.1161Z" fill="white"/>
<path d="M54.7054 14.8723V7.71095H56.6301V13.3018H61.8408V14.8723H54.7054Z" fill="white"/>
<path d="M63.1239 14.8723V7.71095H65.0486V13.3018H70.2594V14.8723H63.1239Z" fill="white"/>
<path d="M80.6105 14.8723V9.83894L77.9582 14.8723H76.1117L73.4594 9.83894V14.8723H71.5347V7.71095H74.1557L77.0428 13.1369L79.9298 7.71095H82.5352V14.8723H80.6105Z" fill="white"/>
<path d="M90.234 13.5139H86.2516L85.5787 14.8723H83.4271L87.1592 7.71095H89.3107L93.0428 14.8723H90.8912L90.234 13.5139ZM86.9401 12.1161H89.5455L88.2467 9.47773L86.9401 12.1161Z" fill="white"/>
<path d="M93.9581 14.8723V7.71095H98.7934C99.3097 7.71095 99.7557 7.76591 100.116 7.87585C100.476 7.98578 100.773 8.13498 101 8.33129C101.227 8.5276 101.391 8.77102 101.493 9.04585C101.594 9.32854 101.649 9.63478 101.649 9.98028C101.649 10.2787 101.61 10.5457 101.524 10.7734C101.438 11.0011 101.328 11.1896 101.18 11.3545C101.039 11.5194 100.867 11.6528 100.679 11.7628C100.491 11.8727 100.288 11.9669 100.076 12.0376L102.416 14.8723H100.163L98.0031 12.2339H95.8985V14.8723H93.9581ZM99.6931 9.97243C99.6931 9.83109 99.6775 9.7133 99.6383 9.61908C99.5992 9.52485 99.5366 9.44632 99.4506 9.3835C99.3645 9.32068 99.2393 9.28142 99.0907 9.25001C98.942 9.2186 98.7542 9.21075 98.5273 9.21075H95.8907V10.742H98.5273C98.7542 10.742 98.942 10.7263 99.0907 10.7027C99.2393 10.6713 99.3645 10.632 99.4506 10.5692C99.5366 10.5064 99.607 10.4279 99.6383 10.3336C99.6696 10.2237 99.6931 10.1059 99.6931 9.97243Z" fill="white"/>
<path d="M105.459 10.4358L109.411 7.70312H111.992L107.189 11.1425L112.313 14.8723H109.504L105.459 11.8963V14.8723H103.519V7.71098H105.459V10.4358Z" fill="white"/>
<path d="M41.3499 27.6874V24.6956H36.4442V27.6874H34.5195V20.526H36.4442V23.133H41.3499V20.526H43.2746V27.6874H41.3499Z" fill="white"/>
<path d="M50.9812 26.3289H46.9988L46.3259 27.6874H44.1743L47.9064 20.526H50.058L53.79 27.6874H51.6384L50.9812 26.3289ZM47.6951 24.9312H50.3005L49.0017 22.2928L47.6951 24.9312Z" fill="white"/>
<path d="M54.7054 27.6874V20.526H59.5406C60.057 20.526 60.5029 20.581 60.8628 20.6909C61.2227 20.8009 61.52 20.9501 61.7469 21.1464C61.9738 21.3427 62.1381 21.5861 62.2399 21.8609C62.3416 22.1436 62.3963 22.4499 62.3963 22.7954C62.3963 23.0938 62.3572 23.3607 62.2711 23.5885C62.1851 23.8162 62.0755 24.0046 61.9269 24.1695C61.7861 24.3344 61.6139 24.4679 61.4262 24.5779C61.2384 24.6878 61.035 24.782 60.8237 24.8527L63.1631 27.6874H60.9098L58.7504 25.049H56.6457V27.6874H54.7054ZM60.4403 22.7797C60.4403 22.6383 60.4247 22.5205 60.3856 22.4263C60.3464 22.3321 60.2839 22.2536 60.1978 22.1907C60.1117 22.1279 59.9865 22.0887 59.8379 22.0573C59.6892 22.0258 59.5015 22.018 59.2746 22.018H56.6379V23.5492H59.2746C59.5015 23.5492 59.6892 23.5335 59.8379 23.5099C59.9865 23.4785 60.1117 23.4393 60.1978 23.3764C60.2839 23.3136 60.3543 23.2351 60.3856 23.1409C60.4247 23.0388 60.4403 22.921 60.4403 22.7797Z" fill="white"/>
<path d="M73.0135 24.0989C73.0135 24.5543 72.9666 24.9626 72.8648 25.3239C72.7631 25.6772 72.6223 25.9913 72.4424 26.2583C72.2624 26.5253 72.0433 26.7451 71.7851 26.9336C71.5348 27.1142 71.2453 27.2634 70.9402 27.3812C70.6272 27.4911 70.2908 27.5696 69.9309 27.6246C69.571 27.6717 69.1954 27.7031 68.8042 27.7031H64.2741V20.5418H68.7964C69.1876 20.5418 69.5631 20.5653 69.923 20.6203C70.2829 20.6674 70.6194 20.7538 70.9323 20.8637C71.2453 20.9736 71.527 21.1228 71.7851 21.3034C72.0433 21.484 72.2624 21.7118 72.4424 21.9787C72.6223 22.2457 72.7631 22.552 72.8648 22.9132C72.9587 23.2351 73.0135 23.6434 73.0135 24.0989ZM71.0653 24.0989C71.0653 23.7534 71.0184 23.455 70.9323 23.2037C70.8463 22.9524 70.7054 22.7404 70.5098 22.5755C70.3142 22.4106 70.0561 22.285 69.7431 22.2065C69.4301 22.1279 69.0468 22.0808 68.593 22.0808H66.1988V26.1248H68.593C69.0468 26.1248 69.4301 26.0855 69.7431 25.9992C70.0561 25.9206 70.3142 25.795 70.5098 25.6222C70.7054 25.4573 70.8463 25.2453 70.9323 24.9862C71.0262 24.7428 71.0653 24.4444 71.0653 24.0989Z" fill="white"/>
<path d="M81.4398 20.5182L83.2628 25.4888L85.2345 20.5182H87.2374L84.3738 27.6796H82.2301L80.368 22.8582L78.5059 27.6796H76.3621L73.4907 20.5182H75.4936L77.4261 25.3867L79.2882 20.5182H81.4398Z" fill="white"/>
<path d="M93.9348 26.3289H89.9524L89.2795 27.6874H87.1279L90.8599 20.526H93.0115L96.7436 27.6874H94.5998L93.9348 26.3289ZM90.6409 24.9312H93.2463L91.9475 22.2928L90.6409 24.9312Z" fill="white"/>
<path d="M97.6512 27.6874V20.526H102.486C103.003 20.526 103.449 20.581 103.809 20.6909C104.169 20.8009 104.466 20.9501 104.693 21.1464C104.92 21.3427 105.084 21.5861 105.186 21.8609C105.287 22.1436 105.342 22.4499 105.342 22.7954C105.342 23.0938 105.303 23.3607 105.217 23.5885C105.131 23.8162 105.021 24.0046 104.873 24.1695C104.732 24.3344 104.56 24.4679 104.372 24.5779C104.184 24.6878 103.981 24.782 103.769 24.8527L106.109 27.6874H103.856L101.696 25.049H99.5915V27.6874H97.6512ZM103.394 22.7797C103.394 22.6383 103.378 22.5205 103.339 22.4263C103.3 22.3321 103.237 22.2536 103.151 22.1907C103.065 22.1279 102.94 22.0887 102.791 22.0573C102.643 22.0258 102.455 22.018 102.228 22.018H99.5915V23.5492H102.228C102.455 23.5492 102.643 23.5335 102.791 23.5099C102.94 23.4785 103.065 23.4393 103.151 23.3764C103.237 23.3136 103.308 23.2351 103.339 23.1409C103.37 23.0388 103.394 22.921 103.394 22.7797Z" fill="white"/>
<path d="M107.22 20.526H114.449V22.0573H109.199V23.2351H114.175V24.7663H109.199V26.164H114.52V27.6953H107.22V20.526Z" fill="white"/>
<path opacity="0.5" d="M7.4941 29.9016L0 27.3742V7.27759L7.4941 9.80503V29.9016Z" fill="#EDEDED"/>
<path opacity="0.5" d="M22.4981 34.999L14.9961 32.4716V12.375L22.4981 14.9024V34.999Z" fill="#EDEDED"/>
<path d="M14.9941 22.624L7.49219 20.0966V0L14.9941 2.52744V22.624Z" fill="white"/>
<path d="M29.998 27.7256L22.4961 25.1982V5.10156L29.998 7.629V27.7256Z" fill="white"/>
</svg>
